<svg xmlns="http://www.w3.org/2000/svg" width="79.438" height="48.123" viewBox="0 0 79.438 48.123">
  <g id="BT" transform="translate(0 0)">
    <g id="Grupo_2040" data-name="Grupo 2040">
      <path id="Caminho_2338" data-name="Caminho 2338" d="M718.217,220.51l-12.2,48.121H709.5l12.2-48.121Z" transform="translate(-649.775 -220.509)" fill="#11f215"/>
      <path id="Caminho_2339" data-name="Caminho 2339" d="M774.03,268.631h3.482l12.194-48.121h-3.482Z" transform="translate(-710.269 -220.509)" fill="#11f215"/>
      <path id="Caminho_2340" data-name="Caminho 2340" d="M258.3,260.474h0V248.6h10.282a5.938,5.938,0,1,1,0,11.871Zm20.855-32.024h11.6v40.173h8.065V228.45h13.946l2.2-7.95H250.24v48.055h18.345a13.924,13.924,0,0,0,9.838-4.19,13.755,13.755,0,0,0,4.072-9.777v-.1a13.76,13.76,0,0,0-4.072-9.777,14.573,14.573,0,0,0-1.353-1.208,13.732,13.732,0,0,0,3.408-9.066v-.1A13.693,13.693,0,0,0,279.158,228.45Zm-12.59,0a5.938,5.938,0,1,1,0,11.872H258.3V228.451h8.265Z" transform="translate(-250.24 -220.5)" fill="#044bd9"/>
    </g>
  </g>
</svg>
