<svg xmlns="http://www.w3.org/2000/svg" xmlns:xlink="http://www.w3.org/1999/xlink" width="201" height="111.318" viewBox="0 0 201 111.318">
  <defs>
    <clipPath id="clip-path">
      <rect id="Retângulo_2057" data-name="Retângulo 2057" width="201" height="111.318" fill="none"/>
    </clipPath>
    <clipPath id="clip-path-2">
      <path id="Caminho_6977" data-name="Caminho 6977" d="M413.861,83.261c-5.847,8.1.53,21.824.53,21.824,1.871-1.919,8.952-1.03,16.339-9.065s.554-24.2.554-24.2-11.575,3.339-17.423,11.443" transform="translate(-411.393 -71.818)" fill="none"/>
    </clipPath>
  </defs>
  <g id="Grupo_4802" data-name="Grupo 4802" transform="translate(-570.765 -1036.129)">
    <g id="Grupo_4800" data-name="Grupo 4800" transform="translate(570.765 1036.129)">
      <g id="Grupo_4795" data-name="Grupo 4795">
        <g id="Grupo_4794" data-name="Grupo 4794" clip-path="url(#clip-path)">
          <path id="Caminho_6914" data-name="Caminho 6914" d="M144.157,34.014S157,36.579,161.37,35.031s-1.495-4.184.389-9.954,4.491-21.482-2.086-14.52-3.783,11.884-2.3,7.817,8.171-13.775-3.3-17.318-18.01,2.389-10,9.578-7.4-14.385-9.7-6.569,4.606,9.462,6.9,10.24-6.938-9.21-8.6-.681,3.742,14.586,11.478,20.39" transform="translate(-78.703 0)" fill="#002740"/>
          <path id="Caminho_6915" data-name="Caminho 6915" d="M329.547,115.191s4.082.514,15.083,8.368" transform="translate(-195.926 -68.485)" fill="#c5e1f9"/>
          <path id="Caminho_6916" data-name="Caminho 6916" d="M336.221,119.164a17.965,17.965,0,0,1-1.748-.77c-.267-.135-.522-.275-.764-.416s-.478-.255-.7-.387a11.473,11.473,0,0,1-1.2-.814,7.678,7.678,0,0,1-.937-.774,7.49,7.49,0,0,1-.686-.752,4.528,4.528,0,0,1-.259-.373,3.55,3.55,0,0,1-.189-.347,3.352,3.352,0,0,1-.141-.348c-.018-.057-.037-.116-.052-.173a1.324,1.324,0,0,1-.024-.162,2.1,2.1,0,0,1-.007-.649.991.991,0,0,1,.275-.6,2.249,2.249,0,0,1,.284-.247,2.1,2.1,0,0,1,.373-.207,3.473,3.473,0,0,1,.973-.257,5.359,5.359,0,0,1,.592-.047,5.222,5.222,0,0,1,.632.026,9.644,9.644,0,0,1,1.422.243,13.819,13.819,0,0,1,1.536.55c.266.115.547.235.817.379s.536.3.811.474c.545.339,1.105.727,1.669,1.161a16.873,16.873,0,0,1,1.514,1.4c.27.275.544.568.819.871s.551.611.8.944a33.765,33.765,0,0,1,2.567,3.675,36.52,36.52,0,0,1-4.163-.963l-.562-.169-.566-.159c-.376-.107-.746-.221-1.1-.339a18.253,18.253,0,0,1-1.988-.774" transform="translate(-195.895 -66.494)" fill="#c5e1f9"/>
          <path id="Caminho_6917" data-name="Caminho 6917" d="M341.5,143.329s12.9.54,13.431.6" transform="translate(-203.031 -85.214)" fill="#c5e1f9"/>
          <path id="Caminho_6918" data-name="Caminho 6918" d="M348.263,142.392c-4.333.628-6.92-1.2-6.768-2.9.057-1.709,2.822-3.294,7.015-2.316a16.528,16.528,0,0,1,3.311,1.191,21.59,21.59,0,0,1,3.106,1.723A27.029,27.029,0,0,1,351.7,141.5a15.555,15.555,0,0,1-3.436.89" transform="translate(-203.025 -81.376)" fill="#c5e1f9"/>
          <path id="Caminho_6919" data-name="Caminho 6919" d="M364.866,122.68c-2.06-3.46-1.229-6.306.405-6.8,1.611-.575,4.026,1.2,4.531,5.087a20.375,20.375,0,0,1-.511,6.5,18,18,0,0,1-4.425-4.784" transform="translate(-216.199 -68.831)" fill="#c5e1f9"/>
          <path id="Caminho_6920" data-name="Caminho 6920" d="M385.618,114.343s4.213,8.434.365,16.337" transform="translate(-229.262 -67.98)" fill="#c5e1f9"/>
          <path id="Caminho_6921" data-name="Caminho 6921" d="M383.043,122.6c-.126-.586-.234-1.135-.326-1.66s-.172-1.019-.233-1.488a13.442,13.442,0,0,1-.115-2.5c.088-1.45.527-2.463,1.311-2.806.757-.4,1.956.071,2.987,1.477a8.426,8.426,0,0,1,1.287,2.787,11.3,11.3,0,0,1,.312,4.017,10.722,10.722,0,0,1-.421,2.149,13.24,13.24,0,0,1-.97,2.377,12.265,12.265,0,0,1-1.383,2.087c-.119.152-.246.3-.373.429s-.249.264-.367.386c-.25.24-.49.446-.707.628,0-.287-.008-.592-.013-.909s-.02-.652-.047-.994c-.041-.681-.122-1.394-.218-2.093s-.233-1.393-.363-2.048-.266-1.274-.361-1.837" transform="translate(-227.321 -67.785)" fill="#c5e1f9"/>
          <path id="Caminho_6922" data-name="Caminho 6922" d="M351.343,158.376s7.6-1.617,14.283-.273" transform="translate(-208.884 -93.68)" fill="#c5e1f9"/>
          <path id="Caminho_6923" data-name="Caminho 6923" d="M358.68,156.221c-.538.107-1.049.207-1.533.257a12.183,12.183,0,0,1-1.375.1,8.042,8.042,0,0,1-2.261-.271c-1.275-.36-2.078-1.062-2.219-1.906-.189-.834.386-1.828,1.645-2.558a7.207,7.207,0,0,1,2.371-.817,9.968,9.968,0,0,1,1.522-.14,11.514,11.514,0,0,1,1.716.114,13.454,13.454,0,0,1,3.715,1.11c.331.152.657.3.973.466s.617.345.9.517.537.341.792.531.459.345.649.505c-.24.085-.5.173-.765.26s-.547.167-.837.272l-1.8.594-.458.143-.457.148c-.3.1-.6.182-.9.269s-.585.167-.864.233-.554.134-.814.178" transform="translate(-208.833 -89.705)" fill="#c5e1f9"/>
          <path id="Caminho_6924" data-name="Caminho 6924" d="M352.747,172.619s4.467-3.369,16.3,1.89" transform="translate(-209.719 -101.995)" fill="#c5e1f9"/>
          <path id="Caminho_6925" data-name="Caminho 6925" d="M360.434,170.424q-.462,0-.892-.027l-.212-.015c-.07,0-.138,0-.206,0-.137,0-.271-.007-.4-.015-.531-.045-1-.048-1.454-.108a15.1,15.1,0,0,1-2.241-.328,6.325,6.325,0,0,1-1.568-.548,2.831,2.831,0,0,1-1.014-.851,1.3,1.3,0,0,1,0-1.419,4,4,0,0,1,1.727-1.6q.317-.162.689-.315c.243-.09.5-.167.77-.243.136-.035.277-.078.416-.1s.283-.049.43-.071.3-.041.448-.058a4.114,4.114,0,0,1,.463-.035c.31-.009.63-.008.96,0l.249.011.245.027c.166.019.333.041.5.065s.342.053.515.081c.086.016.174.03.26.048l.255.065q.515.133,1.044.3a6.883,6.883,0,0,1,.93.354c.328.143.672.305,1.024.482s.692.4,1.045.621a10.906,10.906,0,0,1,1.038.7c.336.251.664.506.979.759.157.128.311.254.463.38s.292.264.432.394c.555.524,1.04,1.018,1.414,1.443-.576.032-1.239.047-1.941.045l-.533-.006-.55.012c-.371.006-.744.007-1.117,0-.186,0-.372-.009-.558-.007s-.374.007-.559.011c-.369,0-.729,0-1.084-.01s-.7.007-1.024,0-.649-.036-.944-.036" transform="translate(-209.413 -97.909)" fill="#c5e1f9"/>
          <path id="Caminho_6926" data-name="Caminho 6926" d="M400.443,133.5c-1.64,2.854-4.294,17.587-4.294,17.587" transform="translate(-235.523 -79.369)" fill="#c5e1f9"/>
          <path id="Caminho_6927" data-name="Caminho 6927" d="M394.01,141.6a14.03,14.03,0,0,1,2.082-6.773,4.778,4.778,0,0,1,1.629-1.557,2.084,2.084,0,0,1,.4-.158,1.415,1.415,0,0,1,.379-.06,1.1,1.1,0,0,1,.622.184,1.691,1.691,0,0,1,.489.438,2.81,2.81,0,0,1,.2.288,3.245,3.245,0,0,1,.174.343,5.521,5.521,0,0,1,.386,1.934,17.11,17.11,0,0,1-1.252,6.483,32.233,32.233,0,0,1-1.919,4.12,45.624,45.624,0,0,1-2.367,3.977,30.208,30.208,0,0,1-.817-9.22" transform="translate(-234.197 -79.106)" fill="#c5e1f9"/>
          <path id="Caminho_6928" data-name="Caminho 6928" d="M404.7,162.721s-7.577,6.623-10.858,14.75" transform="translate(-234.152 -96.743)" fill="#c5e1f9"/>
          <path id="Caminho_6929" data-name="Caminho 6929" d="M396.266,167.429c.1-.173.193-.342.29-.508s.2-.321.308-.477c.206-.311.413-.61.624-.892a15.317,15.317,0,0,1,1.3-1.5,10.642,10.642,0,0,1,2.533-1.936c1.591-.837,2.865-.806,3.385-.127.571.639.478,1.851-.243,3.348a14.214,14.214,0,0,1-1.545,2.453c-.343.431-.7.892-1.123,1.347-.4.469-.868.933-1.345,1.423-.8.811-2.016,1.887-3.257,3.009l-.925.843c-.294.284-.589.568-.879.838s-.552.541-.811.79-.5.487-.729.7c0-.3,0-.635.012-.992a10.032,10.032,0,0,1,.081-1.128c.048-.388.107-.8.175-1.216.032-.212.081-.416.125-.627l.149-.633q.081-.322.162-.642c.06-.211.129-.419.2-.628.137-.416.275-.839.438-1.238s.335-.786.512-1.16.375-.715.567-1.044" transform="translate(-234.153 -96.007)" fill="#c5e1f9"/>
          <path id="Caminho_6930" data-name="Caminho 6930" d="M352.414,186.061a23.55,23.55,0,0,1,15.777,2.692" transform="translate(-209.521 -110.399)" fill="#c5e1f9"/>
          <path id="Caminho_6931" data-name="Caminho 6931" d="M360.248,184.574c-.3,0-.585,0-.862-.014s-.551-.006-.811-.022l-.386-.026c-.126,0-.252-.012-.375-.02-.243-.015-.482-.048-.712-.07a11.638,11.638,0,0,1-2.388-.479c-1.338-.433-2.19-1.106-2.344-1.946a1.561,1.561,0,0,1,.369-1.332,4.208,4.208,0,0,1,1.7-1.21,8.273,8.273,0,0,1,2.91-.6c.287-.007.582,0,.887.017.152.007.306.016.463.029s.314.041.474.064c.32.05.646.1.978.178s.668.178,1.008.284a6.739,6.739,0,0,1,.911.335c.32.141.663.284,1,.472s.689.395,1.036.608a5.671,5.671,0,0,1,.512.345l.5.371.487.376c.162.126.309.271.459.405.3.274.577.545.839.807a16.068,16.068,0,0,1,1.242,1.541c-.565-.014-1.2-.051-1.865-.092-.34,0-.689-.01-1.036-.02l-.523-.019-.533.006c-.355,0-.7,0-1.05,0-.35.015-.693.021-1.025.021s-.66.014-.973.011-.607-.024-.9-.02" transform="translate(-209.479 -106.336)" fill="#c5e1f9"/>
          <path id="Caminho_6932" data-name="Caminho 6932" d="M333.624,114.323s17.575,8.7,22.551,19.912c4.214,9.493.717,12.448-.114,21.14-.11,1.157-1.16,7.42,3.811,15.448" transform="translate(-198.35 -67.969)" fill="none" stroke="#9ac7f7" stroke-width="4.273"/>
          <path id="Caminho_6933" data-name="Caminho 6933" d="M369.126,116.287s1.93,9.612,4.316,13.252" transform="translate(-219.457 -69.136)" fill="none" stroke="#9ac7f7" stroke-width="4.273"/>
          <path id="Caminho_6934" data-name="Caminho 6934" d="M342.072,142.855s10.357-1.4,14.767,1.466" transform="translate(-203.372 -84.729)" fill="none" stroke="#9ac7f7" stroke-width="4.273"/>
          <path id="Caminho_6935" data-name="Caminho 6935" d="M385.99,114.764s3.762,9.567-.678,16.847" transform="translate(-229.08 -68.231)" fill="none" stroke="#9ac7f7" stroke-width="4.273"/>
          <path id="Caminho_6936" data-name="Caminho 6936" d="M352.021,156.715a15.145,15.145,0,0,1,14.13-.183" transform="translate(-209.287 -92.077)" fill="none" stroke="#9ac7f7" stroke-width="4.273"/>
          <path id="Caminho_6937" data-name="Caminho 6937" d="M399.108,134.2s-3.933,12.93-5.016,21.915" transform="translate(-234.3 -79.787)" fill="none" stroke="#9ac7f7" stroke-width="4.273"/>
          <path id="Caminho_6938" data-name="Caminho 6938" d="M352.709,171.449c3.069-2.9,15.672-.511,16.792,3.4" transform="translate(-209.696 -101.168)" fill="none" stroke="#9ac7f7" stroke-width="4.273"/>
          <path id="Caminho_6939" data-name="Caminho 6939" d="M401.046,163.97s-10.569,10.427-12.079,20.654" transform="translate(-231.253 -97.485)" fill="none" stroke="#9ac7f7" stroke-width="4.273"/>
          <path id="Caminho_6940" data-name="Caminho 6940" d="M354.429,184.22s10.47-2.228,15.543,4.3" transform="translate(-210.719 -109.306)" fill="none" stroke="#9ac7f7" stroke-width="4.273"/>
          <path id="Caminho_6941" data-name="Caminho 6941" d="M439.3,171.113l2.608,2.051a34.6,34.6,0,0,0,5.984-4.677,28.024,28.024,0,0,0-4.7-5.317c-8.937-7.817-26.332-.766-27.383,14.783,4.8,1.729,11.669,1.437,18.847-1.235a40.663,40.663,0,0,0,5.3-2.417Z" transform="translate(-247.208 -95.102)" fill="#c5e1f9"/>
          <path id="Caminho_6942" data-name="Caminho 6942" d="M442.239,178.483s-18.365-7.242-31.032,8.118a27.207,27.207,0,0,0-4.909,11.538" transform="translate(-241.557 -105.099)" fill="none" stroke="#9ac7f7" stroke-width="4.273"/>
          <line id="Linha_121" data-name="Linha 121" x1="2.867" y2="2.72" transform="translate(194.382 69.243)" fill="none" stroke="#9ac7f7" stroke-width="4.273"/>
          <line id="Linha_122" data-name="Linha 122" x1="4.197" y2="4.851" transform="translate(189.974 66.822)" fill="none" stroke="#9ac7f7" stroke-width="4.273"/>
          <line id="Linha_123" data-name="Linha 123" x1="4.952" y2="6.739" transform="translate(185.566 65.324)" fill="none" stroke="#9ac7f7" stroke-width="4.273"/>
          <line id="Linha_124" data-name="Linha 124" x1="4.19" y2="8.183" transform="translate(181.568 64.928)" fill="none" stroke="#9ac7f7" stroke-width="4.273"/>
          <line id="Linha_125" data-name="Linha 125" x1="3.157" y2="8.55" transform="translate(178.298 65.877)" fill="none" stroke="#9ac7f7" stroke-width="4.273"/>
          <line id="Linha_126" data-name="Linha 126" x1="2.354" y2="8.669" transform="translate(174.401 68.257)" fill="none" stroke="#9ac7f7" stroke-width="4.273"/>
          <line id="Linha_127" data-name="Linha 127" x1="1.647" y2="7.896" transform="translate(171.122 71.968)" fill="none" stroke="#9ac7f7" stroke-width="4.273"/>
          <line id="Linha_128" data-name="Linha 128" x1="2.982" y1="4.193" transform="translate(194.516 71.899)" fill="none" stroke="#9ac7f7" stroke-width="4.273"/>
          <line id="Linha_129" data-name="Linha 129" x2="5.046" y2="6.189" transform="translate(189.974 71.672)" fill="none" stroke="#9ac7f7" stroke-width="4.273"/>
          <line id="Linha_130" data-name="Linha 130" x2="5.569" y2="7.922" transform="translate(185.566 72.063)" fill="none" stroke="#9ac7f7" stroke-width="4.273"/>
          <line id="Linha_131" data-name="Linha 131" x2="5.43" y2="8.688" transform="translate(181.568 73.111)" fill="none" stroke="#9ac7f7" stroke-width="4.273"/>
          <line id="Linha_132" data-name="Linha 132" x2="4.92" y2="8.501" transform="translate(178.298 74.427)" fill="none" stroke="#9ac7f7" stroke-width="4.273"/>
          <line id="Linha_133" data-name="Linha 133" x2="4.287" y2="6.839" transform="translate(174.401 76.926)" fill="none" stroke="#9ac7f7" stroke-width="4.273"/>
          <line id="Linha_134" data-name="Linha 134" x2="3.061" y2="3.99" transform="translate(171.122 79.863)" fill="none" stroke="#9ac7f7" stroke-width="4.273"/>
          <path id="Caminho_6943" data-name="Caminho 6943" d="M386.379,31.593c1.773,4.749,5.324,6.51,10.376,6.391,3.817-3.836,4.42-8.415,1.331-13.066a24.851,24.851,0,0,0-13.7-9.52c-.212,4.851.242,11.5,2,16.2" transform="translate(-228.498 -9.155)" fill="#c5e1f9"/>
          <path id="Caminho_6944" data-name="Caminho 6944" d="M388.238,20.738a114.254,114.254,0,0,1,11.906,22.533c.977,2.48,9.91,30.748-3.732,47.813" transform="translate(-230.819 -12.329)" fill="none" stroke="#9ac7f7" stroke-width="4.273"/>
          <path id="Caminho_6945" data-name="Caminho 6945" d="M396.189,27a33.715,33.715,0,0,0,.383-4.055" transform="translate(-235.547 -13.643)" fill="none" stroke="#9ac7f7" stroke-width="4.273"/>
          <path id="Caminho_6946" data-name="Caminho 6946" d="M401.1,34.749a31.842,31.842,0,0,0,1.167-4.6" transform="translate(-238.466 -17.925)" fill="none" stroke="#9ac7f7" stroke-width="4.273"/>
          <path id="Caminho_6947" data-name="Caminho 6947" d="M406.04,39.4a32.871,32.871,0,0,0,2.1-7.625" transform="translate(-241.403 -18.889)" fill="none" stroke="#9ac7f7" stroke-width="4.273"/>
          <path id="Caminho_6948" data-name="Caminho 6948" d="M409.816,47.751a32.561,32.561,0,0,0,2.849-6.934" transform="translate(-243.648 -24.267)" fill="none" stroke="#9ac7f7" stroke-width="4.273"/>
          <path id="Caminho_6949" data-name="Caminho 6949" d="M412.748,59.791a35.263,35.263,0,0,0,2.237-3.673" transform="translate(-245.391 -33.364)" fill="none" stroke="#9ac7f7" stroke-width="4.273"/>
          <path id="Caminho_6950" data-name="Caminho 6950" d="M389.812,29.7q-1.885-.547-3.773-1.107" transform="translate(-229.512 -17.001)" fill="none" stroke="#9ac7f7" stroke-width="4.273"/>
          <path id="Caminho_6951" data-name="Caminho 6951" d="M392.15,38.348c-1.926-.479-3.615-.987-5.546-1.487" transform="translate(-229.848 -21.915)" fill="none" stroke="#9ac7f7" stroke-width="4.273"/>
          <path id="Caminho_6952" data-name="Caminho 6952" d="M394.789,46.893c-2.382-.487-4.56-1.02-6.946-1.541" transform="translate(-230.585 -26.963)" fill="none" stroke="#9ac7f7" stroke-width="4.273"/>
          <path id="Caminho_6953" data-name="Caminho 6953" d="M398.564,55.3q-3.645-.582-7.291-1.216" transform="translate(-232.624 -32.153)" fill="none" stroke="#9ac7f7" stroke-width="4.273"/>
          <path id="Caminho_6954" data-name="Caminho 6954" d="M403.17,63.311c-2.083-.239-4.226-.492-6.306-.757" transform="translate(-235.948 -37.19)" fill="none" stroke="#9ac7f7" stroke-width="4.273"/>
          <path id="Caminho_6955" data-name="Caminho 6955" d="M414.389,105.084s-6.377-13.72-.53-21.824,17.423-11.443,17.423-11.443,6.834,16.167-.554,24.2-14.468,7.146-16.339,9.065" transform="translate(-244.585 -42.698)" fill="#c5e1f9"/>
          <path id="Caminho_6956" data-name="Caminho 6956" d="M428.3,71.818s-24.044,31.208-21.774,66.834" transform="translate(-241.602 -42.698)" fill="none" stroke="#9ac7f7" stroke-width="4.273"/>
        </g>
      </g>
      <g id="Grupo_4797" data-name="Grupo 4797" transform="translate(166.807 29.12)">
        <g id="Grupo_4796" data-name="Grupo 4796" clip-path="url(#clip-path-2)">
          <path id="Caminho_6957" data-name="Caminho 6957" d="M449.7,72.346a8.61,8.61,0,0,0,1.862,3.064" transform="translate(-434.168 -72.132)" fill="none" stroke="#9ac7f7" stroke-width="4.273"/>
          <path id="Caminho_6958" data-name="Caminho 6958" d="M443.875,75.256a11.394,11.394,0,0,0,2.767,4.779" transform="translate(-430.704 -73.862)" fill="none" stroke="#9ac7f7" stroke-width="4.273"/>
          <path id="Caminho_6959" data-name="Caminho 6959" d="M437.793,78.775c.7,2.271,1.8,4.849,3.385,6.047" transform="translate(-427.089 -75.954)" fill="none" stroke="#9ac7f7" stroke-width="4.273"/>
          <path id="Caminho_6960" data-name="Caminho 6960" d="M432.309,83.233c.752,2.459,2.053,5.632,4.017,6.974" transform="translate(-423.828 -78.605)" fill="none" stroke="#9ac7f7" stroke-width="4.273"/>
          <path id="Caminho_6961" data-name="Caminho 6961" d="M426.755,87.693c.77,2.554,2.3,6.515,4.708,8.012" transform="translate(-420.526 -81.256)" fill="none" stroke="#9ac7f7" stroke-width="4.273"/>
          <path id="Caminho_6962" data-name="Caminho 6962" d="M421.461,93.141c.8,2.54,2.586,7.112,5.363,8.693" transform="translate(-417.379 -84.495)" fill="none" stroke="#9ac7f7" stroke-width="4.273"/>
          <path id="Caminho_6963" data-name="Caminho 6963" d="M416.276,98.974c.865,2.486,2.985,7.663,6.119,9.3" transform="translate(-414.296 -87.963)" fill="none" stroke="#9ac7f7" stroke-width="4.273"/>
          <path id="Caminho_6964" data-name="Caminho 6964" d="M412.013,107.513c1.087,2.7,3.306,7.26,6.357,8.728" transform="translate(-411.761 -93.04)" fill="none" stroke="#9ac7f7" stroke-width="4.273"/>
          <path id="Caminho_6965" data-name="Caminho 6965" d="M409.823,119.735c1.4,2.66,3.49,5.786,6,6.9" transform="translate(-410.459 -100.306)" fill="none" stroke="#9ac7f7" stroke-width="4.273"/>
          <path id="Caminho_6966" data-name="Caminho 6966" d="M410.4,134.029a12.407,12.407,0,0,0,4.688,4.111" transform="translate(-410.805 -108.804)" fill="none" stroke="#9ac7f7" stroke-width="4.273"/>
          <path id="Caminho_6967" data-name="Caminho 6967" d="M458.882,76.891a21.286,21.286,0,0,0-3.849,1.095" transform="translate(-437.338 -74.834)" fill="none" stroke="#9ac7f7" stroke-width="4.273"/>
          <path id="Caminho_6968" data-name="Caminho 6968" d="M456.66,83.431a16.809,16.809,0,0,0-6.524,1.3" transform="translate(-434.427 -78.722)" fill="none" stroke="#9ac7f7" stroke-width="4.273"/>
          <path id="Caminho_6969" data-name="Caminho 6969" d="M454.784,90.959c-2.519-.41-6.029-.554-8.961.915" transform="translate(-431.863 -83.032)" fill="none" stroke="#9ac7f7" stroke-width="4.273"/>
          <path id="Caminho_6970" data-name="Caminho 6970" d="M453.117,98.714c-2.486-.916-7.247-2.153-11.079-.063" transform="translate(-429.612 -87.091)" fill="none" stroke="#9ac7f7" stroke-width="4.273"/>
          <path id="Caminho_6971" data-name="Caminho 6971" d="M451.456,107.187s-7.605-4.858-13.271-1.537" transform="translate(-427.322 -91.242)" fill="none" stroke="#9ac7f7" stroke-width="4.273"/>
          <path id="Caminho_6972" data-name="Caminho 6972" d="M448.232,115.045s-7.8-5.869-13.685-2.2" transform="translate(-425.159 -95.493)" fill="none" stroke="#9ac7f7" stroke-width="4.273"/>
          <path id="Caminho_6973" data-name="Caminho 6973" d="M445.114,122.947s-7.924-6.838-14.026-2.817" transform="translate(-423.102 -99.788)" fill="none" stroke="#9ac7f7" stroke-width="4.273"/>
          <path id="Caminho_6974" data-name="Caminho 6974" d="M440.644,129.283c-2.618-2.061-8.065-5.424-12.669-2.24" transform="translate(-421.251 -103.872)" fill="none" stroke="#9ac7f7" stroke-width="4.273"/>
          <path id="Caminho_6975" data-name="Caminho 6975" d="M436.469,136.3c-2.9-2.212-7.692-4.75-11.886-1.725" transform="translate(-419.235 -108.304)" fill="none" stroke="#9ac7f7" stroke-width="4.273"/>
          <path id="Caminho_6976" data-name="Caminho 6976" d="M431.908,142.436c-2.863-1.958-6.695-3.371-10.221-.727" transform="translate(-417.513 -112.508)" fill="none" stroke="#9ac7f7" stroke-width="4.273"/>
        </g>
      </g>
      <g id="Grupo_4799" data-name="Grupo 4799">
        <g id="Grupo_4798" data-name="Grupo 4798" clip-path="url(#clip-path)">
          <path id="Caminho_6978" data-name="Caminho 6978" d="M394.862,250.306H378.916l-2.657-16.446H397.52Z" transform="translate(-223.698 -139.037)" fill="#c5e1f9"/>
          <path id="Caminho_6979" data-name="Caminho 6979" d="M389.375,250.306h-6.29l-3.054-16.446h7.876Z" transform="translate(-225.941 -139.037)" fill="#9ac7f7"/>
          <line id="Linha_135" data-name="Linha 135" x2="15.948" transform="translate(153.838 98.312)" fill="none" stroke="#69aeeb" stroke-width="4.273"/>
          <path id="Caminho_6980" data-name="Caminho 6980" d="M43.066,129.78s-1.521-12.55-11.219-12.55c-10.27,0-16.547-.439-22.058.381-4.76.707-11.22,4.943-9.508,16.733,2.471,17.021,9.888,46.4,9.888,46.4H53.717L44.4,136.627Z" transform="translate(0 -69.627)" fill="#044bd9"/>
          <path id="Caminho_6981" data-name="Caminho 6981" d="M52.563,129.78s-1.36-12.55-10.027-12.55c-9.18,0-14.789-.439-19.715.381-4.254.707-10.028,4.943-8.5,16.733,2.209,17.021,8.839,46.4,8.839,46.4H62.082l-8.329-44.115Z" transform="translate(-8.365 -69.627)" fill="#0792f0"/>
          <path id="Caminho_6982" data-name="Caminho 6982" d="M52.563,129.78s-1.36-12.55-10.027-12.55c-9.18,0-14.789-.439-19.715.381-4.254.707-10.028,4.943-8.5,16.733,2.209,17.021,8.839,46.4,8.839,46.4H62.082l-8.329-44.115Z" transform="translate(-8.365 -69.627)" fill="none" stroke="#044bd9" stroke-width="1"/>
          <path id="Caminho_6983" data-name="Caminho 6983" d="M209.872,80.551l-1.124-6.557-4.637-1.874a3.3,3.3,0,0,0,1.077,2.436l1.124.936,1.124,3.933Z" transform="translate(-121.35 -42.878)" fill="#e9ab86"/>
          <path id="Caminho_6984" data-name="Caminho 6984" d="M84.115,98.918a46.357,46.357,0,0,0-17.049,5.058c-9.18,4.684-7.307,5.058-9.366,8.618s-6.183,22.858-6.183,22.858L68,136.763l-6.557,28.291,45.9,2.249.75-27.916s9.181-10.305,11.429-9.743,1.874-27.915-17.611-28.667-17.8-2.059-17.8-2.059" transform="translate(-30.628 -58.81)" fill="#044bd9"/>
          <path id="Caminho_6985" data-name="Caminho 6985" d="M84.115,98.918a46.357,46.357,0,0,0-17.049,5.058c-9.18,4.684-7.307,5.058-9.366,8.618s-6.183,22.858-6.183,22.858L68,136.763l-6.557,28.291,45.9,2.249.75-27.916s9.181-10.305,11.429-9.743,1.874-27.915-17.611-28.667S84.115,98.918,84.115,98.918Z" transform="translate(-30.628 -58.81)" fill="none" stroke="#044bd9" stroke-width="1"/>
          <path id="Caminho_6986" data-name="Caminho 6986" d="M197.377,83.326l-6.487,7.043-9.449-17,8.3-4.611Z" transform="translate(-107.872 -40.876)" fill="#002740"/>
          <path id="Caminho_6987" data-name="Caminho 6987" d="M195.447,172.782s9.65,27.822,22.763,32.881-7.494-41.124-11.615-43.373-11.148,10.492-11.148,10.492" transform="translate(-116.199 -96.329)" fill="#ec9568"/>
          <path id="Caminho_6988" data-name="Caminho 6988" d="M65.667,189.184s-2.2,16.066-5.2,23.747-3.829,11.282-7.729,7.869c-3.372-2.951-5.386-10.867-5.386-13.677S50.21,188.9,50.21,188.9Z" transform="translate(-28.153 -112.309)" fill="#f7b68b"/>
          <path id="Caminho_6989" data-name="Caminho 6989" d="M64.688,231.925s39.533,10.117,43.466,9.555,12.74-3.933,12.74-3.933,6.745,5.808,7.869,6.934-2.248,3.372-4.871,3.933-58.829,0-58.829,0-10.867,0-6.37-8.806,5.995-7.683,5.995-7.683" transform="translate(-34.247 -137.859)" fill="#f7b68b"/>
          <path id="Caminho_6990" data-name="Caminho 6990" d="M148.084,34.432a85.525,85.525,0,0,1,.749-9.555c.562-2.81,3.185-4.122,7.12-5.433s3.372-.937,2.435-1.686,2.435-1.5,6.558.187,10.678,6,6,12.928-22.3,10.867-22.858,3.559" transform="translate(-88.04 -10.063)" fill="#002740"/>
          <path id="Caminho_6991" data-name="Caminho 6991" d="M127.522,58.991a7.65,7.65,0,0,0,5.152-2.529c2.061-2.436,3.56-5.433,3-7.495s-1.686-8.993.937-7.494,1.874,1.311,2.436,2.623.749.375,1.311-1.124,2.436-4.122,3.933-4.5,1.5-5.433.562-6.557,4.122,1.124,7.682,1.686,5.059.375,6.557,3.56,1.311,6.558.375,9.93-5.059,10.679-5.62,12.365-.187,2.061-3.185,2.061-1.686.188-1.5,2.436.937,10.492-6.37,10.867-13.766-2.341-15.266-15.832" transform="translate(-75.816 -18.792)" fill="#f7b68b"/>
          <path id="Caminho_6992" data-name="Caminho 6992" d="M191.058,89.664c0,1.874,17.931,60.05,23.982,68.854,3.091,4.5,7.775-4.872,8.15-11.241s-20.328-46.183-20.328-46.183L205.3,92.85s1.5-.187-1.874-4.684-4.309-4.5-4.309-4.5L196.3,84.981l-1.686,3s2.1,4.861,3.372,4.5c1.311-.374-.563-1.686.937-2.061a3.164,3.164,0,0,1,2.623.562l-3.56,6.369s-1.686,1.5-3-.937-3.935-8.245-3.935-6.745" transform="translate(-113.59 -49.744)" fill="#f7b68b"/>
          <path id="Caminho_6993" data-name="Caminho 6993" d="M198.951,94.4c1.311-.374-.562-1.686.937-2.061a3.167,3.167,0,0,1,2.623.562l-3.56,6.37s-1.687,1.5-3-.936-3.278-7.681-3.278-6.183c0,.8,2.595,11.217,6.833,24.23.041-3.963-.126-8.973-.744-10.928-1.124-3.56.562-2.81,1.873-3.933s4.309-8.244,4.309-8.244l-2.811-2.435a11.97,11.97,0,0,1-2.623-.375c-1.5-.374-2.248-3.56-2.248-3.56l-1.686,3s2.1,4.859,3.373,4.495" transform="translate(-114.551 -51.668)" fill="#ec9568"/>
          <path id="Caminho_6994" data-name="Caminho 6994" d="M303.819,171.845H264.2a2.8,2.8,0,0,0-2.416,1.771L248.41,210.358h43.161l13.374-36.742a1.2,1.2,0,0,0-1.126-1.771" transform="translate(-147.687 -102.167)" fill="#044bd9"/>
          <path id="Caminho_6995" data-name="Caminho 6995" d="M163.564,266.294v1.088a1.741,1.741,0,0,0,1.74,1.741H239.72a1.741,1.741,0,0,0,1.741-1.741v-1.088Z" transform="translate(-97.244 -158.32)" fill="#031f4c"/>
          <path id="Caminho_6996" data-name="Caminho 6996" d="M197.943,267.382v-1.088H163.564v1.088a1.741,1.741,0,0,0,1.74,1.741h30.9a1.741,1.741,0,0,0,1.742-1.74Z" transform="translate(-97.244 -158.32)" fill="#021f59"/>
          <path id="Caminho_6997" data-name="Caminho 6997" d="M147.211,80.894s1.874,4.872,3.372,6.37,7.5,3,9.555,3.56-.562-.562-5.433.937-11.242,4.684-11.242,2.436.094-6.37.843-7.869,2.905-5.433,2.905-5.433" transform="translate(-85.293 -48.094)" fill="#ec9568"/>
          <path id="Caminho_6998" data-name="Caminho 6998" d="M284.75,93.767V89.451l-3.852-.319a11.691,11.691,0,0,0-1.521-3.919l2.558-3.027-3.053-3.052-2.938,2.486a11.5,11.5,0,0,0-3.841-1.6l-.33-3.86h-4.315l-.319,3.741a11.616,11.616,0,0,0-3.918,1.466l-3.028-2.586-3.052,3.041,2.486,2.932a11.6,11.6,0,0,0-1.659,3.838l-3.915.327v4.315l3.8.319a11.624,11.624,0,0,0,1.494,3.918l-2.572,3.028,3.046,3.051,2.935-2.485a11.824,11.824,0,0,0,3.84,1.77l.328,4.025h4.316l.32-3.907a11.739,11.739,0,0,0,3.918-1.548l3.029,2.544,3.05-3.06-2.485-2.942A11.748,11.748,0,0,0,280.78,94.1Zm-15.405,2.359a4.785,4.785,0,1,1,4.785-4.785,4.785,4.785,0,0,1-4.785,4.785" transform="translate(-151.041 -45.276)" fill="#c5e1f9"/>
          <path id="Caminho_6999" data-name="Caminho 6999" d="M297.724,99.793a5.954,5.954,0,0,0-5.953-5.953h0V90.374h0a9.419,9.419,0,0,1,9.419,9.418Z" transform="translate(-173.466 -53.73)" fill="#9ac7f7"/>
          <path id="Caminho_7000" data-name="Caminho 7000" d="M235.4,50.6a15.006,15.006,0,1,1,15-15.007h0a15.023,15.023,0,0,1-15,15.006m0-27.984a12.978,12.978,0,1,0,12.979,12.977A12.892,12.892,0,0,0,235.4,22.616" transform="translate(-131.029 -12.241)" fill="#9ac7f7"/>
          <path id="Caminho_7001" data-name="Caminho 7001" d="M244.043,50.6c-5.107,0-9.108-6.591-9.108-15.005s4-15,9.108-15,9.1,6.591,9.1,15-4,15.005-9.1,15.005m0-27.983c-3.838,0-7.08,5.943-7.08,12.977s3.242,12.978,7.08,12.978,7.077-5.943,7.077-12.978-3.241-12.977-7.077-12.977" transform="translate(-139.676 -12.241)" fill="#9ac7f7"/>
          <path id="Caminho_7002" data-name="Caminho 7002" d="M255.911,50.6H254.9V20.589h1.014a15.005,15.005,0,1,1,0,30.01m1.014-27.944V48.533a12.978,12.978,0,0,0,0-25.877" transform="translate(-151.544 -12.241)" fill="#9ac7f7"/>
          <path id="Caminho_7003" data-name="Caminho 7003" d="M249.173,54.82H221.614l-.248-.654a14.927,14.927,0,0,1-.977-5.289v0a14.943,14.943,0,0,1,.977-5.291l.248-.654h27.559l.249.651a14.8,14.8,0,0,1,0,10.589Zm-26.141-2.027h24.726a12.757,12.757,0,0,0,0-7.837H223.033a12.765,12.765,0,0,0,0,7.837" transform="translate(-131.028 -25.522)" fill="#9ac7f7"/>
        </g>
      </g>
    </g>
    <g id="Grupo_4801" data-name="Grupo 4801" transform="translate(639.571 1055.312)">
      <path id="Caminho_7004" data-name="Caminho 7004" d="M.595,2.759s.99.368.841-1.385C1.3-.2.595.01.595.01S-.093,0,.011,1.384.595,2.759.595,2.759Z" transform="translate(10.848 5.562) rotate(11)" fill="#112545"/>
      <path id="Caminho_7005" data-name="Caminho 7005" d="M.6,2.759s.991.368.84-1.385C1.3-.2.6.01.6.01S-.093,0,.011,1.384.6,2.759.6,2.759Z" transform="translate(0.993 3.646) rotate(11)" fill="#112545"/>
      <path id="Caminho_7006" data-name="Caminho 7006" d="M.162,8.719c.5-.075,1.653.224,1.889-.317.2-.451-.611-3.115-.725-3.572A45.19,45.19,0,0,1,.171.094.094.094,0,0,1,.346.046C1.508,2.67,1.94,5.915,2.644,8.7a.249.249,0,0,1-.238.312C1.67,9,.955,9.157.221,9.161-.024,9.163-.1,8.758.162,8.719Z" transform="translate(7.102 3.52) rotate(11)" fill="#e0855c"/>
      <path id="Caminho_7007" data-name="Caminho 7007" d="M6.366,0A10.747,10.747,0,0,1,0,.035,5.3,5.3,0,0,0,3.605,2.383C5.882,2.586,6.366,0,6.366,0Z" transform="translate(1.839 13.913) rotate(11)" fill="#fff"/>
      <path id="Caminho_7008" data-name="Caminho 7008" d="M.145.264C.827-.083,2.1-.175,2.6.534a.212.212,0,0,1-.182.317C2.078.833,1.778.669,1.439.64A2.762,2.762,0,0,0,.372.8.3.3,0,0,1,.145.264Z" transform="translate(10.643 2.087) rotate(11)" fill="#112545"/>
      <path id="Caminho_7009" data-name="Caminho 7009" d="M.015.837C.4-.131,2.095-.224,2.815.376A.273.273,0,0,1,2.7.829a6.25,6.25,0,0,1-1.3.012,4.284,4.284,0,0,0-1.045.328A.272.272,0,0,1,.015.837Z" transform="translate(0.225 0) rotate(11)" fill="#112545"/>
    </g>
  </g>
</svg>
