<svg id="Grupo_4804" data-name="Grupo 4804" xmlns="http://www.w3.org/2000/svg" xmlns:xlink="http://www.w3.org/1999/xlink" width="161.529" height="148.357" viewBox="0 0 161.529 148.357">
  <defs>
    <clipPath id="clip-path">
      <rect id="Retângulo_2062" data-name="Retângulo 2062" width="161.529" height="148.357" fill="none"/>
    </clipPath>
  </defs>
  <g id="Grupo_4803" data-name="Grupo 4803" clip-path="url(#clip-path)">
    <path id="Caminho_7010" data-name="Caminho 7010" d="M35.373,263.376h29.58a2.529,2.529,0,0,1,2.529,2.529v66.2a2.529,2.529,0,0,1-2.529,2.529H35.373a2.529,2.529,0,0,1-2.529-2.529V265.9a2.529,2.529,0,0,1,2.529-2.529" transform="translate(-23.437 -187.943)" fill="#f2f5f7"/>
    <path id="Caminho_7011" data-name="Caminho 7011" d="M62.769,187.43l6.857-32.924a1.494,1.494,0,0,1,2.918-.034L80.22,187.43Z" transform="translate(-44.791 -109.405)" fill="#fff2d6"/>
    <path id="Caminho_7012" data-name="Caminho 7012" d="M50.516,284.186h2a.356.356,0,0,1,.356.356v3.64a.356.356,0,0,1-.356.356h-2a.356.356,0,0,1-.356-.356v-3.64a.356.356,0,0,1,.356-.356" transform="translate(-35.794 -202.793)" fill="#fff"/>
    <path id="Caminho_7013" data-name="Caminho 7013" d="M71.51,284.186h2a.356.356,0,0,1,.356.356v3.64a.356.356,0,0,1-.356.356h-2a.356.356,0,0,1-.356-.356v-3.64a.356.356,0,0,1,.356-.356" transform="translate(-50.775 -202.793)" fill="#fff"/>
    <path id="Caminho_7014" data-name="Caminho 7014" d="M80.982,242.334h2a.356.356,0,0,1,.356.356v3.64a.356.356,0,0,1-.356.356h-2a.356.356,0,0,1-.356-.356v-3.64a.356.356,0,0,1,.356-.356" transform="translate(-57.534 -172.928)" fill="#fff"/>
    <path id="Caminho_7015" data-name="Caminho 7015" d="M93.59,200.174h2a.356.356,0,0,1,.356.356v3.64a.356.356,0,0,1-.356.356h-2a.356.356,0,0,1-.356-.356v-3.64a.356.356,0,0,1,.356-.356" transform="translate(-66.531 -142.843)" fill="#fff"/>
    <path id="Caminho_7016" data-name="Caminho 7016" d="M93.59,399.8h2a.356.356,0,0,1,.356.356v3.64a.356.356,0,0,1-.356.356h-2a.356.356,0,0,1-.356-.356v-3.64a.356.356,0,0,1,.356-.356" transform="translate(-66.531 -285.297)" fill="#fff"/>
    <path id="Caminho_7017" data-name="Caminho 7017" d="M41.62,476.5h2a.356.356,0,0,1,.356.356v3.64a.356.356,0,0,1-.356.356h-2a.356.356,0,0,1-.356-.356v-3.64a.356.356,0,0,1,.356-.356" transform="translate(-29.446 -340.026)" fill="#fff"/>
    <path id="Caminho_7018" data-name="Caminho 7018" d="M108.051,463.612h2a.356.356,0,0,1,.356.356v3.64a.356.356,0,0,1-.356.356h-2a.356.356,0,0,1-.356-.356v-3.64a.356.356,0,0,1,.356-.356" transform="translate(-76.85 -330.83)" fill="#fff"/>
    <path id="Caminho_7019" data-name="Caminho 7019" d="M136.248,476.5h2a.356.356,0,0,1,.356.356v3.64a.356.356,0,0,1-.356.356h-2a.356.356,0,0,1-.356-.356v-3.64a.356.356,0,0,1,.356-.356" transform="translate(-96.971 -340.026)" fill="#fff"/>
    <path id="Caminho_7020" data-name="Caminho 7020" d="M504.882,250.154v66.77a.951.951,0,0,0,.951.951h15.026a.951.951,0,0,0,.951-.951V239.4a.951.951,0,0,0-1.5-.773l-15.026,10.756a.951.951,0,0,0-.4.773" transform="translate(-360.28 -170.154)" fill="#f2f5f7"/>
    <path id="Caminho_7021" data-name="Caminho 7021" d="M551.088,276.888h1.581a.281.281,0,0,1,.281.281v2.874a.281.281,0,0,1-.281.282h-1.581a.281.281,0,0,1-.281-.281h0v-2.874a.281.281,0,0,1,.281-.281" transform="translate(-393.052 -197.585)" fill="#fff"/>
    <path id="Caminho_7022" data-name="Caminho 7022" d="M530.978,492.877h1.58a.281.281,0,0,1,.281.281v2.874a.281.281,0,0,1-.281.281h-1.58a.281.281,0,0,1-.281-.281v-2.874a.281.281,0,0,1,.281-.281" transform="translate(-378.701 -351.713)" fill="#fff"/>
    <path id="Caminho_7023" data-name="Caminho 7023" d="M512.452,278.711h1.581a.281.281,0,0,1,.281.281v2.874a.281.281,0,0,1-.28.282h-1.582a.281.281,0,0,1-.281-.281h0v-2.874a.281.281,0,0,1,.281-.281" transform="translate(-365.481 -198.886)" fill="#fff"/>
    <path id="Caminho_7024" data-name="Caminho 7024" d="M534.717,292.561h1.58a.281.281,0,0,1,.281.281v2.874a.281.281,0,0,1-.281.282h-1.581a.281.281,0,0,1-.281-.281h0v-2.874a.281.281,0,0,1,.281-.281" transform="translate(-381.369 -208.769)" fill="#fff"/>
    <path id="Caminho_7025" data-name="Caminho 7025" d="M512.452,387.359h1.581a.281.281,0,0,1,.281.281v2.874a.281.281,0,0,1-.281.282h-1.581a.281.281,0,0,1-.281-.281h0V387.64a.281.281,0,0,1,.281-.281" transform="translate(-365.481 -276.416)" fill="#fff"/>
    <path id="Caminho_7026" data-name="Caminho 7026" d="M549.266,387.359h1.581a.281.281,0,0,1,.281.281v2.874a.281.281,0,0,1-.281.282h-1.581a.281.281,0,0,1-.281-.281h0V387.64a.281.281,0,0,1,.281-.281" transform="translate(-391.751 -276.416)" fill="#fff"/>
    <path id="Caminho_7027" data-name="Caminho 7027" d="M549.266,455.519h1.581a.281.281,0,0,1,.281.281v2.874a.281.281,0,0,1-.281.282h-1.581a.281.281,0,0,1-.281-.281h0V455.8a.281.281,0,0,1,.281-.281" transform="translate(-391.751 -325.055)" fill="#fff"/>
    <path id="Caminho_7028" data-name="Caminho 7028" d="M538.457,371.107h1.58a.281.281,0,0,1,.281.281v2.874a.281.281,0,0,1-.281.281h-1.58a.281.281,0,0,1-.281-.281v-2.874a.281.281,0,0,1,.281-.281" transform="translate(-384.038 -264.819)" fill="#fff"/>
    <path id="Caminho_7029" data-name="Caminho 7029" d="M523.513,335.023h1.58a.281.281,0,0,1,.281.281v2.874a.281.281,0,0,1-.28.282h-1.582a.281.281,0,0,1-.281-.281h0V335.3a.281.281,0,0,1,.281-.281" transform="translate(-373.374 -239.07)" fill="#fff"/>
    <path id="Caminho_7030" data-name="Caminho 7030" d="M523.513,457.127h1.581a.281.281,0,0,1,.281.281v2.874a.281.281,0,0,1-.281.282h-1.581a.281.281,0,0,1-.281-.281h0v-2.874a.281.281,0,0,1,.281-.281" transform="translate(-373.374 -326.202)" fill="#fff"/>
    <path id="Caminho_7031" data-name="Caminho 7031" d="M151.413,25.521V147.855a1.742,1.742,0,0,0,1.741,1.742h27.531a1.742,1.742,0,0,0,1.742-1.742h0V5.813A1.742,1.742,0,0,0,179.671,4.4L152.141,24.1a1.741,1.741,0,0,0-.728,1.416" transform="translate(-108.047 -2.905)" fill="#f2f5f7"/>
    <path id="Caminho_7032" data-name="Caminho 7032" d="M236.066,74.5h2.895a.515.515,0,0,1,.515.515v5.266a.515.515,0,0,1-.515.515h-2.895a.515.515,0,0,1-.515-.515V75.016a.515.515,0,0,1,.515-.515" transform="translate(-168.087 -53.163)" fill="#fff"/>
    <path id="Caminho_7033" data-name="Caminho 7033" d="M199.22,470.231h2.895a.515.515,0,0,1,.515.515v5.266a.515.515,0,0,1-.515.515H199.22a.515.515,0,0,1-.515-.515v-5.266a.515.515,0,0,1,.515-.515" transform="translate(-141.794 -335.553)" fill="#fff"/>
    <path id="Caminho_7034" data-name="Caminho 7034" d="M165.278,77.84h2.895a.515.515,0,0,1,.515.515v5.266a.515.515,0,0,1-.515.515h-2.895a.515.515,0,0,1-.515-.515V78.355a.515.515,0,0,1,.515-.515" transform="translate(-117.574 -55.546)" fill="#fff"/>
    <path id="Caminho_7035" data-name="Caminho 7035" d="M206.071,103.217h2.895a.515.515,0,0,1,.515.515V109a.515.515,0,0,1-.515.515h-2.895a.515.515,0,0,1-.515-.515v-5.266a.515.515,0,0,1,.515-.515" transform="translate(-146.683 -73.655)" fill="#fff"/>
    <path id="Caminho_7036" data-name="Caminho 7036" d="M165.278,276.9h2.895a.515.515,0,0,1,.515.515v5.266a.515.515,0,0,1-.515.515h-2.895a.515.515,0,0,1-.515-.515v-5.266a.515.515,0,0,1,.515-.515" transform="translate(-117.574 -197.597)" fill="#fff"/>
    <path id="Caminho_7037" data-name="Caminho 7037" d="M232.727,276.9h2.895a.515.515,0,0,1,.515.515v5.266a.515.515,0,0,1-.515.515h-2.895a.515.515,0,0,1-.515-.515v-5.266a.515.515,0,0,1,.515-.515" transform="translate(-165.705 -197.597)" fill="#fff"/>
    <path id="Caminho_7038" data-name="Caminho 7038" d="M232.727,401.785h2.895a.515.515,0,0,1,.515.515v5.266a.515.515,0,0,1-.515.515h-2.895a.515.515,0,0,1-.515-.515V402.3a.515.515,0,0,1,.515-.515" transform="translate(-165.705 -286.711)" fill="#fff"/>
    <path id="Caminho_7039" data-name="Caminho 7039" d="M212.923,247.128h2.895a.515.515,0,0,1,.515.515v5.266a.515.515,0,0,1-.515.515h-2.895a.515.515,0,0,1-.515-.515v-5.266a.515.515,0,0,1,.515-.515" transform="translate(-151.573 -176.349)" fill="#fff"/>
    <path id="Caminho_7040" data-name="Caminho 7040" d="M185.543,181.014h2.895a.515.515,0,0,1,.515.515v5.266a.515.515,0,0,1-.515.515h-2.895a.515.515,0,0,1-.515-.515v-5.266a.515.515,0,0,1,.515-.515" transform="translate(-132.035 -129.17)" fill="#fff"/>
    <path id="Caminho_7041" data-name="Caminho 7041" d="M185.543,404.731h2.895a.515.515,0,0,1,.515.515v5.266a.515.515,0,0,1-.515.515h-2.895a.515.515,0,0,1-.515-.515v-5.266a.515.515,0,0,1,.515-.515" transform="translate(-132.035 -288.813)" fill="#fff"/>
    <path id="Caminho_7042" data-name="Caminho 7042" d="M1.013,308.333h9.433a1.013,1.013,0,0,1,1.013,1.013V365.7a1.013,1.013,0,0,1-1.013,1.013H1.013A1.013,1.013,0,0,1,0,365.7V309.346a1.013,1.013,0,0,1,1.013-1.013" transform="translate(0 -220.024)" fill="#f2f5f7"/>
    <path id="Caminho_7043" data-name="Caminho 7043" d="M7.464,317.483H8.712a.222.222,0,0,1,.222.222v2.27a.222.222,0,0,1-.222.222H7.464a.222.222,0,0,1-.222-.222V317.7a.222.222,0,0,1,.222-.222" transform="translate(-5.168 -226.553)" fill="#fff"/>
    <path id="Caminho_7044" data-name="Caminho 7044" d="M26.893,350.728h1.248a.222.222,0,0,1,.222.222v2.27a.222.222,0,0,1-.222.222H26.893a.222.222,0,0,1-.222-.222v-2.27a.222.222,0,0,1,.222-.222" transform="translate(-19.032 -250.277)" fill="#fff"/>
    <path id="Caminho_7045" data-name="Caminho 7045" d="M7.464,357.217H8.712a.222.222,0,0,1,.222.222v2.27a.222.222,0,0,1-.222.222H7.464a.222.222,0,0,1-.222-.222v-2.27a.222.222,0,0,1,.222-.222" transform="translate(-5.168 -254.907)" fill="#fff"/>
    <path id="Caminho_7046" data-name="Caminho 7046" d="M26.893,466.59h1.248a.222.222,0,0,1,.222.222v2.27a.222.222,0,0,1-.222.222H26.893a.222.222,0,0,1-.222-.222v-2.27a.222.222,0,0,1,.222-.222" transform="translate(-19.032 -332.955)" fill="#fff"/>
    <path id="Caminho_7047" data-name="Caminho 7047" d="M10.417,423.688h1.248a.222.222,0,0,1,.222.222v2.27a.222.222,0,0,1-.222.222H10.417a.222.222,0,0,1-.222-.222v-2.27a.222.222,0,0,1,.222-.222" transform="translate(-7.275 -302.341)" fill="#fff"/>
    <path id="Caminho_7048" data-name="Caminho 7048" d="M409.32,0h23.87a2.563,2.563,0,0,1,2.563,2.563V145.158a2.563,2.563,0,0,1-2.563,2.563H409.32a2.563,2.563,0,0,1-2.563-2.563V2.563A2.563,2.563,0,0,1,409.32,0" transform="translate(-290.259)" fill="#dbe9f2"/>
    <path id="Caminho_7049" data-name="Caminho 7049" d="M425.642,23.151H428.8a.562.562,0,0,1,.562.562v5.743a.562.562,0,0,1-.562.562h-3.157a.562.562,0,0,1-.562-.562V23.713a.562.562,0,0,1,.562-.562" transform="translate(-303.334 -16.52)" fill="#fff"/>
    <path id="Caminho_7050" data-name="Caminho 7050" d="M474.8,107.269h3.157a.562.562,0,0,1,.562.562v5.743a.562.562,0,0,1-.562.562H474.8a.562.562,0,0,1-.562-.562v-5.743a.562.562,0,0,1,.562-.562" transform="translate(-338.414 -76.546)" fill="#fff"/>
    <path id="Caminho_7051" data-name="Caminho 7051" d="M425.642,123.688H428.8a.562.562,0,0,1,.562.562v5.743a.562.562,0,0,1-.562.562h-3.157a.562.562,0,0,1-.562-.562V124.25a.562.562,0,0,1,.562-.562" transform="translate(-303.334 -88.263)" fill="#fff"/>
    <path id="Caminho_7052" data-name="Caminho 7052" d="M474.8,400.426h3.157a.562.562,0,0,1,.562.562v5.743a.562.562,0,0,1-.562.562H474.8a.562.562,0,0,1-.562-.562v-5.743a.562.562,0,0,1,.562-.562" transform="translate(-338.414 -285.741)" fill="#fff"/>
    <path id="Caminho_7053" data-name="Caminho 7053" d="M433.115,291.874h3.157a.562.562,0,0,1,.562.562v5.743a.562.562,0,0,1-.562.562h-3.157a.562.562,0,0,1-.562-.562v-5.743a.562.562,0,0,1,.562-.562" transform="translate(-308.667 -208.279)" fill="#fff"/>
    <path id="Caminho_7054" data-name="Caminho 7054" d="M263.15,176.311h40.358a3.451,3.451,0,0,1,3.451,3.451v90.322a3.451,3.451,0,0,1-3.451,3.451H263.15a3.451,3.451,0,0,1-3.451-3.451V179.762a3.451,3.451,0,0,1,3.451-3.451" transform="translate(-185.319 -125.814)" fill="#dbe9f2"/>
    <path id="Caminho_7055" data-name="Caminho 7055" d="M283.811,204.7h2.73a.486.486,0,0,1,.486.486v4.966a.486.486,0,0,1-.486.486h-2.73a.486.486,0,0,1-.486-.486V205.19a.486.486,0,0,1,.486-.486" transform="translate(-202.179 -146.075)" fill="#fff"/>
    <path id="Caminho_7056" data-name="Caminho 7056" d="M312.455,204.7h2.73a.486.486,0,0,1,.486.486v4.966a.486.486,0,0,1-.486.486h-2.73a.486.486,0,0,1-.486-.486V205.19a.486.486,0,0,1,.486-.486" transform="translate(-222.619 -146.075)" fill="#fff"/>
    <path id="Caminho_7057" data-name="Caminho 7057" d="M342.58,362.451h2.73a.486.486,0,0,1,.486.486V367.9a.486.486,0,0,1-.486.486h-2.73a.486.486,0,0,1-.486-.486v-4.966a.486.486,0,0,1,.486-.486" transform="translate(-244.116 -258.642)" fill="#fff"/>
    <path id="Caminho_7058" data-name="Caminho 7058" d="M271.673,467.092h2.73a.486.486,0,0,1,.486.486v4.966a.486.486,0,0,1-.486.486h-2.73a.486.486,0,0,1-.486-.486v-4.966a.486.486,0,0,1,.486-.486" transform="translate(-193.517 -333.313)" fill="#fff"/>
    <path id="Caminho_7059" data-name="Caminho 7059" d="M362.31,449.51h2.73a.486.486,0,0,1,.486.486v4.966a.486.486,0,0,1-.486.486h-2.73a.486.486,0,0,1-.486-.486V450a.486.486,0,0,1,.486-.486" transform="translate(-258.195 -320.767)" fill="#fff"/>
    <path id="Caminho_7060" data-name="Caminho 7060" d="M400.781,467.092h2.73a.486.486,0,0,1,.486.486v4.966a.486.486,0,0,1-.486.486h-2.73a.486.486,0,0,1-.486-.486v-4.966a.486.486,0,0,1,.486-.486" transform="translate(-285.648 -333.313)" fill="#fff"/>
    <path id="Caminho_7061" data-name="Caminho 7061" d="M431.91,87.047c-1.981-2.479-5.853-7.53-9.117-3.881-2.327,2.6-.934,8.469,1.952,10.028a19.237,19.237,0,0,1,2.687,1.341,15.269,15.269,0,0,1,2.317,2.957c2.721,3.426,8.019,3.559,12.075,1.924a1.892,1.892,0,0,0,.668-.388,1.863,1.863,0,0,0,.422-1.161,9.208,9.208,0,0,0-8.544-9.681,3.384,3.384,0,0,1-1.559-.246,2.839,2.839,0,0,1-.8-.763c-.032-.039-.065-.081-.1-.129" transform="translate(-300.866 -58.432)" fill="#231f20"/>
    <path id="Caminho_7062" data-name="Caminho 7062" d="M341.826,401.506h13.933c.009-.469.019-1,.019-1.535,0-.611,0-1.232-.014-1.772l7.478-42.253-12.25,1.033-3.521,38.371c-.009.033-2.6,2.1-4.27,3.431a3.717,3.717,0,0,0-1.375,2.725Z" transform="translate(-243.924 -254)" fill="#fdc5b6"/>
    <path id="Caminho_7063" data-name="Caminho 7063" d="M338.847,509.448h14.88c.009-.687.019-1.455.019-2.237H341.139a2.3,2.3,0,0,0-2.294,2.213Z" transform="translate(-241.797 -361.942)" fill="#044bd9"/>
    <path id="Caminho_7064" data-name="Caminho 7064" d="M458.989,402.5H445.345c-.009-.469-.014-1-.019-1.535,0-.612,0-1.232.014-1.772l-.877-41.854,13.4,1.033-4.516,37.978c.009.033,2.6,2.1,4.27,3.431a3.718,3.718,0,0,1,1.375,2.721Z" transform="translate(-317.166 -254.991)" fill="#fdc5b6"/>
    <path id="Caminho_7065" data-name="Caminho 7065" d="M461.754,509.448H447.163c-.009-.687-.019-1.455-.019-2.237H459.46a2.3,2.3,0,0,1,2.294,2.213Z" transform="translate(-319.079 -361.942)" fill="#044bd9"/>
    <path id="Caminho_7066" data-name="Caminho 7066" d="M396.409,233.081a2.913,2.913,0,0,1-.578,1.924c-.777.844-2.119.621-3.26.621-2.882,0-5.421,1.8-8.189,2.6-7.4,2.148-15.084-2.943-22.766-2.36-1.924.147-3.848.649-5.757.384-2.265-.317-4.237-1.668-6.108-2.986a3.822,3.822,0,0,1-1.981-4.971q2.744-13.158,5.445-26.325c1.275-6.166,2.151-12.3,3.9-18.335a27.462,27.462,0,0,1,1.962-5.346c2.568-4.8,7.265-6.947,12.582-6.853a21.631,21.631,0,0,1,5.118.659,14.813,14.813,0,0,1,2.227.787,17.7,17.7,0,0,1,8.435,8.895c.038.076.076.156.109.232a41.846,41.846,0,0,1,2.995,12.373c1.114,9.246,1.27,18.671,3.673,27.671.965,3.644,2.306,7.274,2.192,11.032" transform="translate(-248 -122.331)" fill="#044bd9"/>
    <path id="Caminho_7067" data-name="Caminho 7067" d="M417.77,180.4a50.368,50.368,0,0,1-9.355.905c-.8,0-1.6-.024-2.393-.08a33.445,33.445,0,0,1-12.5-3.218c-4.568-2.242-1.929-4.439,2.184-5.772a25.829,25.829,0,0,1,8.326-.995c.791.009,1.583.038,2.369.086a15.717,15.717,0,0,1,2.313.668,17.8,17.8,0,0,1,9.051,8.406" transform="translate(-279.103 -122.193)" fill="#f2f5f7"/>
    <path id="Caminho_7068" data-name="Caminho 7068" d="M417.751,129.311c-.019,1-.047,2-.081,2.995-.071,2.374-.682,3.45-1.687,3.952-1.218.607-3.019.365-5.151.592a40.754,40.754,0,0,1-14.435-.782,6.049,6.049,0,0,1-3.734-2.1,6.51,6.51,0,0,1-.7-3.739q.05-3.206.095-6.407c.033-2.208.115-4.568,1.4-6.358a10.009,10.009,0,0,1,4.5-3.038c2.772-1.146,5.317-2.091,8.322-1.27,4.279.133,7.962,1.63,9.876,5.554a19.093,19.093,0,0,1,1.578,7.962c0,.076,0,.147,0,.223.023.794.019,1.605.009,2.415" transform="translate(-279.701 -80.527)" fill="#e9eeff"/>
    <path id="Caminho_7069" data-name="Caminho 7069" d="M432.271,100.625l-.152,3.734a.775.775,0,0,0,.769.782h.009l1.194.033a.794.794,0,0,0,.839-.73l.052-1-.246-2.076,0-.038-.066-1.095,0-.057-.862.161h0l-.1.019Z" transform="translate(-308.357 -71.483)" fill="#fdc5b6"/>
    <path id="Caminho_7070" data-name="Caminho 7070" d="M432.418,102.793l-.066,1.678a2.466,2.466,0,0,0,1.355-1.379,2.185,2.185,0,0,0,.138-.564Z" transform="translate(-308.523 -73.163)" fill="#150077"/>
    <path id="Caminho_7071" data-name="Caminho 7071" d="M429.59,91.381v-.019a5.507,5.507,0,0,1-2.886-3.118,5,5,0,0,0-.831.512c-.029.024-.057.043-.086.066a2.942,2.942,0,0,0-.479.493,3.154,3.154,0,0,0-.54,3.023,2.468,2.468,0,0,0,2.422,1.213,4.222,4.222,0,0,0,1.9-.64,2.228,2.228,0,0,1,.143-.18c.057-.066.115-.137.175-.2.095-.351.123-.891.28-1.047a.667.667,0,0,0-.094-.1" transform="translate(-302.989 -62.97)" fill="#fdc5b6"/>
    <path id="Caminho_7072" data-name="Caminho 7072" d="M438.88,100.515a.953.953,0,0,0,.673.986l-.066-1.095-.607.109Z" transform="translate(-313.179 -71.649)" fill="#150077"/>
    <path id="Caminho_7073" data-name="Caminho 7073" d="M439.37,97.774a1.046,1.046,0,0,1-1.26.668.945.945,0,0,1-.714-1.13c0-.017.008-.033.013-.05a1.045,1.045,0,0,1,1.26-.668.943.943,0,0,1,.715,1.127c0,.018-.008.036-.014.053" transform="translate(-312.106 -68.903)" fill="#fdc5b6"/>
    <path id="Caminho_7074" data-name="Caminho 7074" d="M396.444,154.779a19.128,19.128,0,0,1-6.7,4.071q-.27-2.751-.332-5.516c.172-.436.346-.867.531-1.3.062-.147.128-.289.189-.436.208-.5.417-1.024.64-1.559,1.128-.526,2.265-1.038,3.408-1.526,1.81-.777,4.578-1.54,5.3.659.578,1.734-1.735,4.351-3.033,5.606" transform="translate(-277.88 -105.417)" fill="#f2f5f7"/>
    <path id="Caminho_7075" data-name="Caminho 7075" d="M455.435,122.739a32.016,32.016,0,0,0-4.971-3.526c-1.659-.99-7.421-3.549-8.682-1.55a2.107,2.107,0,0,0-.209,1.464,7.213,7.213,0,0,0,3.494,4.957,9.731,9.731,0,0,1,2.45,1.692,1.434,1.434,0,0,1-.45,2.294,3.2,3.2,0,0,1-1.28.172c-2.26-.043-4.966-2.469-4.6,1.389.5,5.26,7.4,8.473,12.8,8.014a7.03,7.03,0,0,0,2.853-.782,5.394,5.394,0,0,0,1.663-1.5,7.754,7.754,0,0,0,.607-7.71,14.16,14.16,0,0,0-3.679-4.91" transform="translate(-314.806 -83.433)" fill="#e9eeff"/>
    <path id="Caminho_7076" data-name="Caminho 7076" d="M359.918,125.17a8.424,8.424,0,0,0-1.791,3.971c-.678,5.587,6.3,5.858,10.487,4.047a17.116,17.116,0,0,0,7.361-5.814c.682-1,1.109-2.393-.019-3.071-1.919-1.152-2.962.782-4.621.962-2.014.218-1.275-1.536-.2-2.526,1.611-1.489,3.805-2.337,5.331-3.848.882-.787,3.772-1.535,2.943-3.075-.773-1.432-4.568-.223-5.772.137a27.755,27.755,0,0,0-12.872,8.175c-.294.34-.578.687-.843,1.042" transform="translate(-255.524 -82.158)" fill="#e9eeff"/>
    <path id="Caminho_7077" data-name="Caminho 7077" d="M419.839,134.507l4.767-.242a.455.455,0,0,0,.431-.478h0l-.458-9.108a.456.456,0,0,0-.479-.43l-4.767.242a.456.456,0,0,0-.431.479l.46,9.108a.456.456,0,0,0,.477.43" transform="translate(-298.924 -88.663)" fill="#15203d"/>
    <path id="Caminho_7078" data-name="Caminho 7078" d="M427.966,129.074a.294.294,0,1,0,.28-.308.294.294,0,0,0-.28.308" transform="translate(-305.393 -91.886)" fill="#fff"/>
    <path id="Caminho_7079" data-name="Caminho 7079" d="M413.13,137.962a6.279,6.279,0,0,1,1.474-2.678c.745.3-.2,1.564.588,1.787a1.132,1.132,0,0,0,.806-.194l3.512-1.9a1.55,1.55,0,0,1-.625,1.848c.242-.355.487-.716.73-1.071a2.439,2.439,0,0,1-.725,2.559,10.47,10.47,0,0,1-2.606,1.772,1.727,1.727,0,0,1-1,.294,1.418,1.418,0,0,1-.573-.232,5.152,5.152,0,0,1-1.7-1.668Z" transform="translate(-294.723 -96.315)" fill="#fdc5b6"/>
    <path id="Caminho_7080" data-name="Caminho 7080" d="M438.282,132.973a4.753,4.753,0,0,0-.782-.384c-.095,2.341.009,5.7,1.455,7.691.564.777,2.284,1.474,2.587.213.133-.544-.644-.853-.753-1.279a4.848,4.848,0,0,1-.009-1.991c.212-1.706-1.067-3.384-2.5-4.251" transform="translate(-312.179 -94.615)" fill="#fdc5b6"/>
    <rect id="Retângulo_2059" data-name="Retângulo 2059" width="57.247" height="0.327" transform="translate(93.694 147.738)" fill="#bec9ff"/>
    <path id="Caminho_7081" data-name="Caminho 7081" d="M429.129,94.613l-.583-.024.147-1.166.194.009-.123,1,.384.014Z" transform="translate(-305.807 -66.667)" fill="#150077"/>
    <path id="Caminho_7082" data-name="Caminho 7082" d="M426.573,93.917h0a.142.142,0,0,1-.147-.135.08.08,0,0,1,0-.011.169.169,0,0,1,.18-.133.141.141,0,0,1,.147.136v.011a.161.161,0,0,1-.18.133" transform="translate(-304.294 -66.818)" fill="#150077"/>
    <path id="Caminho_7083" data-name="Caminho 7083" d="M433.077,94.562h0a.143.143,0,0,1-.147-.139v-.007a.169.169,0,0,1,.18-.133.143.143,0,0,1,.147.139v.008a.165.165,0,0,1-.18.133" transform="translate(-308.936 -67.279)" fill="#150077"/>
    <path id="Caminho_7084" data-name="Caminho 7084" d="M427.536,98.818l1.294.023-.18.27a.544.544,0,0,1-.981-.047Z" transform="translate(-305.086 -70.516)" fill="#fff"/>
    <path id="Caminho_7085" data-name="Caminho 7085" d="M33.5,127.84c-.014.105-.032.206-.051.312a13.422,13.422,0,0,1-1.862,4.269c-.481.812-.977,1.637-1.5,2.434-2.339,3.563-4.754,3.962-8.672,5.723-1.073.481-2.871,1.853-3.952,1.38-1.523-.665-1.169-4.338-.963-5.535a15.543,15.543,0,0,1,3.274-6.457,19.671,19.671,0,0,1,1.867-2.091,25.453,25.453,0,0,1,7.223-4.778c.284-.06.564-.119.844-.193a3.517,3.517,0,0,1,2.045.536,4.467,4.467,0,0,1,1.751,4.4" transform="translate(-11.638 -87.701)" fill="#fdc5b6"/>
    <path id="Caminho_7086" data-name="Caminho 7086" d="M18.628,158.685c.258-.679,1.5-1.489,2.031-1.958.716-.637,1.458-1.247,2.2-1.852,1.518-1.234,3.068-2.43,4.525-3.742.335-.3,1.215-1.146.261-.954a10.38,10.38,0,0,0-2.054.912,13.81,13.81,0,0,0-3.939,2.866,13.978,13.978,0,0,0-3.026,4.728" transform="translate(-13.293 -107.147)" fill="#35324c"/>
    <path id="Caminho_7087" data-name="Caminho 7087" d="M37.88,116.38c2.316-.922,4.15-1.931,6.778-1.862a1.691,1.691,0,0,1,.7.124c1.619.78-.835,4.325-1.518,5.31-1.206,1.743-2.71,3.329-4.035,5.008a1.218,1.218,0,0,1-.651.509,1.341,1.341,0,0,1-.669-.078,33.826,33.826,0,0,1-6.255-2.508,5.1,5.1,0,0,1-1.339-.706c-.44-.477.009-.812.381-1.252a34.808,34.808,0,0,1,6.608-4.545" transform="translate(-21.914 -81.717)" fill="#044bd9"/>
    <path id="Caminho_7088" data-name="Caminho 7088" d="M121.164,127.829c.468,3.545,2.871,7.057,5.668,9.423,1.812,1.536,8.983,5.732,10.795,2.522a2.252,2.252,0,0,0,.156-.335,10.162,10.162,0,0,0,0-1.344,12.2,12.2,0,0,0-.294-1.9,16.549,16.549,0,0,0-2.967-6.241,19.218,19.218,0,0,0-1.816-2.091,24.749,24.749,0,0,0-7.025-4.778c-.275-.06-.55-.119-.821-.193a3.361,3.361,0,0,0-1.991.536,4.549,4.549,0,0,0-1.7,4.4" transform="translate(-86.428 -87.69)" fill="#fdc5b6"/>
    <path id="Caminho_7089" data-name="Caminho 7089" d="M154.5,157.312c-.252-.6-1.463-1.316-1.976-1.729-.7-.564-1.417-1.1-2.141-1.637-1.477-1.092-2.985-2.146-4.4-3.306-.325-.266-1.179-1.014-.252-.839a10.417,10.417,0,0,1,2,.807,13.521,13.521,0,0,1,3.834,2.531,12.236,12.236,0,0,1,2.939,4.173" transform="translate(-103.69 -106.878)" fill="#35324c"/>
    <path id="Caminho_7090" data-name="Caminho 7090" d="M69.374,171.434a13.225,13.225,0,0,0,1.366.193,45.984,45.984,0,0,0,7.86.22c.518-.037,1.037-.086,1.55-.156a26.98,26.98,0,0,0,4.389-.908,7.2,7.2,0,0,0-3.545-5.03,10.135,10.135,0,0,0-6.346-1.146,5.419,5.419,0,0,0-2.793,1.027c-1.2.99-1.89,4.062-2.481,5.8" transform="translate(-49.505 -117.396)" fill="#35324c"/>
    <path id="Caminho_7091" data-name="Caminho 7091" d="M77.654,119.36a9.485,9.485,0,0,0-1.339-3.567,9.644,9.644,0,0,0-5.952-3.8,24.9,24.9,0,0,0-7.2-.312,12.858,12.858,0,0,0-5.132,1.082c-3.557,1.83-5.075,8.176-5.745,11.781a58,58,0,0,0-.807,13,1.758,1.758,0,0,0,.258,1.018,1.815,1.815,0,0,0,1.234.537,81.931,81.931,0,0,0,24.167.041,2.8,2.8,0,0,0,1.554-.573,2.74,2.74,0,0,0,.61-1.89,47.292,47.292,0,0,0-.912-11.533c-.368-1.875-.382-3.883-.735-5.791" transform="translate(-36.682 -79.616)" fill="#044bd9"/>
    <path id="Caminho_7092" data-name="Caminho 7092" d="M99.365,95.73v5.11a1.812,1.812,0,0,1-3.623.014V95.73Z" transform="translate(-68.321 -68.312)" fill="#fdc5b6"/>
    <path id="Caminho_7093" data-name="Caminho 7093" d="M99.365,95.73v3.183a17.575,17.575,0,0,1-3.623,1.94V95.73Z" transform="translate(-68.321 -68.312)" fill="#35324c"/>
    <path id="Caminho_7094" data-name="Caminho 7094" d="M95.55,125.623H92.313a.329.329,0,0,1-.33-.328v-7.06a.329.329,0,0,1,.328-.33H95.55a.329.329,0,0,1,.33.328v7.06a.335.335,0,0,1-.33.33" transform="translate(-65.638 -84.136)" fill="#35324c"/>
    <path id="Caminho_7095" data-name="Caminho 7095" d="M121.875,116.38c-2.251-.922-4.04-1.931-6.59-1.862a1.6,1.6,0,0,0-.683.124c-1.573.78.812,4.325,1.472,5.31,1.174,1.743,2.637,3.329,3.926,5.008a1.194,1.194,0,0,0,.633.509,1.264,1.264,0,0,0,.651-.078,32.479,32.479,0,0,0,6.085-2.508,4.878,4.878,0,0,0,1.3-.706c.426-.477-.009-.812-.372-1.252a33.716,33.716,0,0,0-6.423-4.545" transform="translate(-81.403 -81.717)" fill="#044bd9"/>
    <path id="Caminho_7096" data-name="Caminho 7096" d="M144.015,149.128c.042.014.082.032.124.046a.11.11,0,0,1-.042-.009c-.027-.014-.059-.023-.082-.037" transform="translate(-102.768 -106.417)" fill="#fdc5b6"/>
    <path id="Caminho_7097" data-name="Caminho 7097" d="M93.2,137.85a.7.7,0,0,0,.009.092.079.079,0,0,0,.086.071l.014,0a8.97,8.97,0,0,1,2.816-.211.088.088,0,0,1,.083.093v0a.086.086,0,0,1-.088.083H96.11a8.873,8.873,0,0,0-2.756.2.086.086,0,0,0-.058.107l0,.008a1.652,1.652,0,0,0,.073.156.081.081,0,0,0,.086.041,7.723,7.723,0,0,1,2.632-.129.09.09,0,0,1,.074.1v0a.086.086,0,0,1-.1.074h0a7.116,7.116,0,0,0-2.366.086.086.086,0,0,0-.032.156c.243.143.614.018.876.029a10.4,10.4,0,0,1,3.71.876c.376.687.761,1.307.9,1.564a24.8,24.8,0,0,0,5.682,7.186,11.97,11.97,0,0,0,6.369,2.953c1.547.156,5.173.092,6.2-1.234,3.1-3.976-7.525-8.8-9.928-10.029a57.186,57.186,0,0,0-5.237-2.417c-.183-.069-.362-.143-.541-.2a11.141,11.141,0,0,0-3.073-.77c-.376-.064-.748-.115-1.114-.143-.28-.023-.569-.032-.858-.029a8.515,8.515,0,0,0-2.866.527,1.314,1.314,0,0,0-.5.3s0,.009-.009.014a.082.082,0,0,0,.092.124,7.993,7.993,0,0,1,2.738-.3.1.1,0,0,1,.086.1.089.089,0,0,1-.094.083h0a7.827,7.827,0,0,0-2.852.344.083.083,0,0,0-.048.09" transform="translate(-66.504 -97.453)" fill="#fdc5b6"/>
    <path id="Caminho_7098" data-name="Caminho 7098" d="M99.18,93.564a2.363,2.363,0,1,1-2.343-2.669,2.524,2.524,0,0,1,2.343,2.669" transform="translate(-67.429 -64.862)" fill="#fdc5b6"/>
    <path id="Caminho_7099" data-name="Caminho 7099" d="M109.479,98.12c0,.527.321.949.72.949a.858.858,0,0,0,.72-.949c0-.527-.321-.949-.72-.949s-.72.422-.72.949" transform="translate(-78.123 -69.34)" fill="#fdc5b6"/>
    <path id="Caminho_7100" data-name="Caminho 7100" d="M91.578,97.171a.986.986,0,1,1-.72.949.859.859,0,0,1,.72-.949" transform="translate(-64.836 -69.34)" fill="#fdc5b6"/>
    <path id="Caminho_7101" data-name="Caminho 7101" d="M89.577,86.1c.39-.716-.372-.821-.326-1.325.073-.784.229-.7.789-1.4,1.114-1.4,1.7-1.651,3.288-1.408,1.275.2,2.719.5,2.518,2.247-.082.7,1.289.468.605,1.908-.1.2-.014.431-.055.646-.1.536-.8.665-1.344.674.22-.353-.183-.8-.591-.876s-.835.055-1.243-.029A1.389,1.389,0,0,1,92.2,85.509c-.417.752-.115,1.7-1.179,1.926-.674.143-1.894-.523-1.449-1.334,0,.006,0,.006,0,0" transform="translate(-63.688 -58.432)" fill="#35324c"/>
    <path id="Caminho_7102" data-name="Caminho 7102" d="M97.992,102.466h0a.134.134,0,0,1-.086-.168h0a.14.14,0,0,1,.174-.083.134.134,0,0,1,.086.169h0a.131.131,0,0,1-.164.086l-.01,0" transform="translate(-69.86 -72.934)" fill="#171f3d"/>
    <path id="Caminho_7103" data-name="Caminho 7103" d="M105.23,102.466h0a.134.134,0,0,1-.086-.168h0a.14.14,0,0,1,.174-.083.134.134,0,0,1,.086.169h0a.131.131,0,0,1-.163.086l-.011,0" transform="translate(-75.025 -72.934)" fill="#171f3d"/>
    <path id="Caminho_7104" data-name="Caminho 7104" d="M102.228,103.258h-.674v-1.5h.105v1.4h.569Z" transform="translate(-72.468 -72.611)" fill="#171f3d"/>
    <path id="Caminho_7105" data-name="Caminho 7105" d="M88.024,123.19v.275l-.592.353v.036l-.013.339,0,.1-.018.381a7.385,7.385,0,0,1-1.018,1.311,11.365,11.365,0,0,0,.986-.659l-.014.275a13.854,13.854,0,0,1-3.591,2.6l-3.912,3.705h-.229l.821-3.036.458-1.321.358-1.031.687-1.986.587-1.031a1.082,1.082,0,0,1,.729-.523l.11-.023v1.422Z" transform="translate(-56.816 -87.743)" fill="#fdc5b6"/>
    <rect id="Retângulo_2060" data-name="Retângulo 2060" width="1.978" height="0.06" transform="translate(28.823 36.993) rotate(-28.669)" fill="#252e4f"/>
    <path id="Caminho_7106" data-name="Caminho 7106" d="M101.794,128.228l-.032-.05a7.138,7.138,0,0,0,1.568-1.449l.05.032a7.192,7.192,0,0,1-1.587,1.467" transform="translate(-72.617 -90.433)" fill="#252e4f"/>
    <path id="Caminho_7107" data-name="Caminho 7107" d="M68.953,136.807l-3.911,3.705-1.2,1.142-4.975-2.485,6.631-3.15,2.655-.995Z" transform="translate(-42.004 -96.351)" fill="#fdc5b6"/>
    <path id="Caminho_7108" data-name="Caminho 7108" d="M38.79,139.072l-1,.458c-1.426-.174-4.3,1.037-5.319,1.38-3.315,1.114-6.59,2.375-9.8,3.769a10.286,10.286,0,0,0-2.265,1.229c-1.8,1.4-2.252,3.586-2.564,5.549a1.766,1.766,0,0,0,.693,1.981l-.009.055c.1.032.193.06.289.086a2.738,2.738,0,0,0,.706.179c7.561,1.71,13.143-4.306,16.3-9.148.206-.215.408-.43.615-.651A10.468,10.468,0,0,0,38.4,141.2c.284-.674.271-1.105.059-1.366.217-.48.331-.76.331-.76" transform="translate(-12.697 -99.241)" fill="#fdc5b6"/>
    <path id="Caminho_7109" data-name="Caminho 7109" d="M182.858,463.362l-9.158.44,4.754,11.634c.014,0,.032,0,.046.009l-.325-.831,7.039-.046c.064-.083.128-.165.2-.243l.023-1.623c0-.367.761,1.426,1.183,1.325Z" transform="translate(-123.951 -330.652)" fill="#e9eeff"/>
    <path id="Caminho_7110" data-name="Caminho 7110" d="M205.767,512.466c0-.055,0-.11,0-.16,0-.018,0-.032,0-.05,0-.037-.009-.078-.014-.115,0-.018,0-.037-.009-.055-.009-.041-.018-.078-.029-.119,0-.014,0-.029-.009-.041a1.378,1.378,0,0,0-.046-.147c0-.018-.014-.032-.018-.05l-.041-.1a.421.421,0,0,0-.032-.065c-.014-.029-.029-.05-.041-.078s-.023-.046-.037-.069c0,0,0,0,0-.009l-14.986.069.413,1.816,14.853-.064Z" transform="translate(-135.932 -364.939)" fill="#d7deff"/>
    <path id="Caminho_7111" data-name="Caminho 7111" d="M195.307,502.24h.188v-.115h3.122l3.958,1.582c.073.023.147.046.22.073a.494.494,0,0,1,.073.032c.046.018.092.042.138.06.029.014.05.029.078.042l.124.069.069.041c.05.032.1.064.143.1a.27.27,0,0,1,.037.029c.059.046.115.092.17.137a.133.133,0,0,0,.029.023c.046.041.086.082.129.124.014.014.023.029.037.042.037.041.073.082.105.124a.247.247,0,0,0,.032.041,1.665,1.665,0,0,1,.1.147.06.06,0,0,1,.014.018l-14.986.069L188.5,502.3h.143Z" transform="translate(-134.511 -358.313)" fill="#044bd9"/>
    <path id="Caminho_7112" data-name="Caminho 7112" d="M215.541,486.756a.414.414,0,0,1-.192.032,3.5,3.5,0,0,0-.665.092,3.435,3.435,0,0,0-1.523.8,3.17,3.17,0,0,0-1.05,2.334v1.133h1.481l-.394,1.1h2.349v-5.511Z" transform="translate(-151.361 -347.332)" fill="#044bd9"/>
    <path id="Caminho_7113" data-name="Caminho 7113" d="M75.952,439.746l2.682,19.893L86.6,459.4l-.358-10.643Z" transform="translate(-54.199 -313.799)" fill="#e9eeff"/>
    <path id="Caminho_7114" data-name="Caminho 7114" d="M84.88,494.664V498.8H73.55v-1.755l.069-.069,1.738-1.779.023-1.22a2.772,2.772,0,0,1,2.866-2.609h.11a2.766,2.766,0,0,1,2.866,2.655v.642Z" transform="translate(-52.485 -350.636)" fill="#044bd9"/>
    <path id="Caminho_7115" data-name="Caminho 7115" d="M84.881,510.947v1.825H73.551v-1.756l.069-.069Z" transform="translate(-52.485 -364.608)" fill="#d7deff"/>
    <path id="Caminho_7116" data-name="Caminho 7116" d="M62.263,278.019l-4.6-70.217s13.518,54.95,23.878,70.217H91.4L72.288,194.05l-9.9.912a28.364,28.364,0,0,1-5.407-.018L44.6,193.72s-9.726,28.913,9.079,84.3Z" transform="translate(-30.031 -138.237)" fill="#0792f0"/>
    <path id="Caminho_7117" data-name="Caminho 7117" d="M96.463,230.561l3.554-4.948v18.525Z" transform="translate(-68.835 -160.996)" fill="#229ac4"/>
    <rect id="Retângulo_2061" data-name="Retângulo 2061" width="59.619" height="0.321" transform="translate(14.948 148.036)" fill="#bec9ff"/>
  </g>
</svg>
