<svg xmlns="http://www.w3.org/2000/svg" width="198" height="136.159" viewBox="0 0 198 136.159">
  <g id="Grupo_4806" data-name="Grupo 4806" transform="translate(-215 -1019.339)">
    <path id="Caminho_6853" data-name="Caminho 6853" d="M866.041,895.36c-.625.433-6.38.024-6.436-.381-.056-.428-.136-.813-.183-1.156a.356.356,0,0,1-.014-.089c.5-3.578,1.152-8.932,1.152-8.932s2.74-.358,3.9,1.245c0,0-3.069,7.076-1.691,7.744.056.028.117.056.193.089a11.084,11.084,0,0,0,2.99.846S866.666,894.928,866.041,895.36Z" transform="translate(-555.55 259.794)" fill="#f5a784"/>
    <path id="Caminho_6854" data-name="Caminho 6854" d="M866.044,935.675c-.625.432-6.38.023-6.436-.381-.056-.428-.137-.813-.184-1.156,0-.033-.009-.061-.014-.089a11.472,11.472,0,0,0,3.549.146,11.08,11.08,0,0,0,2.99.846S866.669,935.242,866.044,935.675Z" transform="translate(-555.553 219.48)" fill="#f03e30"/>
    <path id="Caminho_6855" data-name="Caminho 6855" d="M675.678,897.5c.625.433,6.38.023,6.436-.381.056-.428.136-.813.183-1.156,0-.033.009-.061.014-.089.226-1.674,2.92-6.724,2.92-6.724s-2.477-2.128-3.633-.525c0,0-1.266,6.639-2.643,7.306-.056.028-.117.056-.193.089a11.071,11.071,0,0,1-2.99.846S675.052,897.072,675.678,897.5Z" transform="translate(-405.042 257.125)" fill="#f5a784"/>
    <path id="Caminho_6856" data-name="Caminho 6856" d="M675.678,932.788c.625.432,6.38.023,6.436-.381.056-.428.136-.813.183-1.156,0-.033.009-.061.014-.089a11.459,11.459,0,0,1-3.549.146,11.069,11.069,0,0,1-2.99.846S675.052,932.355,675.678,932.788Z" transform="translate(-405.042 221.842)" fill="#f03e30"/>
    <g id="Grupo_4805" data-name="Grupo 4805">
      <g id="Grupo_3257" data-name="Grupo 3257" transform="translate(215 1096.967)">
        <path id="Caminho_6831" data-name="Caminho 6831" d="M392.974,747.985c3.386,1.826,5.551,4.518,8.121,7.2,2.754,2.869,4.83,6.244,5.18,10.279-8,.833-18.819,1.22-25.453-4.327a27.277,27.277,0,0,1-5.827-7.65q-2.107-3.689-3.945-7.523C378.311,744.019,386.357,744.418,392.974,747.985Z" transform="translate(-371.049 -722.677)" fill="#2fac66"/>
        <path id="Caminho_6832" data-name="Caminho 6832" d="M436.209,665.12c-.434-.169-2.6-1.013-3.249-1.272a54.735,54.735,0,0,1-13.732-7.415c-.09-.06-.175-.133-.259-.2-.247-.2-.494-.41-.735-.621a24.717,24.717,0,0,1-5.992-7.523c-.036-.066-.065-.133-.1-.2-.183-.379-.374-.754-.549-1.133a43.607,43.607,0,0,1-3.544-11.357q-.082-.461-.145-.922a42.762,42.762,0,0,1-.265-10.531q.027-.38.072-.76c.121.012.241.026.362.042a20.911,20.911,0,0,1,10.525,4.72c.253.2.506.422.753.645a33.909,33.909,0,0,1,7.523,9.537c.038.071.078.151.121.223.169.3.331.609.488.916a83.655,83.655,0,0,1,4.087,8.91c.169.422.326.844.482,1.272.277.735.536,1.471.79,2.213q1.148,3.373,2,6.824C435.039,659.248,435.739,664.939,436.209,665.12Z" transform="translate(-400.814 -623.187)" fill="#5cc78b"/>
        <path id="Caminho_6833" data-name="Caminho 6833" d="M435.832,664.613c-.645-.253-1.3-.506-1.941-.766a52.864,52.864,0,0,1-4.913-7.982.69.69,0,0,1-.223,0,18.428,18.428,0,0,0-6.92.078,12.77,12.77,0,0,0-1.676.488c-.09-.06-.175-.133-.259-.2-.247-.2-.494-.41-.735-.621a16.933,16.933,0,0,1,2.857-.826,18.289,18.289,0,0,1,3.032-.386c.657-.024,2.435.38,2.978.145a1.067,1.067,0,0,0,.2-.109c-1.079-2.05-2.152-4.1-3.358-6.034-4.111-1.6-7.776-1.417-11.8-.512-.193-.374-.374-.754-.549-1.133a17.049,17.049,0,0,1,11.261-.066c-1.983-3.093-4.051-6.131-6.131-9.163a.429.429,0,0,1-.3-.048,17.159,17.159,0,0,0-8.373-2.08q-.082-.461-.145-.922A16.456,16.456,0,0,1,416.6,636c-2.737-3.979-5.474-7.963-8.03-12.057q.027-.38.072-.76c.121.012.241.024.362.042,2.827,3.894,5.528,7.9,8.192,11.924a18.585,18.585,0,0,1,2.333-7.2c.253.2.506.422.753.645-1.151,2.508-2.224,4.955-2.249,7.831,2.188,3.333,6.722,10.3,6.818,10.453a25.8,25.8,0,0,1,2.954-8.747c.036.072.078.151.121.223.169.3.332.609.488.916a19.387,19.387,0,0,0-2.478,8.632.706.706,0,0,1-.187.428c1.091,1.821,2.086,3.689,3.08,5.558.983-1.194,1.652-3.472,2.5-4.5a9.757,9.757,0,0,1,1.175-1.212c.169.422.325.844.482,1.272a16.218,16.218,0,0,0-3.43,5.805c.458.862.916,1.724,1.392,2.574A39.972,39.972,0,0,0,435.832,664.613Z" transform="translate(-401.745 -623.187)" fill="#2fac66"/>
      </g>
      <g id="Grupo_3258" data-name="Grupo 3258" transform="translate(377.605 1102.367)">
        <path id="Caminho_6834" data-name="Caminho 6834" d="M1339.874,806.09c-3.386,1.826-5.55,4.519-8.121,7.2-2.754,2.868-4.829,6.244-5.18,10.279,8,.832,18.819,1.22,25.453-4.327a27.277,27.277,0,0,0,5.827-7.65q2.107-3.689,3.945-7.523C1354.536,802.123,1346.491,802.523,1339.874,806.09Z" transform="translate(-1326.404 -780.782)" fill="#2fac66"/>
        <path id="Caminho_6835" data-name="Caminho 6835" d="M1325.642,723.225c.434-.169,2.6-1.013,3.249-1.272a54.727,54.727,0,0,0,13.732-7.415c.09-.06.175-.133.259-.2.247-.2.494-.41.735-.621a24.72,24.72,0,0,0,5.992-7.523c.036-.066.065-.133.1-.2.183-.378.374-.753.548-1.133a43.609,43.609,0,0,0,3.545-11.357q.081-.461.145-.922a42.783,42.783,0,0,0,.265-10.531q-.027-.38-.072-.76-.181.018-.362.042a20.909,20.909,0,0,0-10.525,4.72c-.253.2-.506.422-.754.645a33.912,33.912,0,0,0-7.523,9.537c-.038.072-.078.151-.121.223-.169.3-.331.609-.488.916a83.69,83.69,0,0,0-4.087,8.91c-.169.422-.325.844-.482,1.272-.277.735-.536,1.471-.79,2.212q-1.148,3.373-2,6.824C1326.812,717.353,1326.112,723.044,1325.642,723.225Z" transform="translate(-1325.642 -681.292)" fill="#5cc78b"/>
        <path id="Caminho_6836" data-name="Caminho 6836" d="M1332.832,722.718c.645-.253,1.3-.506,1.941-.765a52.871,52.871,0,0,0,4.913-7.981.7.7,0,0,0,.223,0,18.426,18.426,0,0,1,6.92.078,12.753,12.753,0,0,1,1.676.488c.09-.06.175-.133.259-.2.247-.2.495-.41.736-.621a16.926,16.926,0,0,0-2.857-.826,18.293,18.293,0,0,0-3.032-.386c-.657-.024-2.435.38-2.978.145a1.075,1.075,0,0,1-.2-.108c1.079-2.05,2.152-4.1,3.358-6.034,4.111-1.6,7.776-1.417,11.8-.512.193-.374.374-.753.549-1.133a17.049,17.049,0,0,0-11.261-.066c1.983-3.093,4.051-6.131,6.131-9.163a.429.429,0,0,0,.3-.048,17.17,17.17,0,0,1,8.373-2.08q.081-.461.145-.922a16.453,16.453,0,0,0-7.764,1.525c2.737-3.979,5.474-7.963,8.03-12.056q-.027-.38-.072-.76c-.12.012-.241.024-.362.042-2.827,3.894-5.528,7.9-8.192,11.924a18.585,18.585,0,0,0-2.333-7.2c-.253.2-.506.422-.754.645,1.151,2.508,2.224,4.955,2.248,7.831-2.188,3.334-6.721,10.3-6.818,10.453a25.806,25.806,0,0,0-2.954-8.747c-.036.072-.078.151-.12.223-.169.3-.332.609-.489.916a19.386,19.386,0,0,1,2.478,8.632.705.705,0,0,0,.187.428c-1.091,1.82-2.086,3.689-3.081,5.558-.982-1.194-1.652-3.472-2.5-4.5a9.728,9.728,0,0,0-1.176-1.211c-.169.422-.326.844-.482,1.272a16.217,16.217,0,0,1,3.43,5.805c-.458.862-.916,1.724-1.393,2.574A39.947,39.947,0,0,1,1332.832,722.718Z" transform="translate(-1331.524 -681.292)" fill="#2fac66"/>
      </g>
      <g id="Grupo_3262" data-name="Grupo 3262" transform="translate(230.227 1022.236)">
        <rect id="Retângulo_441" data-name="Retângulo 441" width="75.191" height="72.607" transform="translate(17.526 39.697)" fill="#878787"/>
        <path id="Retângulo_442" data-name="Retângulo 442" d="M0,0H17.25a0,0,0,0,1,0,0V1.653a1.83,1.83,0,0,1-1.83,1.83H1.83A1.83,1.83,0,0,1,0,1.653V0A0,0,0,0,1,0,0Z" transform="translate(11.569 46.442)" fill="#dadada"/>
        <path id="Retângulo_443" data-name="Retângulo 443" d="M0,0H14.134a0,0,0,0,1,0,0V.577a1.745,1.745,0,0,1-1.745,1.745H1.745A1.745,1.745,0,0,1,0,.577V0A0,0,0,0,1,0,0Z" transform="translate(13.117 49.925)" fill="#ededed"/>
        <path id="Caminho_6837" data-name="Caminho 6837" d="M545.564,547.052H534.119l.65-47.437h10.145Z" transform="translate(-519.675 -447.369)" fill="#ededed"/>
        <path id="Retângulo_444" data-name="Retângulo 444" d="M0,0H17.25a0,0,0,0,1,0,0V1.653a1.83,1.83,0,0,1-1.83,1.83H1.83A1.83,1.83,0,0,1,0,1.653V0A0,0,0,0,1,0,0Z" transform="translate(28.819 104.991) rotate(180)" fill="#dadada"/>
        <path id="Retângulo_445" data-name="Retângulo 445" d="M0,0H14.134a0,0,0,0,1,0,0V.577a1.745,1.745,0,0,1-1.745,1.745H1.745A1.745,1.745,0,0,1,0,.577V0A0,0,0,0,1,0,0Z" transform="translate(27.271 101.508) rotate(180)" fill="#ededed"/>
        <path id="Retângulo_446" data-name="Retângulo 446" d="M0,0H17.25a0,0,0,0,1,0,0V1.653a1.83,1.83,0,0,1-1.83,1.83H1.83A1.83,1.83,0,0,1,0,1.653V0A0,0,0,0,1,0,0Z" transform="translate(35.453 46.442)" fill="#dadada"/>
        <path id="Retângulo_447" data-name="Retângulo 447" d="M0,0H14.134a0,0,0,0,1,0,0V.577a1.745,1.745,0,0,1-1.745,1.745H1.745A1.745,1.745,0,0,1,0,.577V0A0,0,0,0,1,0,0Z" transform="translate(37.001 49.925)" fill="#ededed"/>
        <path id="Retângulo_448" data-name="Retângulo 448" d="M0,0H17.25a0,0,0,0,1,0,0V1.653a1.83,1.83,0,0,1-1.83,1.83H1.83A1.83,1.83,0,0,1,0,1.653V0A0,0,0,0,1,0,0Z" transform="translate(59.338 46.442)" fill="#dadada"/>
        <path id="Retângulo_449" data-name="Retângulo 449" d="M0,0H14.134a0,0,0,0,1,0,0V.577a1.745,1.745,0,0,1-1.745,1.745H1.745A1.745,1.745,0,0,1,0,.578V0A0,0,0,0,1,0,0Z" transform="translate(60.886 49.925)" fill="#2fac66"/>
        <path id="Caminho_6838" data-name="Caminho 6838" d="M808.1,547.052H796.657l.65-47.437h10.145Z" transform="translate(-734.445 -447.369)" fill="#ededed"/>
        <path id="Retângulo_450" data-name="Retângulo 450" d="M0,0H17.25a0,0,0,0,1,0,0V1.653a1.83,1.83,0,0,1-1.83,1.83H1.83A1.83,1.83,0,0,1,0,1.653V0A0,0,0,0,1,0,0Z" transform="translate(76.587 104.991) rotate(180)" fill="#dadada"/>
        <path id="Retângulo_451" data-name="Retângulo 451" d="M0,0H14.134a0,0,0,0,1,0,0V.577a1.745,1.745,0,0,1-1.745,1.745H1.745A1.745,1.745,0,0,1,0,.577V0A0,0,0,0,1,0,0Z" transform="translate(75.039 101.508) rotate(180)" fill="#ededed"/>
        <path id="Retângulo_452" data-name="Retângulo 452" d="M0,0H17.25a0,0,0,0,1,0,0V1.653a1.83,1.83,0,0,1-1.83,1.83H1.83A1.83,1.83,0,0,1,0,1.653V0A0,0,0,0,1,0,0Z" transform="translate(83.222 46.442)" fill="#dadada"/>
        <path id="Retângulo_453" data-name="Retângulo 453" d="M0,0H14.133a0,0,0,0,1,0,0V.577a1.745,1.745,0,0,1-1.745,1.745H1.745A1.745,1.745,0,0,1,0,.577V0A0,0,0,0,1,0,0Z" transform="translate(84.77 49.925)" fill="#ededed"/>
        <path id="Caminho_6839" data-name="Caminho 6839" d="M939.371,547.052H927.926l.65-47.437h10.145Z" transform="translate(-841.83 -447.369)" fill="#ededed"/>
        <path id="Retângulo_454" data-name="Retângulo 454" d="M0,0H17.25a0,0,0,0,1,0,0V1.653a1.83,1.83,0,0,1-1.83,1.83H1.83A1.83,1.83,0,0,1,0,1.653V0A0,0,0,0,1,0,0Z" transform="translate(100.472 104.991) rotate(180)" fill="#dadada"/>
        <path id="Retângulo_455" data-name="Retângulo 455" d="M0,0H14.134a0,0,0,0,1,0,0V.577a1.745,1.745,0,0,1-1.745,1.745H1.745A1.745,1.745,0,0,1,0,.577V0A0,0,0,0,1,0,0Z" transform="translate(98.924 101.508) rotate(180)" fill="#ededed"/>
        <path id="Caminho_6840" data-name="Caminho 6840" d="M540.364,441.274H491.2V444.9a1.189,1.189,0,0,0,1.189,1.189h95.955a1.189,1.189,0,0,0,1.189-1.189v-3.621Z" transform="translate(-484.564 -399.642)" fill="#ededed"/>
        <g id="Grupo_3259" data-name="Grupo 3259">
          <path id="Caminho_6841" data-name="Caminho 6841" d="M467.231,264.7v-2.3l53.527-35,53.527,35v2.3Z" transform="translate(-464.958 -224.68)" fill="#b2b2b2"/>
          <path id="Caminho_6842" data-name="Caminho 6842" d="M510.535,217.9l49.415,32.314H461.12Zm0-5.433L455.429,248.5a1.533,1.533,0,0,0-.694,1.283v3.649a1.327,1.327,0,0,0,1.327,1.327H565.009a1.327,1.327,0,0,0,1.327-1.327v-3.649a1.533,1.533,0,0,0-.694-1.283Z" transform="translate(-454.735 -212.465)" fill="#c6c6c6"/>
        </g>
        <path id="Caminho_6843" data-name="Caminho 6843" d="M578.559,816.013H476.814a1.113,1.113,0,0,0-1.113,1.113v3.863H579.672v-3.863A1.113,1.113,0,0,0,578.559,816.013Z" transform="translate(-471.886 -706.198)" fill="#dadada"/>
        <path id="Caminho_6844" data-name="Caminho 6844" d="M568.7,843.361H461.317a1.113,1.113,0,0,0-1.113,1.113v3.863h109.61v-3.863A1.113,1.113,0,0,0,568.7,843.361Z" transform="translate(-459.209 -728.57)" fill="#c6c6c6"/>
        <path id="Caminho_6851" data-name="Caminho 6851" d="M676.833,547.052H665.388l.65-47.437h10.145Z" transform="translate(-627.06 -447.369)" fill="#ededed"/>
        <path id="Retângulo_456" data-name="Retângulo 456" d="M0,0H17.25a0,0,0,0,1,0,0V1.653a1.83,1.83,0,0,1-1.83,1.83H1.83A1.83,1.83,0,0,1,0,1.653V0A0,0,0,0,1,0,0Z" transform="translate(52.703 104.991) rotate(180)" fill="#dadada"/>
        <path id="Retângulo_457" data-name="Retângulo 457" d="M0,0H14.133a0,0,0,0,1,0,0V.577a1.745,1.745,0,0,1-1.745,1.745H1.745A1.745,1.745,0,0,1,0,.577V0A0,0,0,0,1,0,0Z" transform="translate(51.155 101.508) rotate(180)" fill="#ededed"/>
        <path id="Caminho_6852" data-name="Caminho 6852" d="M588.417,788.666H492.311a1.113,1.113,0,0,0-1.113,1.113v3.863H589.53v-3.863A1.113,1.113,0,0,0,588.417,788.666Z" transform="translate(-484.564 -683.827)" fill="#ededed"/>
      </g>
      <g id="Grupo_4793" data-name="Grupo 4793" transform="translate(317.027 1040.513)">
        <g id="Grupo_3268" data-name="Grupo 3268">
          <path id="Caminho_6899" data-name="Caminho 6899" d="M1094.207,246.671h-22.234c-13.488,0-19.092,5.6-19.092,19.092v76.8c0,13.494,5.6,19.092,19.092,19.092h22.234c13.488,0,19.092-5.6,19.092-19.092v-76.8C1113.3,252.269,1107.695,246.671,1094.207,246.671Z" transform="translate(-1052.881 -246.671)" fill="#0792f0"/>
          <path id="Caminho_6900" data-name="Caminho 6900" d="M1086.583,372.582c-11.338,0-15.408-3.908-15.408-15.408V280.368c0-11.521,4.089-15.407,15.408-15.407h21.988c11.338,0,15.407,3.907,15.407,15.407v76.806c0,11.338-3.908,15.408-15.407,15.408Z" transform="translate(-1067.492 -261.279)" fill="#fff"/>
          <path id="Caminho_6901" data-name="Caminho 6901" d="M1115.2,311.547c.215-1.169,6.989-17.488-10.269-26.588a218.613,218.613,0,0,1,16.881-14.987c-2.262-3.6-6.445-5.011-13.242-5.011h-4.855c-15.139,13.151-23.714,23.016-32.541,35.619v30.186c3.486-6.5,7.065-12.449,10.763-17.961a19.842,19.842,0,0,0,17.848,11.163c.211,0,.422,0,.632-.01-12,11.769-17.167,21.8-26.871,43.925,1.567,2.292,3.981,3.637,7.437,4.265,7.374-26.2,22.522-42.928,42.994-59.531v-8.581C1122.349,305.315,1116.692,310.36,1115.2,311.547Z" transform="translate(-1067.492 -261.279)" fill="#f6f6f6"/>
          <path id="Caminho_6902" data-name="Caminho 6902" d="M1180.887,252.052H1169.2c-1.376,0-1.377,1.515,0,1.515h11.69C1182.262,253.567,1182.264,252.052,1180.887,252.052Z" transform="translate(-1144.957 -250.969)" fill="#0a2740"/>
          <path id="Caminho_6903" data-name="Caminho 6903" d="M1175.423,773.573h-15.372c-1.376,0-1.377,1.515,0,1.515h15.372C1176.8,775.088,1176.8,773.573,1175.423,773.573Z" transform="translate(-1137.653 -667.504)" fill="#19619e"/>
          <path id="Caminho_6904" data-name="Caminho 6904" d="M1106.212,284.024h-1.521c-1.376,0-1.377,1.515,0,1.515h1.521C1107.588,285.539,1107.589,284.024,1106.212,284.024Z" transform="translate(-1093.437 -276.505)" fill="#19619e"/>
          <path id="Caminho_6905" data-name="Caminho 6905" d="M1130.345,284.024h-1.521c-1.376,0-1.377,1.515,0,1.515h1.521C1131.721,285.539,1131.721,284.024,1130.345,284.024Z" transform="translate(-1112.711 -276.505)" fill="#19619e"/>
          <path id="Caminho_6906" data-name="Caminho 6906" d="M1149.167,252.052a.758.758,0,0,0,0,1.515A.758.758,0,0,0,1149.167,252.052Z" transform="translate(-1129.182 -250.969)" fill="#0a2740"/>
          <path id="Caminho_6907" data-name="Caminho 6907" d="M1254.294,284.024a.758.758,0,0,0,0,1.515A.758.758,0,0,0,1254.294,284.024Z" transform="translate(-1213.146 -276.505)" fill="#19619e"/>
          <path id="Caminho_6908" data-name="Caminho 6908" d="M1266.405,284.024a.758.758,0,0,0,0,1.515A.758.758,0,0,0,1266.405,284.024Z" transform="translate(-1222.82 -276.505)" fill="#19619e"/>
          <path id="Caminho_6909" data-name="Caminho 6909" d="M1278.518,284.024a.758.758,0,0,0,0,1.515A.758.758,0,0,0,1278.518,284.024Z" transform="translate(-1232.494 -276.505)" fill="#19619e"/>
          <path id="Caminho_6910" data-name="Caminho 6910" d="M1290.63,284.024a.758.758,0,0,0,0,1.515A.758.758,0,0,0,1290.63,284.024Z" transform="translate(-1242.167 -276.505)" fill="#19619e"/>
        </g>
        <g id="Grupo_3270" data-name="Grupo 3270" transform="translate(24.582 31.313)">
          <g id="Grupo_3269" data-name="Grupo 3269" transform="translate(0 0)">
            <path id="Caminho_6912" data-name="Caminho 6912" d="M1183.834,420.671c-1.527-.828-6.39-1.479-4.334-4.259a2.647,2.647,0,0,1,2.689-.966c.834.117,2.912,1.746,3.621.563.787-1.312-1.358-2.457-2.1-2.828a4.99,4.99,0,0,0-2.563-.471,6.131,6.131,0,0,0-4.6,2.529,4.376,4.376,0,0,0-.724,1.875c-.286,2.178,1.4,3.911,3.219,4.787,1.668.8,4.549.663,5.157,2.83a2.493,2.493,0,0,1,.074.8,2.287,2.287,0,0,1-1.527,2.211,4.817,4.817,0,0,1-4.615-1.677c-1.218-1.7-4.065-.065-2.833,1.656,2.875,4.015,10.963,4.558,11.674-1.528A5.7,5.7,0,0,0,1183.834,420.671Z" transform="translate(-1174.992 -410.587)" fill="#044bd9"/>
            <path id="Caminho_6913" data-name="Caminho 6913" d="M1202.34,402.892c-.177-.429-.4-.678-.691-.671-.925.023-1.253,1.847-1.255,2.693-.007,2.952.178,5.841.247,8.75.039,1.66-.011,3.321.011,4.981a30.294,30.294,0,0,0,.3,4.992c.111.623.788,1.6,1.338.657a2,2,0,0,0,.206-.729c.479-3.263.228-6.6.307-9.9C1202.835,412.4,1203.27,405.15,1202.34,402.892Z" transform="translate(-1195.28 -402.22)" fill="#044bd9"/>
          </g>
        </g>
      </g>
      <path id="Caminho_6857" data-name="Caminho 6857" d="M719.659,650.154c-.014.136-.031.268-.047.4-.233,1.84-.58,3.7-.98,5.486-.051.237-.105.471-.16.7-.362,1.564-.762,3.062-1.155,4.424-.058.2-.117.4-.175.6-.685,2.315-1.331,4.191-1.724,5.28-.09.249-.385,1.039-.385,1.039a21.139,21.139,0,0,1-11.234.494l8.249-21.117a2.068,2.068,0,0,0,.113-.4,1.972,1.972,0,0,0,.027-.545,2.084,2.084,0,0,0-.125-.6c-1.027-2.759-8.121-20.852-8.121-20.852a29.95,29.95,0,0,1-1.794,4.945c-.085.2-.175.4-.265.6-.51,1.152-1.082,2.373-1.681,3.607-.086.179-.175.354-.261.529-1.121,2.272-2.319,4.541-3.385,6.385-.109.191-.218.378-.327.556-.261.444-.514.856-.751,1.233-.669,1.055-1.195,1.926-1.611,2.642-.1.171-.191.331-.272.482a12.457,12.457,0,0,0-1.269,2.6q-.175,1.465-.416,2.86c-.031.183-.062.366-.1.549-.358,1.992-.8,3.86-1.28,5.572-.047.16-.09.319-.136.475-.56,1.942-1.163,3.681-1.735,5.163-.066.167-.128.335-.195.494-.716,1.817-1.374,3.214-1.813,4.1-.093.187-.175.35-.249.494-.206.393-.323.6-.323.6-4.494,2.1-10.654-.759-10.654-.759a15.105,15.105,0,0,0,2.23-4.144c.039-.089.078-.179.117-.272.607-1.436,1.265-3.117,1.942-4.918.054-.148.109-.3.167-.444.681-1.821,8.4-23.467,8.483-23.72.724-2.226,3.922-12.825,3.961-12.957a1.525,1.525,0,0,1,.444-.646,13.758,13.758,0,0,1,4.93-2.249l.483-.14a40.544,40.544,0,0,1,8.156-1.393c.261-.012.518-.023.771-.031,2.712-.082,5,.272,6,1.3.778.805,1.6,2.762,2.346,5.272.056.187.113.37.167.56.428,1.451.845,3.066,1.237,4.728.062.261.126.525.187.786.5,2.138.946,4.327,1.339,6.35.031.167,1.525,8.568,1.525,8.568A37.422,37.422,0,0,1,719.659,650.154Z" transform="translate(-405.047 478.613)" fill="#044bd9"/>
      <path id="Caminho_6858" data-name="Caminho 6858" d="M860.185,471.331a2.466,2.466,0,0,1-2.713.686c-1.34-.484-3.629-1.74-7.216-4.9-.108-.094-.221-.188-.329-.287,0,0-2.318-4.565.174-8.218a.37.37,0,0,1,.531-.085c.216.174.559.461,1.048.9,1.138,1.02,3.061,2.868,5.994,6.055,0,0,1.678-6.869,2.506-9.859.094-.357.178-.657.249-.882l2.614.609s.029.33.052.9C863.227,459.061,863.349,467.721,860.185,471.331Z" transform="translate(-546.994 611.577)" fill="#0378e3"/>
      <path id="Caminho_6859" data-name="Caminho 6859" d="M910.818,424.63s1.54,1.355,2.614.609a6.529,6.529,0,0,1,.584-2.033c.488-1,1.633-3.033,1.587-3.849a1.648,1.648,0,0,0-.121-.432,1.613,1.613,0,0,0-.174-.324,1.516,1.516,0,0,0-.383-.389,1.49,1.49,0,0,0-.233-.128,1.673,1.673,0,0,0-.451-.131,2.587,2.587,0,0,0-.28-.022h-.1a.513.513,0,0,0-.451.292,12.993,12.993,0,0,1-1.537,2.579s.28-1.518-.093-1.82l-.327-.047a13.91,13.91,0,0,1-.656,2.685A4.552,4.552,0,0,0,910.818,424.63Z" transform="translate(-597.383 641.688)" fill="#f5a784"/>
      <path id="Caminho_6860" data-name="Caminho 6860" d="M921.838,420.615c-.009.016.013.031.022.019a6.7,6.7,0,0,0,1.618-2.679,2.581,2.581,0,0,0-.28-.022A9.9,9.9,0,0,1,921.838,420.615Z" transform="translate(-606.621 641.688)" fill="#e0855c"/>
      <path id="Caminho_6861" data-name="Caminho 6861" d="M925.395,421.686c-.009.012.013.028.025.019a6.687,6.687,0,0,0,1.652-2.806,1.5,1.5,0,0,0-.233-.128A10.333,10.333,0,0,1,925.395,421.686Z" transform="translate(-609.53 641.003)" fill="#e0855c"/>
      <path id="Caminho_6862" data-name="Caminho 6862" d="M928.952,424.428c-.009.012.012.028.025.019a6.785,6.785,0,0,0,1.562-2.514,1.5,1.5,0,0,0-.174-.324A10.278,10.278,0,0,1,928.952,424.428Z" transform="translate(-612.44 638.681)" fill="#e0855c"/>
      <path id="Caminho_6863" data-name="Caminho 6863" d="M918.05,434.917c.425.289.437,1.182.284,1.615-.021.059-.121.065-.12-.01a4.609,4.609,0,0,0-.027-.844,3.91,3.91,0,0,1-.17-.741C918.019,434.923,918.035,434.907,918.05,434.917Z" transform="translate(-603.498 627.797)" fill="#e0855c"/>
      <path id="Caminho_6864" data-name="Caminho 6864" d="M782.143,493.573s-.657-9.193-.7-9.893-1.182-7.485-1.751-8.624c-.489-.977-3.924-.02-5.352.021.288,1.466-.339,3.157.206,4.918.786,2.539-5.838-3.921-6.629-4.888-1.1-.052-3.331-.16-4.616.775-1.926,1.4-.112,5.3,1.026,13.312s-2.276,16.328-2.276,16.328a12.772,12.772,0,0,0,5.691.35c2.539-.613,5.122-2.014,8.054-1.62s8.186.788,10.2-1.751C786,502.5,782.1,496.462,782.143,493.573Z" transform="translate(-475.909 595.317)" fill="#0792f0"/>
      <path id="Caminho_6865" data-name="Caminho 6865" d="M800.281,462.245a84.273,84.273,0,0,0-5.988-7.755c.549.023.941.008,1.042-.226a9.606,9.606,0,0,0,.058-2.751c-.043-.681-.1-1.21-.1-1.21-.156-2.253,4.756.491,4.756.491a15.183,15.183,0,0,0-.222,2.015c-.019.731.054,1.411.366,1.584a1.11,1.11,0,0,0,.52.067C801,455.927,801.61,464.306,800.281,462.245Z" transform="translate(-502.285 615.934)" fill="#f5a784"/>
      <path id="Caminho_6866" data-name="Caminho 6866" d="M804.542,450.794a15.187,15.187,0,0,0-.222,2.015,3.745,3.745,0,0,1-4.436-1.3c-.043-.681-.1-1.21-.1-1.21C799.631,448.051,804.542,450.794,804.542,450.794Z" transform="translate(-506.775 615.934)" fill="#e0855c"/>
      <path id="Caminho_6867" data-name="Caminho 6867" d="M777.319,406.675a1.238,1.238,0,0,0,.533-2.1,1.237,1.237,0,0,0,1.1-1.769,11.314,11.314,0,0,0,3.012-2.212,1.238,1.238,0,0,0,2.147-.529,1.238,1.238,0,0,0,2.154.529,1.245,1.245,0,0,1,1.245,1.245,1.689,1.689,0,0,0,.217,0A53,53,0,0,0,790,404.575a1.332,1.332,0,0,0,.213,1.993,1.134,1.134,0,0,0,0,1.679,1.237,1.237,0,0,0-.974,1.906,82.552,82.552,0,0,1-1.514-3.762,1.145,1.145,0,0,0-.22-1.816,1.235,1.235,0,0,0-1.029-1.491,1.687,1.687,0,0,0-.217,0,1.238,1.238,0,0,0-2.154-.529,1.237,1.237,0,0,0-2.147.529,1.209,1.209,0,0,0-1.742.964,1.777,1.777,0,0,0-.413,2.627,1.231,1.231,0,0,1-.165.609,5.843,5.843,0,0,0,1.8,2.728,1.245,1.245,0,1,1-2.491,0,1.221,1.221,0,0,0-1.033-1.579,1.229,1.229,0,0,1,.165-.609A1.245,1.245,0,0,1,777.319,406.675Z" transform="translate(-488.399 656.305)" fill="#112545"/>
      <path id="Caminho_6868" data-name="Caminho 6868" d="M824.856,428.67c.226-.115.649-.146.813.09a.07.07,0,0,1-.06.1c-.112-.006-.211-.06-.324-.07a.915.915,0,0,0-.353.054A.1.1,0,0,1,824.856,428.67Z" transform="translate(-527.247 632.976)" fill="#112545"/>
      <path id="Caminho_6869" data-name="Caminho 6869" d="M806.773,429.335c.129-.321.689-.351.928-.152a.09.09,0,0,1-.039.15,2.061,2.061,0,0,1-.432,0,1.424,1.424,0,0,0-.346.109A.09.09,0,0,1,806.773,429.335Z" transform="translate(-512.489 632.588)" fill="#112545"/>
      <path id="Caminho_6870" data-name="Caminho 6870" d="M797.193,415.044s.1-4.552-1.078-5.16c-2.807-1.447-8.475.714-7.758,3.783s.975,2.209.975,2.209S796.963,415.438,797.193,415.044Z" transform="translate(-497.377 648.649)" fill="#112545"/>
      <path id="Caminho_6871" data-name="Caminho 6871" d="M833.458,435.3a.871.871,0,0,1,1.407,0c.7.844-.492,2.459-1.407,2.531A20.019,20.019,0,0,1,833.458,435.3Z" transform="translate(-534.285 627.786)" fill="#e0855c"/>
      <path id="Caminho_6872" data-name="Caminho 6872" d="M802.583,418.959c.467.486.506,1.577.545,2.783.118,3.65-.975,4.791-2.84,4.991s-3.815-.516-4.217-3.9c-.2-1.693-.415-3.256.2-3.987C797.19,417.755,801.149,417.468,802.583,418.959Z" transform="translate(-503.57 641.688)" fill="#f5a784"/>
      <path id="Caminho_6873" data-name="Caminho 6873" d="M790.435,437.926s-.571-1.512-1.471-.711.345,3.086,1.722,2.916C790.686,440.132,790.874,438.443,790.435,437.926Z" transform="translate(-497.675 626.106)" fill="#f5a784"/>
      <path id="Caminho_6874" data-name="Caminho 6874" d="M792.288,442.043a1.273,1.273,0,0,1,.547.357,1.538,1.538,0,0,1,.4.511c.024.061-.062.1-.1.06-.117-.109-.21-.239-.319-.356a.715.715,0,0,1-.264.209c-.083.031-.144-.072-.108-.14a.649.649,0,0,1,.218-.209,3.321,3.321,0,0,1-.435-.326A.064.064,0,0,1,792.288,442.043Z" transform="translate(-500.578 621.966)" fill="#e0855c"/>
      <path id="Caminho_6875" data-name="Caminho 6875" d="M826.122,434.439s.316.117.268-.441c-.043-.5-.268-.435-.268-.435s-.219,0-.186.438S826.122,434.439,826.122,434.439Z" transform="translate(-528.167 628.904)" fill="#112545"/>
      <path id="Caminho_6876" data-name="Caminho 6876" d="M808.543,434.439s.316.117.268-.441c-.043-.5-.268-.435-.268-.435s-.219,0-.186.438S808.543,434.439,808.543,434.439Z" transform="translate(-513.786 628.904)" fill="#112545"/>
      <path id="Caminho_6877" data-name="Caminho 6877" d="M818.863,434.082c.16-.024.526.071.6-.1a4.677,4.677,0,0,0-.231-1.138,14.376,14.376,0,0,1-.368-1.509.03.03,0,0,1,.056-.015,17.594,17.594,0,0,1,.732,2.757.079.079,0,0,1-.076.1c-.234,0-.462.046-.7.047C818.8,434.223,818.781,434.094,818.863,434.082Z" transform="translate(-522.342 630.75)" fill="#e0855c"/>
      <path id="Caminho_6878" data-name="Caminho 6878" d="M815.266,450.924a3.424,3.424,0,0,1-2.028.011,1.688,1.688,0,0,0,1.148.748C815.112,451.748,815.266,450.924,815.266,450.924Z" transform="translate(-517.782 614.7)" fill="#fff"/>
      <path id="Caminho_6879" data-name="Caminho 6879" d="M824.465,427.74c.217-.111.624-.14.782.086a.067.067,0,0,1-.058.1c-.108-.006-.2-.058-.312-.067a.88.88,0,0,0-.34.052A.1.1,0,0,1,824.465,427.74Z" transform="translate(-526.929 633.735)" fill="#112545"/>
      <path id="Caminho_6880" data-name="Caminho 6880" d="M805.821,427.816c.124-.308.662-.338.892-.147a.087.087,0,0,1-.038.144,1.989,1.989,0,0,1-.415,0,1.364,1.364,0,0,0-.333.1A.087.087,0,0,1,805.821,427.816Z" transform="translate(-511.711 633.822)" fill="#112545"/>
      <path id="Caminho_6881" data-name="Caminho 6881" d="M896.369,579.069s.893.061,1.994.253,3.512.64,4.286.368a2.022,2.022,0,0,0,.3-.256.714.714,0,0,0,.071-.081,2.033,2.033,0,0,0,.386-.67c.007-.021.016-.044.023-.068a2,2,0,0,0,.094-.714c0-.023,0-.045-.005-.068a2.878,2.878,0,0,0-.121-.673,15.47,15.47,0,0,1-3.2-.816s1.534-.15,1.724-.594l-.047-.327s-1.669-.027-2.411-.107a4.634,4.634,0,0,0-3.234,1.076S895.355,578.243,896.369,579.069Z" transform="translate(-585.387 512.959)" fill="#f5a784"/>
      <path id="Caminho_6882" data-name="Caminho 6882" d="M766.834,480.571c2.2,2.335,7.691,15.079,9.073,15.528,1.435.465,8.387,1.531,11.2,1.949.73.112,1.183.177,1.183.177a2.552,2.552,0,0,1,.652,3s-.6.035-1.573.064c-2.794.095-8.678.18-12.24-.565-1.781-.373-7.907-5.26-10.558-12.631C761.328,479.082,765.834,479.509,766.834,480.571Z" transform="translate(-477.025 590.897)" fill="#0378e3"/>
      <path id="Caminho_6883" data-name="Caminho 6883" d="M922.929,586.633c0-.023,0-.045-.005-.068a24.978,24.978,0,0,1-3.3-.6.021.021,0,0,0-.014.038A8.057,8.057,0,0,0,922.929,586.633Z" transform="translate(-604.795 504.226)" fill="#e0855c"/>
      <path id="Caminho_6884" data-name="Caminho 6884" d="M922.412,590.947c.007-.021.016-.044.023-.068a25.517,25.517,0,0,1-3.3-.592c-.021,0-.034.028-.013.035A7.973,7.973,0,0,0,922.412,590.947Z" transform="translate(-604.395 500.694)" fill="#e0855c"/>
      <path id="Caminho_6885" data-name="Caminho 6885" d="M920.925,595.1a.665.665,0,0,0,.071-.081,26.8,26.8,0,0,1-3.116-.574c-.021-.007-.034.025-.014.035A7.257,7.257,0,0,0,920.925,595.1Z" transform="translate(-603.365 497.297)" fill="#e0855c"/>
      <path id="Caminho_6830" data-name="Caminho 6830" d="M900.5,292.773a.3.3,0,0,1-.212-.516c1-.987,1.8-1.807,2.513-2.583a.3.3,0,0,1,.444.408c-.722.783-1.526,1.61-2.533,2.6A.3.3,0,0,1,900.5,292.773Zm4.86-5.352a.3.3,0,0,1-.239-.484,24.664,24.664,0,0,0,1.973-2.975.3.3,0,1,1,.526.294,25.267,25.267,0,0,1-2.02,3.048A.3.3,0,0,1,905.362,287.421Zm3.449-6.315a.3.3,0,0,1-.287-.394c.142-.441.265-.89.366-1.335a15.3,15.3,0,0,0,.321-2.137.305.305,0,0,1,.324-.277.3.3,0,0,1,.276.324,15.789,15.789,0,0,1-.334,2.222c-.1.463-.232.93-.38,1.387A.3.3,0,0,1,908.811,281.105Zm.591-7.148a.3.3,0,0,1-.3-.261,19.258,19.258,0,0,0-.806-3.463.3.3,0,1,1,.572-.19,19.789,19.789,0,0,1,.831,3.573.3.3,0,0,1-.258.339A.276.276,0,0,1,909.4,273.957Zm-2.239-6.84a.3.3,0,0,1-.267-.161q-.242-.459-.5-.9a23.772,23.772,0,0,0-1.406-2.108.3.3,0,0,1,.483-.361,24.522,24.522,0,0,1,1.441,2.162q.271.457.521.929a.3.3,0,0,1-.267.442Zm-4.307-5.778a.3.3,0,0,1-.213-.087,23.953,23.953,0,0,0-2.714-2.316.3.3,0,0,1,.355-.487,24.6,24.6,0,0,1,2.783,2.374.3.3,0,0,1-.212.515Zm-37.979-.623a.3.3,0,0,1,0-.6c1.2-.01,2.41-.07,3.587-.176a.3.3,0,0,1,.328.273.3.3,0,0,1-.273.328C867.322,260.645,866.1,260.71,864.877,260.715Zm-3.616-.112q-1.394-.1-2.761-.271-.44-.056-.878-.119a.3.3,0,1,1,.087-.6q.431.062.866.118c.9.114,1.809.2,2.707.267a.3.3,0,0,1-.021.6Zm10.809-.55a.3.3,0,0,1-.054-.6c1.186-.215,2.362-.484,3.5-.8a.3.3,0,0,1,.163.581c-1.153.323-2.348.6-3.552.815A.326.326,0,0,1,872.071,260.053Zm-17.962-.476a.288.288,0,0,1-.063-.007c-1.16-.249-2.348-.542-3.529-.872a.3.3,0,1,1,.163-.58c1.17.327,2.344.618,3.493.864a.3.3,0,0,1-.063.6Zm24.914-1.48a.3.3,0,0,1-.111-.582q.811-.319,1.607-.678c.6-.273,1.141-.539,1.646-.814a.3.3,0,1,1,.288.529c-.517.282-1.069.554-1.686.834q-.809.367-1.633.69A.3.3,0,0,1,879.023,258.1Zm-31.879-.461a.3.3,0,0,1-.1-.016c-1.122-.382-2.267-.806-3.406-1.26a.3.3,0,1,1,.223-.56c1.13.45,2.267.87,3.378,1.25a.3.3,0,0,1-.1.586Zm49.9-.561a.3.3,0,0,1-.144-.036c-.948-.513-1.975-1.011-3.232-1.568a.3.3,0,0,1,.245-.551c1.271.564,2.312,1.069,3.275,1.59a.3.3,0,0,1-.144.566Zm-56.623-2.108a.3.3,0,0,1-.124-.027c-1.075-.485-2.178-1.01-3.277-1.56a.3.3,0,0,1,.27-.539c1.092.547,2.187,1.068,3.255,1.55a.3.3,0,0,1-.124.576Zm44.851-.432a.3.3,0,0,1-.2-.524,10.673,10.673,0,0,0,.911-.932,8.947,8.947,0,0,0,1.216-1.83.3.3,0,0,1,.539.27c-.105.21-.218.415-.337.615,1.04.474,2.1.918,3.178,1.37a.3.3,0,1,1-.232.556c-1.112-.465-2.2-.922-3.274-1.412a9.309,9.309,0,0,1-.633.825,11.422,11.422,0,0,1-.962.984A.3.3,0,0,1,885.274,254.535Zm-1.354-3.525a.3.3,0,0,1-.15-.04,25.193,25.193,0,0,1-2.415-1.568q-.313-.232-.619-.477a.3.3,0,1,1,.378-.469c.2.159.4.313.6.462a24.634,24.634,0,0,0,2.358,1.529.3.3,0,0,1-.15.563Zm4.563-2.777a.309.309,0,0,1-.3-.336,10.58,10.58,0,0,0,.07-1.233,10.793,10.793,0,0,0-.24-2.265.3.3,0,0,1,.589-.127,11.414,11.414,0,0,1,.254,2.392,11.031,11.031,0,0,1-.075,1.3A.3.3,0,0,1,888.482,248.232Zm-10.039-1.857a.3.3,0,0,1-.25-.132,7.845,7.845,0,0,1-1.174-2.621,5.755,5.755,0,0,1-.13-.876.3.3,0,0,1,.6-.043,5.052,5.052,0,0,0,.116.783,7.226,7.226,0,0,0,1.085,2.418.3.3,0,0,1-.25.47Zm8.51-5.073a.3.3,0,0,1-.254-.139,8.856,8.856,0,0,0-1.107-1.406,7.481,7.481,0,0,0-1.306-1.075.3.3,0,1,1,.327-.506,8.082,8.082,0,0,1,1.412,1.162,9.408,9.408,0,0,1,1.183,1.5.3.3,0,0,1-.092.416A.3.3,0,0,1,886.953,241.3Zm-8.89-1.723a.3.3,0,0,1-.252-.467,4.31,4.31,0,0,1,2.2-1.753,4.231,4.231,0,0,1,1-.21.3.3,0,0,1,.327.274.3.3,0,0,1-.273.327,3.572,3.572,0,0,0-2.746,1.694A.3.3,0,0,1,878.064,239.58Z" transform="translate(-537.102 782.19)" fill="#999898"/>
    </g>
  </g>
</svg>
