<svg xmlns="http://www.w3.org/2000/svg" width="30.004" height="15.363" viewBox="0 0 30.004 15.363">
  <path id="Icon_metro-discout" data-name="Icon metro-discout" d="M32.515,17.352a4.728,4.728,0,0,1-2.94,4.475v2.246a.96.96,0,0,1-.959.96H6.411a.96.96,0,0,1-.96-.96V21.827a4.726,4.726,0,0,1-2.94-4.475,4.727,4.727,0,0,1,2.941-4.475V10.631a.959.959,0,0,1,.96-.96h22.2a.959.959,0,0,1,.959.96v2.246a4.727,4.727,0,0,1,2.939,4.475Zm-18.422,0H10.252v.96h3.841v-.96Zm4.56-3.274a1.61,1.61,0,0,0-2.225,0,1.983,1.983,0,0,0-.407,1.371,1.993,1.993,0,0,0,.407,1.376,1.079,1.079,0,0,0,.944.445,1.849,1.849,0,0,0,1.282-.445,2,2,0,0,0,.406-1.376,1.991,1.991,0,0,0-.407-1.371Zm3.266-.6-4.926,7.733h.976l4.9-7.733h-.951Zm1.534,4.436a1.613,1.613,0,0,0-2.226,0,1.989,1.989,0,0,0-.4,1.371,2,2,0,0,0,.4,1.376,1.444,1.444,0,0,0,1.126.446,1.414,1.414,0,0,0,1.1-.446,2,2,0,0,0,.406-1.376,1.994,1.994,0,0,0-.407-1.371Zm-1.124,2.45A.371.371,0,0,1,22,20.193a1.772,1.772,0,0,1-.155-.9A1.8,1.8,0,0,1,22,18.385a.368.368,0,0,1,.325-.171.379.379,0,0,1,.33.171,1.845,1.845,0,0,1,.15.906,1.8,1.8,0,0,1-.155.906.366.366,0,0,1-.325.171Zm-4.8-3.84a.37.37,0,0,1-.325-.175,1.772,1.772,0,0,1-.155-.9,1.8,1.8,0,0,1,.155-.906.367.367,0,0,1,.325-.17.38.38,0,0,1,.33.17,1.845,1.845,0,0,1,.15.906,1.8,1.8,0,0,1-.155.906A.369.369,0,0,1,17.528,16.528Z" transform="translate(-2.511 -9.671)" fill="#00a2ff"/>
</svg>
