<?xml version="1.0" encoding="UTF-8"?><svg xmlns="http://www.w3.org/2000/svg" viewBox="0 0 27.54 27.52"><defs><style>.h{fill:#fff;}.i{fill:#002395;}.j{fill:#ed2939;}</style></defs><g id="a"/><g id="b"><g id="c"><g id="d"><path id="e" class="j" d="M23.51,23.5c5.38-5.37,5.38-14.08,0-19.46-1.43-1.43-3.16-2.53-5.07-3.22V26.71c1.9-.68,3.63-1.78,5.06-3.21Z"/><path id="f" class="h" d="M9.09,26.71c3.02,1.08,6.33,1.08,9.35,0V.81C16.94,.28,15.36,0,13.77,0h0c-1.59,0-3.17,.28-4.67,.81V26.71Z"/><path id="g" class="i" d="M4.03,4.03c-5.38,5.37-5.38,14.09,0,19.46,1.43,1.43,3.16,2.53,5.07,3.22V.81c-1.9,.68-3.63,1.78-5.06,3.21Z"/></g></g></g></svg>