<svg xmlns="http://www.w3.org/2000/svg" width="48.034" height="46.068" viewBox="0 0 48.034 46.068"><defs><style>.a{fill:#dfe8f4;}.b{fill:#ccd8e5;}.c{fill:#2be005;}.d{fill:#00a2ff;}</style></defs><g transform="translate(-7.983 -9.932)"><path class="a" d="M13.23,47.52H50.77a.56.56,0,0,1,.56.56v3.68H12.68V48.07a.56.56,0,0,1,.55-.55Z"/><path class="a" d="M8.72,51.76H55.28a.56.56,0,0,1,.56.56V56H8.16V52.32a.56.56,0,0,1,.56-.56Z"/><path class="b" d="M55.49,26.09,33.17,10.31a2,2,0,0,0-2.34,0L8.51,26.09a1.27,1.27,0,0,0,.73,2.3H15.5V47.52h7.31V28.39h5.54V47.52h7.3V28.39h5.54V47.52H48.5V28.39h6.26a1.27,1.27,0,0,0,.73-2.3Z"/><rect class="a" width="3.65" height="17.28" transform="translate(19.16 30.24)"/><rect class="a" width="7.3" height="17.28" transform="translate(28.35 30.24)"/><path class="c" d="M55.49,26.09,33.17,10.31a2,2,0,0,0-2.34,0L8.51,26.09a1.27,1.27,0,0,0,.73,2.3h3.34l18.32-13a1.93,1.93,0,0,1,2.2,0l18.32,13h3.34a1.27,1.27,0,0,0,.73-2.3Z"/><rect class="a" width="3.65" height="17.28" transform="translate(44.84 30.24)"/><path class="d" d="M15,45.67H49a.41.41,0,0,1,.41.41v1.43H14.63V46.08a.41.41,0,0,1,.37-.41Z"/><path class="d" d="M15,28.39H49a.41.41,0,0,1,.41.41v1.43H14.63V28.8a.41.41,0,0,1,.37-.41Z" transform="translate(64 58.63) rotate(180)"/><rect class="b" width="38.65" height="2.12" transform="translate(12.68 49.64)"/><rect class="b" width="47.68" height="2.12" transform="translate(8.16 53.88)"/></g></svg>