<svg xmlns="http://www.w3.org/2000/svg" xmlns:xlink="http://www.w3.org/1999/xlink" width="773" height="161.742" viewBox="0 0 773 161.742">
  <defs>
    <clipPath id="clip-path">
      <rect id="Retângulo_2121" data-name="Retângulo 2121" width="773" height="160" rx="7" transform="translate(454 156)" fill="#fff"/>
    </clipPath>
    <linearGradient id="linear-gradient" x1="0.5" x2="0.5" y2="0.732" gradientUnits="objectBoundingBox">
      <stop offset="0" stop-color="#044bd9"/>
      <stop offset="1" stop-color="#00a2ff"/>
    </linearGradient>
  </defs>
  <g id="Grupo_5232" data-name="Grupo 5232" transform="translate(-454 -154.258)">
    <g id="Grupo_5231" data-name="Grupo 5231">
      <rect id="Retângulo_2081" data-name="Retângulo 2081" width="773" height="160" rx="7" transform="translate(454 156)" fill="#fff"/>
      <g id="Grupo_de_máscara_32" data-name="Grupo de máscara 32" clip-path="url(#clip-path)">
        <circle id="Elipse_334" data-name="Elipse 334" cx="208.5" cy="208.5" r="208.5" transform="translate(927.364 239.5) rotate(135)" fill="url(#linear-gradient)"/>
      </g>
    </g>
    <g id="OBJECTS" transform="translate(823 154.258)">
      <g id="Grupo_21" data-name="Grupo 21" transform="translate(98.092)">
        <g id="Grupo_14" data-name="Grupo 14" transform="translate(20.783)">
          <circle id="Elipse_5" data-name="Elipse 5" cx="27.65" cy="27.65" r="27.65" transform="translate(2.916 2.916)" fill="#1b1b25"/>
          <circle id="Elipse_6" data-name="Elipse 6" cx="27.65" cy="27.65" r="27.65" fill="#11f215"/>
          <path id="Caminho_17" data-name="Caminho 17" d="M347.953,133.834a22.269,22.269,0,1,1,22.269-22.269A22.294,22.294,0,0,1,347.953,133.834Zm0-43.095a20.826,20.826,0,1,0,20.826,20.826A20.849,20.849,0,0,0,347.953,90.739Z" transform="translate(-320.303 -83.861)" fill="#fcf0e3"/>
          <g id="Grupo_13" data-name="Grupo 13" transform="translate(18.458 13.489)">
            <g id="Grupo_12" data-name="Grupo 12">
              <path id="Caminho_18" data-name="Caminho 18" d="M360.429,130.235a15.779,15.779,0,0,1-4.022-1.042,15.3,15.3,0,0,1-3.542-2l2.5-3.653a19.2,19.2,0,0,0,2.548,1.65,9.688,9.688,0,0,0,2.677.945v-5.1a22.05,22.05,0,0,1-3.029-1.058,7.586,7.586,0,0,1-2.148-1.378,5.234,5.234,0,0,1-1.282-1.875,6.6,6.6,0,0,1-.433-2.484v-.064a5.973,5.973,0,0,1,.481-2.435,5.561,5.561,0,0,1,1.362-1.891,6.954,6.954,0,0,1,2.131-1.3,10.429,10.429,0,0,1,2.757-.657v-1.859h3.333v1.923a13.384,13.384,0,0,1,5.961,2.371l-2.147,3.75a18.365,18.365,0,0,0-1.955-1.137,9.9,9.9,0,0,0-2.019-.753v4.84a12.2,12.2,0,0,1,5.3,2.6,5.711,5.711,0,0,1,1.651,4.295v.064a5.807,5.807,0,0,1-.5,2.436,5.748,5.748,0,0,1-1.379,1.891,7.171,7.171,0,0,1-2.131,1.314,10.039,10.039,0,0,1-2.788.673v3.173h-3.333Zm.16-18.333a2.9,2.9,0,0,0-1.683.689,1.764,1.764,0,0,0-.529,1.3v.064a1.89,1.89,0,0,0,.449,1.266,4.294,4.294,0,0,0,1.763,1.01Zm3.013,14.39q2.275-.352,2.275-2.051v-.064a1.946,1.946,0,0,0-.481-1.362,4.631,4.631,0,0,0-1.795-1.01Z" transform="translate(-352.865 -106.037)" fill="#1b1b25"/>
            </g>
          </g>
        </g>
        <g id="Grupo_17" data-name="Grupo 17" transform="translate(20.783)">
          <circle id="Elipse_7" data-name="Elipse 7" cx="27.65" cy="27.65" r="27.65" transform="translate(2.916 2.916)" fill="#1b1b25"/>
          <circle id="Elipse_8" data-name="Elipse 8" cx="27.65" cy="27.65" r="27.65" fill="#11f215"/>
          <path id="Caminho_19" data-name="Caminho 19" d="M347.953,133.834a22.269,22.269,0,1,1,22.269-22.269A22.294,22.294,0,0,1,347.953,133.834Zm0-43.095a20.826,20.826,0,1,0,20.826,20.826A20.849,20.849,0,0,0,347.953,90.739Z" transform="translate(-320.303 -83.861)" fill="#fcf0e3"/>
          <g id="Grupo_16" data-name="Grupo 16" transform="translate(18.458 13.489)">
            <g id="Grupo_15" data-name="Grupo 15">
              <path id="Caminho_20" data-name="Caminho 20" d="M360.429,130.235a15.779,15.779,0,0,1-4.022-1.042,15.3,15.3,0,0,1-3.542-2l2.5-3.653a19.2,19.2,0,0,0,2.548,1.65,9.688,9.688,0,0,0,2.677.945v-5.1a22.05,22.05,0,0,1-3.029-1.058,7.586,7.586,0,0,1-2.148-1.378,5.234,5.234,0,0,1-1.282-1.875,6.6,6.6,0,0,1-.433-2.484v-.064a5.973,5.973,0,0,1,.481-2.435,5.561,5.561,0,0,1,1.362-1.891,6.954,6.954,0,0,1,2.131-1.3,10.429,10.429,0,0,1,2.757-.657v-1.859h3.333v1.923a13.384,13.384,0,0,1,5.961,2.371l-2.147,3.75a18.365,18.365,0,0,0-1.955-1.137,9.9,9.9,0,0,0-2.019-.753v4.84a12.2,12.2,0,0,1,5.3,2.6,5.711,5.711,0,0,1,1.651,4.295v.064a5.807,5.807,0,0,1-.5,2.436,5.748,5.748,0,0,1-1.379,1.891,7.171,7.171,0,0,1-2.131,1.314,10.039,10.039,0,0,1-2.788.673v3.173h-3.333Zm.16-18.333a2.9,2.9,0,0,0-1.683.689,1.764,1.764,0,0,0-.529,1.3v.064a1.89,1.89,0,0,0,.449,1.266,4.294,4.294,0,0,0,1.763,1.01Zm3.013,14.39q2.275-.352,2.275-2.051v-.064a1.946,1.946,0,0,0-.481-1.362,4.631,4.631,0,0,0-1.795-1.01Z" transform="translate(-352.865 -106.037)" fill="#08730a"/>
            </g>
          </g>
        </g>
        <g id="Grupo_20" data-name="Grupo 20" transform="translate(7.052 1.022)">
          <circle id="Elipse_9" data-name="Elipse 9" cx="12.511" cy="12.511" r="12.511" transform="translate(1.32 1.32)" fill="#1b1b25"/>
          <circle id="Elipse_10" data-name="Elipse 10" cx="12.511" cy="12.511" r="12.511" fill="#11f215"/>
          <path id="Caminho_21" data-name="Caminho 21" d="M301.1,105.389a10.076,10.076,0,1,1,10.076-10.076A10.088,10.088,0,0,1,301.1,105.389Zm0-19.5a9.423,9.423,0,1,0,9.423,9.423A9.434,9.434,0,0,0,301.1,85.889Z" transform="translate(-288.587 -82.777)" fill="#fcf0e3"/>
          <g id="Grupo_19" data-name="Grupo 19" transform="translate(8.353 6.103)">
            <g id="Grupo_18" data-name="Grupo 18">
              <path id="Caminho_22" data-name="Caminho 22" d="M306.744,103.76a7.152,7.152,0,0,1-1.82-.471,6.912,6.912,0,0,1-1.6-.906l1.131-1.653a8.72,8.72,0,0,0,1.153.747,4.394,4.394,0,0,0,1.211.428V99.6a9.982,9.982,0,0,1-1.371-.479,3.44,3.44,0,0,1-.971-.624,2.375,2.375,0,0,1-.58-.848,3,3,0,0,1-.2-1.124v-.029a2.7,2.7,0,0,1,.218-1.1,2.523,2.523,0,0,1,.616-.856,3.147,3.147,0,0,1,.965-.587,4.707,4.707,0,0,1,1.247-.3v-.841h1.508v.87a6.059,6.059,0,0,1,2.7,1.073l-.971,1.7a8.41,8.41,0,0,0-.885-.515,4.478,4.478,0,0,0-.914-.341v2.19a5.523,5.523,0,0,1,2.4,1.174,2.586,2.586,0,0,1,.747,1.943v.029a2.629,2.629,0,0,1-.225,1.1,2.6,2.6,0,0,1-.624.856,3.256,3.256,0,0,1-.964.595,4.553,4.553,0,0,1-1.261.3v1.436h-1.508Zm.073-8.295a1.307,1.307,0,0,0-.762.312.8.8,0,0,0-.239.587v.029a.854.854,0,0,0,.2.573,1.938,1.938,0,0,0,.8.457Zm1.363,6.511q1.03-.16,1.03-.928v-.029a.881.881,0,0,0-.218-.617,2.094,2.094,0,0,0-.812-.457Z" transform="translate(-303.322 -92.811)" fill="#08730a"/>
            </g>
          </g>
        </g>
        <path id="Caminho_23" data-name="Caminho 23" d="M276.737,141.1h0a5.433,5.433,0,0,0-5.433-5.433h0a5.433,5.433,0,0,0,5.433-5.433h0a5.433,5.433,0,0,0,5.433,5.433h0A5.433,5.433,0,0,0,276.737,141.1Z" transform="translate(-271.304 -105.105)" fill="#fff"/>
        <path id="Caminho_24" data-name="Caminho 24" d="M410.951,200.99h0a3.99,3.99,0,0,0-3.99-3.99h0a3.99,3.99,0,0,0,3.99-3.99h0a3.99,3.99,0,0,0,3.99,3.99h0A3.99,3.99,0,0,0,410.951,200.99Z" transform="translate(-341.693 -137.676)" fill="#fff"/>
        <path id="Caminho_25" data-name="Caminho 25" d="M353.136,233.71h0a7.337,7.337,0,0,0-7.337-7.337h0a7.337,7.337,0,0,0,7.337-7.337h0a7.337,7.337,0,0,0,7.337,7.337h0A7.337,7.337,0,0,0,353.136,233.71Z" transform="translate(-309.958 -151.18)" fill="#fff"/>
        <path id="Caminho_26" data-name="Caminho 26" d="M406.281,117.047h0a6.876,6.876,0,0,0-6.876-6.876h0a6.876,6.876,0,0,0,6.876-6.875h0a6.875,6.875,0,0,0,6.875,6.875h0A6.875,6.875,0,0,0,406.281,117.047Z" transform="translate(-337.772 -91.125)" fill="#fcf0e3"/>
        <path id="Caminho_27" data-name="Caminho 27" d="M457.376,133.35h0a3.792,3.792,0,0,0-3.792-3.793h0a3.792,3.792,0,0,0,3.792-3.793h0a3.793,3.793,0,0,0,3.793,3.793h0A3.793,3.793,0,0,0,457.376,133.35Z" transform="translate(-365.884 -102.784)" fill="#fff"/>
      </g>
      <g id="Grupo_33" data-name="Grupo 33" transform="translate(0 12.352)">
        <path id="Caminho_28" data-name="Caminho 28" d="M165.876,115.229H123.632a7.867,7.867,0,0,0,0,15.733h34.813l4.79,4.364v-4.364h2.64a7.867,7.867,0,0,0,0-15.733Z" transform="translate(-92.507 -109.669)" fill="#044bd9"/>
        <path id="Caminho_29" data-name="Caminho 29" d="M133.329,124.567a2.494,2.494,0,1,0-3.184,0,4.622,4.622,0,0,0-3.033,4.337c0,2.554,9.25,2.554,9.25,0A4.622,4.622,0,0,0,133.329,124.567Z" transform="translate(-98.394 -112.225)" fill="#11f215"/>
        <g id="Grupo_22" data-name="Grupo 22" transform="translate(43.387 9.308)">
          <path id="Caminho_30" data-name="Caminho 30" d="M188.112,123.5h-30.27a.241.241,0,1,1,0-.481h30.27a.241.241,0,0,1,0,.481Z" transform="translate(-157.602 -123.019)" fill="#fff"/>
          <path id="Caminho_31" data-name="Caminho 31" d="M183.416,138.262H157.843a.241.241,0,1,1,0-.481h25.574a.241.241,0,1,1,0,.481Z" transform="translate(-157.602 -130.679)" fill="#fff"/>
          <path id="Caminho_32" data-name="Caminho 32" d="M176.452,131.348H157.843a.241.241,0,1,1,0-.481h18.609a.241.241,0,1,1,0,.481Z" transform="translate(-157.602 -127.091)" fill="#fff"/>
          <path id="Caminho_33" data-name="Caminho 33" d="M210.684,131.348h-9.34a.241.241,0,1,1,0-.481h9.34a.241.241,0,0,1,0,.481Z" transform="translate(-180.174 -127.091)" fill="#fff"/>
        </g>
        <path id="Caminho_34" data-name="Caminho 34" d="M140.211,130.968a.719.719,0,0,1-.51-.212l-1.813-1.813a.722.722,0,0,1,1.02-1.02l1.3,1.3,3.5-3.5a.722.722,0,0,1,1.02,1.02l-4.01,4.01A.72.72,0,0,1,140.211,130.968Z" transform="translate(-103.876 -115.006)" fill="#fff"/>
        <g id="Grupo_28" data-name="Grupo 28" transform="translate(253.702 46.528)">
          <path id="Caminho_35" data-name="Caminho 35" d="M602.8,200.38h43.34a8.071,8.071,0,1,1,0,16.142H610.426L605.512,221v-4.478H602.8a8.071,8.071,0,1,1,0-16.142Z" transform="translate(-594.732 -200.38)" fill="#11f215"/>
          <g id="Grupo_26" data-name="Grupo 26" transform="translate(44.225 2.472)">
            <g id="Grupo_25" data-name="Grupo 25">
              <g id="Grupo_24" data-name="Grupo 24">
                <path id="Caminho_36" data-name="Caminho 36" d="M692.868,209.93a2.494,2.494,0,1,0-3.184,0,4.622,4.622,0,0,0-3.033,4.337c0,2.554,9.25,2.554,9.25,0A4.622,4.622,0,0,0,692.868,209.93Z" transform="translate(-686.651 -205.517)" fill="#044bd9"/>
                <g id="Grupo_23" data-name="Grupo 23" transform="translate(5.832 4.372)">
                  <path id="Caminho_37" data-name="Caminho 37" d="M702.956,216.032h-1.195v-1.195a.235.235,0,0,0-.235-.235h-1.09a.235.235,0,0,0-.235.235v1.195h-1.194a.234.234,0,0,0-.235.234v1.09a.234.234,0,0,0,.235.234H700.2v1.195a.235.235,0,0,0,.235.234h1.09a.234.234,0,0,0,.235-.234v-1.195h1.195a.234.234,0,0,0,.234-.234v-1.09A.234.234,0,0,0,702.956,216.032Z" transform="translate(-698.773 -214.603)" fill="#fff"/>
                </g>
              </g>
            </g>
          </g>
          <g id="Grupo_27" data-name="Grupo 27" transform="translate(9.929 4.332)">
            <path id="Caminho_38" data-name="Caminho 38" d="M645.879,209.864H615.611a.241.241,0,1,1,0-.481h30.269a.241.241,0,1,1,0,.481Z" transform="translate(-615.37 -209.383)" fill="#fff"/>
            <path id="Caminho_39" data-name="Caminho 39" d="M641.183,224.626H615.611a.241.241,0,1,1,0-.481h25.573a.241.241,0,0,1,0,.481Z" transform="translate(-615.37 -217.043)" fill="#fff"/>
            <path id="Caminho_40" data-name="Caminho 40" d="M634.219,217.712H615.611a.241.241,0,1,1,0-.481h18.609a.241.241,0,1,1,0,.481Z" transform="translate(-615.37 -213.455)" fill="#fff"/>
            <path id="Caminho_41" data-name="Caminho 41" d="M668.451,217.712h-9.34a.241.241,0,0,1,0-.481h9.34a.241.241,0,0,1,0,.481Z" transform="translate(-637.941 -213.455)" fill="#fff"/>
          </g>
        </g>
        <g id="Grupo_30" data-name="Grupo 30" transform="translate(201.735)">
          <path id="Caminho_42" data-name="Caminho 42" d="M492.281,103.673h29.856a5.56,5.56,0,1,1,0,11.12H492.281a5.56,5.56,0,1,1,0-11.12Z" transform="translate(-486.721 -103.673)" fill="#044bd9"/>
          <g id="Grupo_29" data-name="Grupo 29" transform="translate(8.657 3.25)">
            <path id="Caminho_43" data-name="Caminho 43" d="M528.1,110.909H504.954a.241.241,0,0,1,0-.481H528.1a.241.241,0,1,1,0,.481Z" transform="translate(-504.714 -110.428)" fill="#fff"/>
            <path id="Caminho_44" data-name="Caminho 44" d="M524.511,119.651H504.954a.241.241,0,0,1,0-.481h19.557a.241.241,0,1,1,0,.481Z" transform="translate(-504.714 -114.964)" fill="#fff"/>
            <path id="Caminho_45" data-name="Caminho 45" d="M519.186,115.556H504.954a.241.241,0,0,1,0-.481h14.231a.241.241,0,1,1,0,.481Z" transform="translate(-504.714 -112.839)" fill="#fff"/>
            <path id="Caminho_46" data-name="Caminho 46" d="M545.364,115.556h-7.142a.241.241,0,1,1,0-.481h7.142a.241.241,0,1,1,0,.481Z" transform="translate(-521.975 -112.839)" fill="#fff"/>
          </g>
        </g>
        <g id="Grupo_32" data-name="Grupo 32" transform="translate(0 78.823)">
          <path id="Caminho_47" data-name="Caminho 47" d="M72.367,267.5H98.914a4.944,4.944,0,1,1,0,9.888H72.367a4.944,4.944,0,0,1,0-9.888Z" transform="translate(-67.423 -267.504)" fill="#11f215"/>
          <g id="Grupo_31" data-name="Grupo 31" transform="translate(7.671 2.863)">
            <path id="Caminho_48" data-name="Caminho 48" d="M104.19,273.936H83.608a.241.241,0,0,1,0-.481H104.19a.241.241,0,0,1,0,.481Z" transform="translate(-83.367 -273.455)" fill="#fff"/>
            <path id="Caminho_49" data-name="Caminho 49" d="M101,281.709H83.608a.241.241,0,1,1,0-.481H101a.241.241,0,1,1,0,.481Z" transform="translate(-83.367 -277.488)" fill="#fff"/>
            <path id="Caminho_50" data-name="Caminho 50" d="M96.261,278.068H83.608a.241.241,0,1,1,0-.481H96.261a.241.241,0,1,1,0,.481Z" transform="translate(-83.367 -275.599)" fill="#fff"/>
            <path id="Caminho_51" data-name="Caminho 51" d="M119.538,278.068h-6.351a.241.241,0,1,1,0-.481h6.351a.241.241,0,1,1,0,.481Z" transform="translate(-98.715 -275.599)" fill="#fff"/>
          </g>
        </g>
      </g>
      <g id="Grupo_36" data-name="Grupo 36" transform="translate(100.401 117.426)">
        <g id="Grupo_34" data-name="Grupo 34" transform="translate(53.346)">
          <path id="Caminho_52" data-name="Caminho 52" d="M434.388,322.547H387.221a.241.241,0,0,1,0-.481h47.168a.241.241,0,1,1,0,.481Z" transform="translate(-386.98 -322.066)" fill="#fff"/>
          <path id="Caminho_53" data-name="Caminho 53" d="M442.28,345.551H402.43a.241.241,0,1,1,0-.481h39.85a.241.241,0,1,1,0,.481Z" transform="translate(-394.871 -334.002)" fill="#fff"/>
          <path id="Caminho_54" data-name="Caminho 54" d="M453.983,334.777h-29a.241.241,0,0,1,0-.481h29a.241.241,0,1,1,0,.481Z" transform="translate(-406.575 -328.412)" fill="#fff"/>
          <path id="Caminho_55" data-name="Caminho 55" d="M401.774,334.777H387.221a.241.241,0,0,1,0-.481h14.553a.241.241,0,0,1,0,.481Z" transform="translate(-386.98 -328.412)" fill="#fff"/>
        </g>
        <g id="Grupo_35" data-name="Grupo 35" transform="translate(0 17.556)">
          <path id="Caminho_56" data-name="Caminho 56" d="M323.51,359.037H276.343a.241.241,0,0,1,0-.481H323.51a.241.241,0,0,1,0,.481Z" transform="translate(-276.102 -358.556)" fill="#fff"/>
          <path id="Caminho_57" data-name="Caminho 57" d="M316.192,382.04h-39.85a.241.241,0,1,1,0-.481h39.85a.241.241,0,1,1,0,.481Z" transform="translate(-276.102 -370.492)" fill="#fff"/>
          <path id="Caminho_58" data-name="Caminho 58" d="M305.34,371.266h-29a.241.241,0,1,1,0-.481h29a.241.241,0,1,1,0,.481Z" transform="translate(-276.102 -364.901)" fill="#fff"/>
          <path id="Caminho_59" data-name="Caminho 59" d="M358.683,371.266H344.129a.241.241,0,1,1,0-.481h14.554a.241.241,0,1,1,0,.481Z" transform="translate(-311.275 -364.901)" fill="#fff"/>
        </g>
      </g>
      <g id="Grupo_58" data-name="Grupo 58" transform="translate(159.704 31.879)">
        <g id="Grupo_42" data-name="Grupo 42" transform="translate(0 7.554)">
          <g id="Grupo_41" data-name="Grupo 41">
            <g id="Grupo_40" data-name="Grupo 40">
              <g id="Grupo_38" data-name="Grupo 38">
                <path id="Caminho_60" data-name="Caminho 60" d="M423.028,211.289l.016-.055L430.01,187l-.03-.023a8.7,8.7,0,0,1,2.787-3.087,8.067,8.067,0,0,0,3.215-5.322c1.533-1.484,3.262-2.75,4.827-4.2a1.112,1.112,0,0,0,.382-.535.933.933,0,0,0-.2-.7,2.765,2.765,0,0,0-3.529-.817,8.629,8.629,0,0,0-1.977,1.291,9.849,9.849,0,0,0-1.568,1.34l5.541-11.831a1.971,1.971,0,0,0-.715-2.664h0a1.647,1.647,0,0,0-1.4.028,2.228,2.228,0,0,0-.771.614l.027-.138c-6.49-5.457-14.5,13.117-14.5,13.117l-2.273,5.362-19.274,35.737a10.384,10.384,0,0,0,4.641,14.164h0c.076.037.153.069.229.1a10.467,10.467,0,0,0,5.25,1.4h37.932l8.174-19.426Zm10.807-36.158Z" transform="translate(-399.362 -159.959)" fill="#fec29e"/>
                <g id="Grupo_37" data-name="Grupo 37" transform="translate(16.497 51.275)">
                  <path id="Caminho_61" data-name="Caminho 61" d="M445.243,274.512l-.971,3.378C444.625,276.722,444.956,275.578,445.243,274.512Z" transform="translate(-439.162 -270.673)" fill="#fff"/>
                  <path id="Caminho_62" data-name="Caminho 62" d="M434.324,307.265Z" transform="translate(-433.651 -287.657)" fill="#ff887c" opacity="0.17"/>
                  <path id="Caminho_63" data-name="Caminho 63" d="M435.063,307.287l.311.01Z" transform="translate(-434.384 -287.679)" fill="#ff887c" opacity="0.17"/>
                  <path id="Caminho_64" data-name="Caminho 64" d="M441.9,266.532l-1.1,3.839c-.287,1.066-.618,2.21-.971,3.378l-1.334,4.64a10.442,10.442,0,0,1-.691,1.693c-1.148,3.435-2.095,6.068-2.095,6.068l13.641-19.533C445.957,266.617,445.178,266.536,441.9,266.532Z" transform="translate(-434.719 -266.532)" fill="#ff887c" opacity="0.17"/>
                  <path id="Caminho_65" data-name="Caminho 65" d="M435.049,307.287h0Z" transform="translate(-434.376 -287.679)" fill="#ff887c" opacity="0.17"/>
                </g>
                <path id="Caminho_66" data-name="Caminho 66" d="M459.74,191.082a.24.24,0,0,1-.193-.383,4.408,4.408,0,0,1,5.708-1.491.241.241,0,0,1-.235.42,3.879,3.879,0,0,0-5.086,1.357A.239.239,0,0,1,459.74,191.082Z" transform="translate(-430.566 -174.878)" fill="#fb8e77"/>
                <path id="Caminho_67" data-name="Caminho 67" d="M471.764,161.982a36.715,36.715,0,0,0-2.755,3.964,17.969,17.969,0,0,0-1.095,2.132,5.253,5.253,0,0,0-.515,2.24v.015a.241.241,0,0,1-.481.026v-.006a5.636,5.636,0,0,1,.6-2.445,18.379,18.379,0,0,1,1.164-2.161,37.11,37.11,0,0,1,2.863-3.948.144.144,0,0,1,.223.18Z" transform="translate(-434.415 -160.887)" fill="#fb8e77"/>
                <path id="Caminho_68" data-name="Caminho 68" d="M467.743,160.508a9.046,9.046,0,0,0-1.714,1.617,14.384,14.384,0,0,0-1.362,1.95,17.315,17.315,0,0,0-1.04,2.143c-.157.365-.275.747-.414,1.119l-.345,1.142,0,.014a.24.24,0,0,1-.46-.139v0l.375-1.161c.15-.379.277-.765.445-1.137a17.644,17.644,0,0,1,1.108-2.175,14.733,14.733,0,0,1,1.436-1.975,9.3,9.3,0,0,1,1.821-1.648.149.149,0,0,1,.167.247Z" transform="translate(-432.067 -160.098)" fill="#fb8e77"/>
                <path id="Caminho_69" data-name="Caminho 69" d="M463.1,160.933a23.442,23.442,0,0,0-2.519,3.113,13.36,13.36,0,0,0-.993,1.723,7.049,7.049,0,0,0-.607,1.848v.006a.241.241,0,1,1-.475-.075v-.006a7.476,7.476,0,0,1,.7-1.962,13.78,13.78,0,0,1,1.066-1.749,23.7,23.7,0,0,1,2.637-3.1.14.14,0,0,1,.2.2Z" transform="translate(-430.049 -160.34)" fill="#fb8e77"/>
              </g>
              <g id="Grupo_39" data-name="Grupo 39" transform="translate(33.862 51.26)">
                <path id="Caminho_70" data-name="Caminho 70" d="M547.093,301.855l-9.3-25.363c-1.108-5.566-6.4-9.785-12.772-9.785l-25.991-.207-29.283.112v19.522h9.088l-4.69,50.915,64.481.365-.362-34.477Z" transform="translate(-469.743 -266.5)" fill="#044bd9"/>
                <path id="Caminho_71" data-name="Caminho 71" d="M497.381,337.332" transform="translate(-484.084 -303.253)" fill="#fff" stroke="#fb8e77" stroke-linecap="round" stroke-width="1"/>
              </g>
              <path id="Caminho_72" data-name="Caminho 72" d="M498.975,266.717l.051-.217-29.283.112v19.522h9.088l.048-.515C478.878,275.315,487.835,266.943,498.975,266.717Z" transform="translate(-435.881 -215.24)" fill="#1b1b25" opacity="0.05"/>
              <path id="Caminho_73" data-name="Caminho 73" d="M453.584,208.238s1.643,13.959,1.74,13.624l2.82-9.809Z" transform="translate(-427.496 -185.01)" fill="#ff887c" opacity="0.18"/>
            </g>
          </g>
        </g>
        <g id="Grupo_45" data-name="Grupo 45" transform="translate(46.473 77.803)">
          <g id="Grupo_43" data-name="Grupo 43">
            <path id="Caminho_74" data-name="Caminho 74" d="M513.952,329.622l-2.461-12.4-1.9-9.569a2.092,2.092,0,0,0-2.453-1.64l-9.5,1.886a2.092,2.092,0,0,0-1.641,2.453l1.911,9.631,1.516,7.639.932,4.7a2.093,2.093,0,0,0,2.453,1.641l5.614-1.114,3.891-.772A2.093,2.093,0,0,0,513.952,329.622Z" transform="translate(-495.954 -305.97)" fill="#021f59"/>
          </g>
          <g id="Grupo_44" data-name="Grupo 44" transform="translate(0.406 11.249)">
            <path id="Caminho_75" data-name="Caminho 75" d="M564.983,353.184,560.7,334.52,541.209,336.9l1.07,4.748-.1-.025L521,336.383l-.018.026a7.091,7.091,0,0,1-2.648-2.434,6.341,6.341,0,0,0-4.76-2.728c-.575-.6-1.11-1.246-1.64-1.9l.5,2.5-.124.065a8.023,8.023,0,0,1-4.386.911L498.6,332.1a1.418,1.418,0,0,0-1.393.792c-2.727,5.731,8.98,10.975,11.651,12.083h0l.094.038.109.045.1.041.085.035.08.031.031.012.04.015,4.582,1.718,36.27,17.853a10.479,10.479,0,0,0,1.021.424,9.051,9.051,0,0,0,5.814.6h0A10.52,10.52,0,0,0,564.983,353.184Z" transform="translate(-496.798 -329.351)" fill="#fec29e"/>
            <path id="Caminho_76" data-name="Caminho 76" d="M611.5,355.313,589.1,345.05c.748,3.257.312,1.82.971,4.723l1.524.377C598.048,350.585,611.5,355.313,611.5,355.313Z" transform="translate(-544.694 -337.497)" fill="#ff887c" opacity="0.17"/>
          </g>
          <path id="Caminho_77" data-name="Caminho 77" d="M582.067,330.416a.24.24,0,0,1-.235-.192l-2.8-13.552a.241.241,0,0,1,.471-.1l2.753,13.335,9.423-1.2a.241.241,0,1,1,.061.477l-9.644,1.227Z" transform="translate(-539.06 -311.372)" fill="#1b1b25" opacity="0.35"/>
        </g>
        <g id="Grupo_46" data-name="Grupo 46" transform="translate(113.682 106.868)">
          <path id="Caminho_78" data-name="Caminho 78" d="M635.963,367.984l.038.192Z" transform="translate(-635.81 -367.213)" fill="#ff887c" opacity="0.17"/>
          <path id="Caminho_79" data-name="Caminho 79" d="M636.042,368.383c0,.012,0,.013,0,0Z" transform="translate(-635.851 -367.42)" fill="#ff887c" opacity="0.17"/>
          <path id="Caminho_80" data-name="Caminho 80" d="M635.646,366.381s.052.262.1.514C635.721,366.758,635.688,366.6,635.646,366.381Z" transform="translate(-635.646 -366.381)" fill="#ff887c" opacity="0.17"/>
          <path id="Caminho_81" data-name="Caminho 81" d="M635.857,367.45l.051.257Z" transform="translate(-635.756 -366.936)" fill="#ff887c" opacity="0.17"/>
        </g>
        <g id="Grupo_57" data-name="Grupo 57" transform="translate(52.446)">
          <g id="Grupo_48" data-name="Grupo 48">
            <path id="Caminho_82" data-name="Caminho 82" d="M543.2,153.031a7.665,7.665,0,0,0-11.459-5.525,6.75,6.75,0,0,0-10.47-1.341,8.91,8.91,0,0,0-9.876,14.656L509.58,170.5a5.118,5.118,0,0,0,4.089,5.973l21.47,4.019a5.119,5.119,0,0,0,5.973-4.09l3.517-18.789A5.113,5.113,0,0,0,543.2,153.031Z" transform="translate(-508.368 -144.259)" fill="#044bd9"/>
            <g id="Grupo_47" data-name="Grupo 47" transform="translate(1.938 3.908)">
              <path id="Caminho_83" data-name="Caminho 83" d="M513.994,162.538a.242.242,0,0,1-.2-.112,7.218,7.218,0,0,1,1.5-10,.24.24,0,0,1,.281.391c-.2.147-4.964,3.671-1.375,9.352a.24.24,0,0,1-.2.369Z" transform="translate(-512.395 -152.382)" fill="#fcf0e3"/>
            </g>
          </g>
          <g id="Grupo_50" data-name="Grupo 50" transform="translate(0.563 16.233)">
            <g id="Grupo_49" data-name="Grupo 49">
              <path id="Caminho_84" data-name="Caminho 84" d="M540.331,189.512l-.47-.088-4.74-10.187A7.672,7.672,0,0,1,531.915,178a5.771,5.771,0,0,1-8.147.342,8.9,8.9,0,0,1-10.761.758l-3.3,17.636a9.712,9.712,0,0,0,1.224,6.8,9.865,9.865,0,0,0,6.942,5.928V221.1a7.377,7.377,0,0,0,7.355,7.355h2.32A7.377,7.377,0,0,0,534.9,221.1V207.882a9.825,9.825,0,0,0,2.406-4.821l.6-3.22.469.088a5.17,5.17,0,0,0,6.015-4.118l.053-.283A5.169,5.169,0,0,0,540.331,189.512Z" transform="translate(-509.539 -177.998)" fill="#fec29e"/>
            </g>
            <path id="Caminho_85" data-name="Caminho 85" d="M538.32,222.547l-.43,2.3a9.762,9.762,0,0,1-11.392,7.8l-7.492-1.4a9.727,9.727,0,0,1-6.576-4.6,9.871,9.871,0,0,0,7.343,6.025l.3.056a7.371,7.371,0,0,0,6.622,4.183h2.35a7.378,7.378,0,0,0,7.156-5.686,9.831,9.831,0,0,0,2.61-5.048l.6-3.22Z" transform="translate(-511.038 -201.113)" fill="#ff887c" opacity="0.32"/>
          </g>
          <g id="Grupo_56" data-name="Grupo 56" transform="translate(1.979 22.556)">
            <path id="Caminho_86" data-name="Caminho 86" d="M572.118,211.851a.241.241,0,0,1-.147-.051l-1.872-1.453a.243.243,0,0,1-.092-.179.239.239,0,0,1,.075-.187l2.309-2.179a.24.24,0,0,1,.329.35l-2.1,1.986,1.65,1.281a.241.241,0,0,1-.147.431Z" transform="translate(-542.329 -199.752)" fill="#fb8e77"/>
            <g id="Grupo_55" data-name="Grupo 55" transform="translate(0)">
              <g id="Grupo_54" data-name="Grupo 54" transform="translate(2.317)">
                <g id="Grupo_53" data-name="Grupo 53">
                  <g id="Grupo_51" data-name="Grupo 51" transform="translate(11.106)">
                    <path id="Caminho_87" data-name="Caminho 87" d="M544.841,194.287a2.852,2.852,0,0,1-1.1-.42c-.37-.2-.747-.392-1.08-.547s-.724-.321-1.115-.476a2.83,2.83,0,0,1-1.03-.575c-.23-.255-.185-.656.353-.925a3.261,3.261,0,0,1,2.662.182,3.164,3.164,0,0,1,1.823,1.909C545.477,194.013,545.188,194.3,544.841,194.287Z" transform="translate(-540.38 -191.14)" fill="#1b1b25"/>
                  </g>
                  <g id="Grupo_52" data-name="Grupo 52" transform="translate(0 0.397)">
                    <path id="Caminho_88" data-name="Caminho 88" d="M517.557,193.4a3.2,3.2,0,0,0,1.157.239c.419.036.84.082,1.2.133s.782.122,1.2.2a3.185,3.185,0,0,0,1.176.088c.329-.074.5-.393.188-.858a3.491,3.491,0,0,0-2.351-1.188,3.356,3.356,0,0,0-2.55.5C517.162,192.878,517.255,193.234,517.557,193.4Z" transform="translate(-517.297 -191.966)" fill="#1b1b25"/>
                  </g>
                </g>
              </g>
              <rect id="Retângulo_4" data-name="Retângulo 4" width="1.224" height="1.966" rx="0.612" transform="matrix(-0.983, -0.184, 0.184, -0.983, 14.964, 7.375)" fill="#1b1b25"/>
              <rect id="Retângulo_5" data-name="Retângulo 5" width="1.224" height="1.966" rx="0.612" transform="matrix(-0.983, -0.184, 0.184, -0.983, 4.593, 5.69)" fill="#1b1b25"/>
              <path id="Retângulo_6" data-name="Retângulo 6" d="M.757,0h2.1a.758.758,0,0,1,.758.758v0a.757.757,0,0,1-.757.757H.758A.758.758,0,0,1,0,.757v0A.757.757,0,0,1,.757,0Z" transform="translate(17.636 10.338) rotate(-173.583)" fill="#ff887c" opacity="0.17"/>
              <path id="Retângulo_7" data-name="Retângulo 7" d="M.758,0h2.1a.757.757,0,0,1,.757.757v0a.758.758,0,0,1-.758.758H.758A.758.758,0,0,1,0,.758v0A.758.758,0,0,1,.758,0Z" transform="matrix(-0.994, -0.112, 0.112, -0.994, 3.594, 8.126)" fill="#ff887c" opacity="0.17"/>
              <path id="Caminho_89" data-name="Caminho 89" d="M526.64,229.087a.241.241,0,0,1-.142-.435,2.275,2.275,0,0,1,2.594,0,.241.241,0,0,1-.276.394,1.8,1.8,0,0,0-2.035,0A.239.239,0,0,1,526.64,229.087Z" transform="translate(-519.703 -210.391)" fill="#fb8e77"/>
              <path id="Caminho_90" data-name="Caminho 90" d="M530.281,214.92l5.627-.8-.616,1.954a3.006,3.006,0,0,1-2.866,2.1h0a2,2,0,0,1-1.986-1.784Z" transform="translate(-521.717 -203.062)" fill="#fff"/>
              <path id="Caminho_91" data-name="Caminho 91" d="M529.376,202.006a.239.239,0,0,1-.06-.008l-1.745-.454a2.454,2.454,0,0,1-1.528-3.567L528.7,193.2a.241.241,0,1,1,.421.233l-2.656,4.782a1.973,1.973,0,0,0,1.228,2.867l1.745.454a.241.241,0,0,1-.061.473Z" transform="translate(-519.357 -192.142)" fill="#fb8e77"/>
            </g>
          </g>
        </g>
      </g>
      <g id="Grupo_77" data-name="Grupo 77" transform="translate(33.342 43.629)">
        <g id="Grupo_62" data-name="Grupo 62" transform="translate(3.729)">
          <g id="Grupo_61" data-name="Grupo 61">
            <g id="Grupo_59" data-name="Grupo 59" transform="translate(64.725)">
              <path id="Caminho_92" data-name="Caminho 92" d="M319.649,223.985l-19.274-35.737-2.272-5.363s-8.007-18.574-14.5-13.116l.027.138a2.228,2.228,0,0,0-.771-.613,1.646,1.646,0,0,0-1.4-.028h0a1.97,1.97,0,0,0-.715,2.664l5.541,11.831a9.784,9.784,0,0,0-1.567-1.34,8.6,8.6,0,0,0-1.977-1.291,2.764,2.764,0,0,0-3.529.817.931.931,0,0,0-.2.7,1.112,1.112,0,0,0,.381.535c1.566,1.45,3.294,2.716,4.828,4.2a8.063,8.063,0,0,0,3.214,5.321,8.706,8.706,0,0,1,2.787,3.087l-.03.023,6.981,24.288-10.2.136v19.426H309.53a10.464,10.464,0,0,0,5.256-1.408c.074-.034.149-.065.222-.1h0A10.383,10.383,0,0,0,319.649,223.985Z" transform="translate(-279.003 -168.725)" fill="#fec29e"/>
              <path id="Caminho_93" data-name="Caminho 93" d="M314.942,294.956h0s-5.24-14.1-6.14-19.618c-3.472,0-4,.155-7.471.155Z" transform="translate(-290.588 -224.023)" fill="#ff887c" opacity="0.17"/>
              <path id="Caminho_94" data-name="Caminho 94" d="M299.252,199.888a.24.24,0,0,1-.194-.1,3.878,3.878,0,0,0-5.085-1.357.241.241,0,0,1-.235-.42,4.409,4.409,0,0,1,5.707,1.491.241.241,0,0,1-.051.337A.238.238,0,0,1,299.252,199.888Z" transform="translate(-286.585 -183.645)" fill="#fb8e77"/>
              <path id="Caminho_95" data-name="Caminho 95" d="M288.514,170.594a21,21,0,0,1,3.015,3.873,14.857,14.857,0,0,1,1.078,2.224,9.467,9.467,0,0,1,.541,2.437.241.241,0,1,1-.48.038v-.014a9.048,9.048,0,0,0-.468-2.316,14.436,14.436,0,0,0-1-2.178,19.788,19.788,0,0,0-1.328-2.014,20.023,20.023,0,0,0-1.556-1.847l0,0a.144.144,0,0,1,.205-.2Z" transform="translate(-283.811 -169.652)" fill="#fb8e77"/>
              <path id="Caminho_96" data-name="Caminho 96" d="M291.925,168.7a6.339,6.339,0,0,1,1.9,1.645A13.026,13.026,0,0,1,295.2,172.4a21.336,21.336,0,0,1,1.066,2.235l.437,1.157.389,1.173a.24.24,0,1,1-.457.151v0l0-.011-.361-1.161-.409-1.145a20.734,20.734,0,0,0-1-2.208,12.657,12.657,0,0,0-1.308-2.03,6.13,6.13,0,0,0-1.746-1.587l-.023-.013a.149.149,0,0,1,.139-.263Z" transform="translate(-285.595 -168.682)" fill="#fb8e77"/>
              <path id="Caminho_97" data-name="Caminho 97" d="M297.406,169.529a11.989,11.989,0,0,1,1.469,1.432,13.836,13.836,0,0,1,1.236,1.633,13.045,13.045,0,0,1,.99,1.8,13.492,13.492,0,0,1,.71,1.933.241.241,0,0,1-.461.138v0l0-.012a13.014,13.014,0,0,0-.638-1.88,12.575,12.575,0,0,0-.918-1.768,13.521,13.521,0,0,0-1.165-1.622,11.71,11.71,0,0,0-1.391-1.426l-.006-.005a.14.14,0,0,1,.178-.216Z" transform="translate(-288.433 -169.105)" fill="#fb8e77"/>
              <path id="Caminho_98" data-name="Caminho 98" d="M300.463,221.125l7.448-.919-4.606,9.162S301.935,222.555,300.463,221.125Z" transform="translate(-290.138 -195.416)" fill="#ff887c" opacity="0.18"/>
            </g>
            <g id="Grupo_60" data-name="Grupo 60" transform="translate(0 51.412)">
              <path id="Caminho_99" data-name="Caminho 99" d="M189.593,275.634v.009c-.115,0-.229-.009-.344-.009H165.715a11.952,11.952,0,0,0-11.176,7.72h0l-.036.1-.017.047-10.01,27.285,9.292,1.137v30.3h50.572l3.782-47.16h8.8V275.539Z" transform="translate(-144.474 -275.539)" fill="#e3e3e3"/>
              <path id="Caminho_100" data-name="Caminho 100" d="M266.611,275.539l-26.867.112v0a18.909,18.909,0,0,1,18.111,18.891l-.041.515h8.8Z" transform="translate(-193.907 -275.539)" fill="#e3e3e3" opacity="0.05"/>
              <path id="Caminho_101" data-name="Caminho 101" d="M278.149,346.139" transform="translate(-213.835 -312.172)" fill="#fff" stroke="#fb8e77" stroke-linecap="round" stroke-width="1"/>
            </g>
          </g>
        </g>
        <g id="Grupo_65" data-name="Grupo 65" transform="translate(0 70.29)">
          <path id="Caminho_102" data-name="Caminho 102" d="M258.443,316.7l-9.5-1.886a2.093,2.093,0,0,0-2.453,1.641l-1.9,9.569-2.461,12.4a2.092,2.092,0,0,0,1.641,2.453l3.891.772,5.614,1.114a2.092,2.092,0,0,0,2.452-1.64l.933-4.7,1.516-7.639,1.911-9.631A2.093,2.093,0,0,0,258.443,316.7Z" transform="translate(-191.393 -314.776)" fill="#044bd9"/>
          <g id="Grupo_64" data-name="Grupo 64" transform="translate(0 4.023)">
            <path id="Caminho_103" data-name="Caminho 103" d="M204.769,341.6a1.381,1.381,0,0,0-.533-.585c-.04-.06-.073-.119-.117-.179l-.228.028a1.429,1.429,0,0,0-.517-.057l-9.315.727a8.026,8.026,0,0,1-4.385-.911l-.225-.119.467-2.351c-.5.616-1.013,1.225-1.555,1.8a6.51,6.51,0,0,0-3.31,1.249,5.973,5.973,0,0,0-1.535,1.574,7.605,7.605,0,0,1-1.722,1.849,5.925,5.925,0,0,1-.8.488l-.018-.026-21.186,5.245-.1.024,1.075-4.77-19.493-2.361-4.286,18.664a10.519,10.519,0,0,0,7.9,12.607h0a9.047,9.047,0,0,0,5.814-.6,10.573,10.573,0,0,0,1.021-.424l35.86-17.651,4.86-1.822s.2-.076.541-.219l-.071-.014C195.134,352.867,207.57,347.493,204.769,341.6Z" transform="translate(-136.723 -330.931)" fill="#fec29e"/>
            <g id="Grupo_63" data-name="Grupo 63" transform="translate(1.329 14.757)">
              <path id="Caminho_104" data-name="Caminho 104" d="M139.532,376.756c-.02.1-.032.164-.038.193Z" transform="translate(-139.49 -365.716)" fill="#ff887c" opacity="0.17"/>
              <path id="Caminho_105" data-name="Caminho 105" d="M161.3,358.556c.439-2.02.312-1.846.978-4.746l-22.4,10.286s2.219-.668,5.282-1.481c.285-.1.574-.2.873-.28Z" transform="translate(-139.692 -353.81)" fill="#ff887c" opacity="0.17"/>
              <path id="Caminho_106" data-name="Caminho 106" d="M139.628,376.184l-.055.275Z" transform="translate(-139.531 -365.419)" fill="#ff887c" opacity="0.17"/>
              <path id="Caminho_107" data-name="Caminho 107" d="M139.489,377.157c-.006.028-.006.03,0,0Z" transform="translate(-139.485 -365.924)" fill="#ff887c" opacity="0.17"/>
              <path id="Caminho_108" data-name="Caminho 108" d="M139.782,375.188l-.095.479Z" transform="translate(-139.59 -364.902)" fill="#ff887c" opacity="0.17"/>
            </g>
            <path id="Caminho_109" data-name="Caminho 109" d="M185.34,338.135l-.029,0-4.252-.525a.24.24,0,1,1,.059-.477l4.021.5,2.239-14.286a.241.241,0,0,1,.476.074l-2.275,14.517A.241.241,0,0,1,185.34,338.135Z" transform="translate(-159.618 -323.137)" fill="#1b1b25" opacity="0.35"/>
          </g>
          <path id="Caminho_110" data-name="Caminho 110" d="M200.511,355.856l9.6-.241c1.791.235,4.642-1.381,4.311-3.156h0Z" transform="translate(-169.821 -334.329)" fill="#ff887c" opacity="0.08"/>
        </g>
        <g id="Grupo_76" data-name="Grupo 76" transform="translate(14.466 1.608)">
          <g id="Grupo_66" data-name="Grupo 66">
            <path id="Caminho_111" data-name="Caminho 111" d="M213.3,215.776l-3.265-22.222a24.561,24.561,0,0,0-2.057-6.85l1.773-.284s-1.245-18.037-21.475-13.731a24.59,24.59,0,0,0-6.116.133h0a17.986,17.986,0,0,0-15.181,20.409l1.9,12.954a17.987,17.987,0,0,0,20.41,15.18l22.285-3.275A2.04,2.04,0,0,0,213.3,215.776Z" transform="translate(-166.791 -172.024)" fill="#044bd9"/>
            <path id="Caminho_112" data-name="Caminho 112" d="M235.315,189a.241.241,0,0,1-.033-.479l6.506-.888a.2.2,0,0,0,.13-.078.181.181,0,0,0,.033-.138c-1.052-5.864-6.453-8.569-6.508-8.6a.24.24,0,0,1,.211-.432c.057.027,5.675,2.834,6.771,8.943a.659.659,0,0,1-.117.506.678.678,0,0,1-.455.272l-6.505.889Z" transform="translate(-202.221 -175.315)" fill="#fcf0e3"/>
          </g>
          <g id="Grupo_68" data-name="Grupo 68" transform="translate(8.319 11.443)">
            <g id="Grupo_67" data-name="Grupo 67">
              <path id="Caminho_113" data-name="Caminho 113" d="M215.123,199.339,197.315,202.2l-4.322-6.392c.849,7.132-4.41,11.738-4.41,11.738s-.054-.074-.147-.209l-.148.027a5.17,5.17,0,0,0-4.118,6.016h0a5.169,5.169,0,0,0,6.015,4.118l.34-.063a13.26,13.26,0,0,0,3.854,6.745v11.413a7.377,7.377,0,0,0,7.355,7.355h0a7.377,7.377,0,0,0,7.355-7.355V226.58a13.349,13.349,0,0,0,6.534-6.551l.008-.013a13.153,13.153,0,0,0,1.641-9.192Z" transform="translate(-184.082 -195.808)" fill="#fec29e"/>
            </g>
            <path id="Caminho_114" data-name="Caminho 114" d="M213.683,249.382h0A13.208,13.208,0,0,1,198.7,240.5c-.066-.2-1.228.063-1.2.188a13.259,13.259,0,0,0,3.876,6.678,7.378,7.378,0,0,0,7.321,6.678h0a7.371,7.371,0,0,0,6.515-3.963,13.335,13.335,0,0,0,7.382-6.912A13.173,13.173,0,0,1,213.683,249.382Z" transform="translate(-191.043 -218.957)" fill="#ff887c" opacity="0.32"/>
          </g>
          <g id="Grupo_75" data-name="Grupo 75" transform="translate(11.321 17.372)">
            <path id="Caminho_115" data-name="Caminho 115" d="M190.987,229.535a.241.241,0,0,1-.148-.431l1.6-1.241-2.042-1.927a.241.241,0,1,1,.33-.35l2.246,2.12a.241.241,0,0,1-.018.365l-1.822,1.414A.238.238,0,0,1,190.987,229.535Z" transform="translate(-190.322 -217.154)" fill="#fb8e77"/>
            <g id="Grupo_74" data-name="Grupo 74" transform="translate(12.402)">
              <g id="Grupo_73" data-name="Grupo 73">
                <g id="Grupo_72" data-name="Grupo 72" transform="translate(0.756)">
                  <g id="Grupo_71" data-name="Grupo 71">
                    <g id="Grupo_69" data-name="Grupo 69" transform="translate(0 1.742)">
                      <path id="Caminho_116" data-name="Caminho 116" d="M217.99,213.619a1.69,1.69,0,0,0,.656-.25c.22-.119.444-.233.641-.325s.429-.191.662-.283a1.684,1.684,0,0,0,.612-.342c.136-.151.11-.389-.21-.549a1.936,1.936,0,0,0-1.581.108,1.879,1.879,0,0,0-1.082,1.134C217.614,213.457,217.785,213.627,217.99,213.619Z" transform="translate(-217.671 -211.751)" fill="#1b1b25"/>
                    </g>
                    <g id="Grupo_70" data-name="Grupo 70" transform="translate(10.142)">
                      <path id="Caminho_117" data-name="Caminho 117" d="M241.691,209.521a1.693,1.693,0,0,1-.7-.058c-.244-.053-.491-.1-.706-.135s-.465-.064-.714-.089a1.675,1.675,0,0,1-.682-.159c-.173-.108-.213-.344.05-.586a1.935,1.935,0,0,1,1.549-.333,1.876,1.876,0,0,1,1.353.79C242.009,209.26,241.891,209.472,241.691,209.521Z" transform="translate(-238.751 -208.13)" fill="#1b1b25"/>
                    </g>
                  </g>
                </g>
                <path id="Caminho_118" data-name="Caminho 118" d="M226.25,234.206a4.741,4.741,0,0,1-3.307-1.568.241.241,0,0,1,.37-.308,3.826,3.826,0,0,0,4.453,1.046.241.241,0,0,1,.2.437A4.059,4.059,0,0,1,226.25,234.206Z" transform="translate(-219.621 -220.642)" fill="#fb8e77"/>
                <path id="Caminho_119" data-name="Caminho 119" d="M232.6,221.469a.241.241,0,0,1-.046-.477l1.692-.333a1.946,1.946,0,0,0,1.531-2.282.7.7,0,0,0-.824-.553,1.645,1.645,0,0,1-1.929-1.295l-.408-2.075a.241.241,0,1,1,.472-.093l.408,2.076a1.164,1.164,0,0,0,1.364.916,1.183,1.183,0,0,1,1.389.932,2.428,2.428,0,0,1-1.911,2.847l-1.692.332A.221.221,0,0,1,232.6,221.469Z" transform="translate(-224.537 -211.262)" fill="#fb8e77"/>
                <path id="Caminho_120" data-name="Caminho 120" d="M222,222.032h0a.6.6,0,0,1-.694-.475l-.133-.71a.6.6,0,0,1,.476-.695h0a.6.6,0,0,1,.695.476l.133.71A.6.6,0,0,1,222,222.032Z" transform="translate(-218.724 -214.363)" fill="#1b1b25"/>
                <path id="Caminho_121" data-name="Caminho 121" d="M242.966,218.625h0a.6.6,0,0,1-.695-.476l-.133-.71a.6.6,0,0,1,.476-.695h0a.6.6,0,0,1,.695.475l.133.71A.6.6,0,0,1,242.966,218.625Z" transform="translate(-229.605 -212.595)" fill="#1b1b25"/>
                <path id="Caminho_122" data-name="Caminho 122" d="M218.951,228.06l-2.032.229a.74.74,0,0,1-.815-.65h0a.74.74,0,0,1,.65-.815l2.031-.228a.739.739,0,0,1,.815.65h0A.739.739,0,0,1,218.951,228.06Z" transform="translate(-216.099 -217.709)" fill="#ff887c" opacity="0.17"/>
                <path id="Caminho_123" data-name="Caminho 123" d="M247.344,223.587l-2.032.229a.739.739,0,0,1-.815-.65h0a.739.739,0,0,1,.65-.815l2.031-.229a.739.739,0,0,1,.815.65h0A.739.739,0,0,1,247.344,223.587Z" transform="translate(-230.832 -215.388)" fill="#ff887c" opacity="0.17"/>
                <path id="Caminho_124" data-name="Caminho 124" d="M235.227,246.3a.238.238,0,0,1-.142-.046,1.749,1.749,0,0,0-1.971,0,.241.241,0,0,1-.276-.394,2.219,2.219,0,0,1,2.531,0,.241.241,0,0,1-.142.435Z" transform="translate(-224.731 -227.503)" fill="#fb8e77"/>
              </g>
            </g>
          </g>
        </g>
      </g>
    </g>
  </g>
</svg>
