<?xml version="1.0" encoding="UTF-8"?><svg xmlns="http://www.w3.org/2000/svg" viewBox="0 0 27.52 27.53"><defs><style>.v{fill:#fff;}.w{fill:#036;}.x{fill:#cf142b;}</style></defs><g id="a"/><g id="b"><g id="c"><g id="d"><path id="e" class="v" d="M20.79,9.18h-3.15l6.64-4.3c-.19-.22-.38-.44-.58-.65l-6.4,4.17V.47c-.46-.12-.94-.22-1.41-.29V11.02h11.37c-.12-.62-.29-1.24-.5-1.84h-1.23l.99-.64c-.33-.8-.73-1.56-1.2-2.29l-4.49,2.93h-.03Z"/><path id="f" class="v" d="M10.23,8.4L3.83,4.23c-.6,.62-1.14,1.3-1.61,2.02l4.52,2.93H3.56l-2.19-1.42c-.12,.26-.24,.52-.35,.79l.99,.64H.78c-.21,.6-.38,1.21-.5,1.84H11.65V.17c-.48,.07-.95,.17-1.41,.29v7.94Z"/><path id="g" class="w" d="M10.23,.47c-2.35,.62-4.49,1.85-6.21,3.57-.07,.07-.13,.13-.19,.2l6.4,4.17V.47Z"/><path id="h" class="x" d="M6.74,9.18L2.22,6.25c-.31,.48-.6,.98-.85,1.5l2.18,1.42h3.18Z"/><path id="i" class="w" d="M1.03,8.54c-.09,.21-.17,.42-.24,.64h1.23l-.99-.64Z"/><path id="j" class="w" d="M23.69,4.23c-.06-.07-.12-.14-.19-.2-1.72-1.72-3.86-2.95-6.21-3.57v7.94l6.4-4.17Z"/><path id="k" class="x" d="M17.63,9.18h3.18l4.49-2.93c-.31-.48-.66-.94-1.03-1.38l-6.64,4.3Z"/><path id="l" class="w" d="M26.75,9.18c-.08-.22-.16-.43-.24-.64l-.99,.64h1.23Z"/><path id="m" class="x" d="M15.88,18.36v-1.84h11.37c.37-1.82,.37-3.69,0-5.51H15.88V.17C14.48-.06,13.05-.06,11.65,.17V11.02H.28c-.37,1.82-.37,3.69,0,5.51H11.65v10.84c1.4,.22,2.83,.22,4.23,0v-9.01Z"/><path id="n" class="v" d="M17.29,16.52h-1.41v10.84c.47-.07,.95-.17,1.41-.29v-7.94l6.4,4.17c.6-.62,1.14-1.3,1.61-2.02l-4.51-2.93h3.18l2.18,1.42c.12-.26,.24-.52,.35-.78l-.99-.64h1.23c.21-.6,.38-1.21,.5-1.84h-9.96Z"/><path id="o" class="v" d="M2.01,18.36l-.99,.64c.32,.79,.72,1.55,1.19,2.27l4.47-2.91h3.18l-6.61,4.29c.19,.22,.39,.44,.6,.66l6.4-4.17v7.94c.47,.12,.94,.22,1.41,.29v-10.85H.28c.12,.62,.29,1.24,.5,1.84h1.23Z"/><path id="p" class="w" d="M3.84,23.31c.06,.07,.12,.13,.19,.2,1.72,1.72,3.86,2.95,6.21,3.57v-7.94l-6.4,4.17Z"/><path id="q" class="x" d="M9.84,18.36h-3.16l-4.47,2.91c.31,.48,.66,.94,1.03,1.38l6.61-4.29h-.02Z"/><path id="r" class="w" d="M.78,18.36c.08,.21,.16,.43,.24,.64l.99-.64H.78Z"/><path id="s" class="w" d="M17.29,20.37v6.7c2.35-.62,4.49-1.85,6.21-3.57,.06-.07,.12-.13,.19-.2l-6.4-4.17v1.24Z"/><path id="t" class="x" d="M23.94,18.36h-3.15l4.51,2.93c.31-.48,.6-.98,.85-1.5l-2.18-1.42h-.03Z"/><path id="u" class="w" d="M26.5,19c.09-.21,.17-.42,.24-.64h-1.23l.99,.64Z"/></g></g></g></svg>