<svg xmlns="http://www.w3.org/2000/svg" width="91.898" height="91.896" viewBox="0 0 91.898 91.896"><defs><style>.a{fill:#f3f3f3;}.b{fill:#156cdd;}.c{fill:#00a2ff;}.d{fill:#2be005;}.e{fill:#fff;}</style></defs><g transform="translate(-7.968 -8)"><path class="a" d="M70.593,67.045l-3.119-3.1a10.848,10.848,0,0,0-15.306,0h0a3.674,3.674,0,0,0-1.071,2.6h0a3.654,3.654,0,0,1-3.138,3.673A20.415,20.415,0,0,1,25.1,47.376a3.654,3.654,0,0,1,3.673-3.138h0a3.673,3.673,0,0,0,2.6-1.071h0a10.848,10.848,0,0,0,0-15.306l-3.1-3.138a9.949,9.949,0,0,0-15.306,1.339A29.713,29.713,0,0,0,8.029,44.468,46.129,46.129,0,0,0,50.848,87.287a29.713,29.713,0,0,0,18.406-4.955,9.949,9.949,0,0,0,1.339-15.287Z" transform="translate(0 12.55)"/><path class="b" d="M48.384,28.15,33.078,43.456a1.435,1.435,0,0,1-2.468-1.014V28.15Z" transform="translate(20.678 18.402)"/><rect class="c" width="57.226" height="47.946" rx="1.99" transform="translate(99.866 55.946) rotate(180)"/><path class="d" d="M15.784,0A15.784,15.784,0,1,1,0,15.784,15.784,15.784,0,0,1,15.784,0Z" transform="translate(55.459 16.189)"/><ellipse class="e" cx="1.435" cy="2.047" rx="1.435" ry="2.047" transform="translate(64.987 26.367)"/><ellipse class="e" cx="1.435" cy="2.047" rx="1.435" ry="2.047" transform="translate(74.649 26.367)"/><path class="e" d="M38.543,21a.746.746,0,0,0-.727.88,6.256,6.256,0,0,0,12.379,0,.765.765,0,0,0-.727-.88Z" transform="translate(27.248 11.872)"/></g></svg>