<?xml version="1.0" encoding="utf-8"?>
<!-- Generator: Adobe Illustrator 26.1.0, SVG Export Plug-In . SVG Version: 6.00 Build 0)  -->
<svg version="1.1" id="a" xmlns="http://www.w3.org/2000/svg" xmlns:xlink="http://www.w3.org/1999/xlink" x="0px" y="0px"
	 viewBox="0 0 27.7 27.7" style="enable-background:new 0 0 27.7 27.7;" xml:space="preserve">
<style type="text/css">
	.st0{fill:#CF1C31;}
	.st1{fill:#104E80;}
</style>
<g>
	<path class="st0" d="M14.1,0v2.1h7C19.1,0.8,16.7,0.1,14.1,0z"/>
	<path class="st0" d="M23.9,4.4h-9.8v2.3h11.5C25.1,5.8,24.6,5.1,23.9,4.4z"/>
	<path class="st0" d="M26.8,8.9H14.1v2.3h13.3C27.3,10.4,27,9.6,26.8,8.9z"/>
	<path class="st0" d="M27.7,13.4H14.1v2.3h13.4c0.1-0.6,0.1-1.2,0.1-1.8C27.7,13.7,27.7,13.5,27.7,13.4z"/>
	<path class="st0" d="M1.5,20.2h24.6c0.4-0.7,0.7-1.5,0.9-2.3H0.6C0.8,18.7,1.2,19.4,1.5,20.2z"/>
	<path class="st0" d="M5.2,24.7h17.2c0.8-0.7,1.6-1.4,2.3-2.3H3C3.6,23.3,4.4,24,5.2,24.7z"/>
	<path class="st0" d="M13.8,27.7c1.6,0,3.1-0.3,4.5-0.7h-9C10.8,27.4,12.3,27.7,13.8,27.7z"/>
</g>
<path class="st1" d="M13.8,0C12,0,10.3,0.4,8.7,1l0,0.1h0.7L8.9,1.5l0.2,0.6l0,0l0,0L8.5,1.8L8.1,2.1l0,0l0,0l0.2-0.6L7.9,1.3
	C7.4,1.6,7,1.8,6.5,2.1c-1,0.6-1.9,1.4-2.7,2.3c-0.4,0.5-0.9,1-1.2,1.5h0.3L3,5.3l0.2,0.6h0.7L3.4,6.3l0.1,0.3l0.1,0.3L3.2,6.6
	L3,6.5L2.9,6.6L2.5,6.9l0.1-0.3l0.1-0.3L2.4,6.1C2.3,6.2,2.1,6.4,2,6.6C1.9,6.9,1.7,7.2,1.6,7.5h0.5L1.5,7.9l0.2,0.6L1.2,8.1
	C1.1,8.4,1,8.6,0.9,8.9C0.7,9.4,0.5,10,0.4,10.6H1L1.2,10l0.2,0.6h0.7L1.6,11l0.1,0.2l0.1,0.5l-0.5-0.4l-0.5,0.4l0.1-0.5L0.9,11
	l-0.5-0.4c0,0.2-0.1,0.4-0.1,0.5c-0.1,0.3-0.1,0.7-0.2,1h0.1l-0.1,0.1C0,12.6,0,13,0,13.4c0,0.1,0,0.3,0,0.4c0,0.6,0,1.2,0.1,1.8h14
	v-2.3v-2.3V8.9V6.6V4.4V2.1V0C14,0,13.9,0,13.8,0z M10.4,2.1L10.4,2.1l0.2,0.6h0.7l-0.5,0.4l0.2,0.6l-0.5-0.4L9.9,3.7l0.2-0.6
	L9.5,2.7h0.7L10.4,2.1L10.4,2.1z M8.3,4.3l0.2-0.6l0.2,0.6h0.7L9.3,4.4L8.9,4.7l0.2,0.6L8.5,4.9L8,5.3l0.2-0.6L7.8,4.4L7.7,4.3H8.3z
	 M11,13.2l-0.5-0.4l-0.5,0.4l0.2-0.6l-0.5-0.4h0.7l0.2-0.6l0.2,0.6h0.7l-0.5,0.4L11,13.2z M9,11.1l0.1,0.5l-0.5-0.4l-0.5,0.4
	l0.1-0.5L8.3,11l-0.5-0.4h0.7L8.6,10l0.2,0.6h0.7L9,11L9,11.1z M6.5,12.2l0.2-0.6l0.2,0.6h0.7l-0.5,0.4l0.2,0.6l-0.5-0.4l-0.5,0.4
	l0.2-0.6l-0.5-0.4H6.5z M6.9,9h0.7L7.1,9.4L7.3,10L6.7,9.6L6.2,10l0.2-0.6L5.9,9h0.7l0-0.1l0.2-0.5l0.2,0.5L6.9,9z M5.4,8.5L4.9,8.1
	L4.4,8.5l0.2-0.6L4,7.5h0.7l0.2-0.6l0.2,0.6h0.7L5.2,7.9L5.4,8.5z M9.1,8.5L8.6,8.1L8.1,8.5l0.2-0.6L7.7,7.5h0.7l0.2-0.6l0.2,0.6
	h0.7L8.9,7.9L9.1,8.5z M6.5,2.7l0.2-0.6l0,0l0,0l0.2,0.6h0.7L7,3.1l0.2,0.6L6.7,3.3L6.2,3.7l0.2-0.6L5.8,2.7H6.5z M4,4.3h0.7
	l0.2-0.6L5,4.3h0.7L5.6,4.4L5.2,4.7l0.2,0.6L4.8,4.9L4.3,5.3l0.2-0.6L4,4.3L4,4.3z M5.9,5.9h0.7l0.2-0.6l0.2,0.6h0.7L7.1,6.3
	l0.1,0.3l0.1,0.3L6.9,6.6L6.7,6.5L6.6,6.6L6.2,6.9l0.1-0.3l0.1-0.3L5.9,5.9z M3,8.4l0.2,0.5l0,0.1h0.7L3.4,9.4L3.6,10L3,9.6L2.5,10
	l0.2-0.6L2.2,9h0.7l0-0.1L3,8.4z M4.1,10.6h0.7L4.9,10l0.2,0.6h0.7L5.3,11l0.1,0.2l0.1,0.5l-0.5-0.4l-0.5,0.4l0.1-0.5L4.6,11
	L4.1,10.6z M3.6,13.2L3,12.8l-0.5,0.4l0.2-0.6l-0.5-0.4h0.7L3,11.5l0.2,0.6h0.7l-0.5,0.4L3.6,13.2z M1.7,14.8l-0.5-0.4l-0.5,0.4
	l0.2-0.6l-0.5-0.4H1l0.1-0.3l0.1-0.3l0.1,0.3l0.1,0.3H2l-0.5,0.4L1.7,14.8z M5.4,14.8l-0.5-0.4l-0.5,0.4l0.2-0.6L4,13.7h0.7l0.1-0.3
	l0.1-0.3L5,13.4l0.1,0.3h0.7l-0.5,0.4L5.4,14.8z M9.1,14.8l-0.5-0.4L8,14.8l0.2-0.6l-0.5-0.4h0.7l0.1-0.3l0.1-0.3l0.1,0.3l0.1,0.3
	h0.7l-0.5,0.4L9.1,14.8z M12.5,13.7h0.7l-0.5,0.4l0.2,0.6l-0.5-0.4l-0.5,0.4l0.2-0.6l-0.5-0.4h0.7l0.1-0.3l0.1-0.3l0.1,0.3
	L12.5,13.7z M12.9,11.6l-0.5-0.4l-0.5,0.4l0.1-0.5L12,11l-0.5-0.4h0.7l0.2-0.6l0.2,0.6h0.7L12.7,11l0.1,0.2L12.9,11.6z M10.6,9h0.7
	l-0.5,0.4L11,10l-0.5-0.4L9.9,10l0.2-0.6L9.6,9h0.7l0-0.1l0.2-0.5l0.2,0.5L10.6,9z M12.8,8.5l-0.5-0.4l-0.5,0.4L12,7.9l-0.5-0.4h0.7
	l0.2-0.6l0.2,0.6h0.7l-0.5,0.4L12.8,8.5z M11,6.9l-0.4-0.3l-0.1-0.1l-0.1,0.1L9.9,6.9L10,6.6l0.1-0.3L9.6,5.9h0.7l0.2-0.6l0.2,0.6
	h0.7l-0.5,0.4l0.1,0.3L11,6.9z M12.8,5.3l-0.5-0.4l-0.5,0.4l0.2-0.6l-0.4-0.3l-0.1-0.1H12l0.2-0.6l0.2,0.6h0.7L13,4.4l-0.4,0.3
	L12.8,5.3z M12.8,2.1L12.8,2.1l-0.5-0.4l-0.5,0.3l0,0l0,0l0.2-0.6l-0.5-0.4H12l0.2-0.6l0.2,0.6h0.7l-0.5,0.4L12.8,2.1L12.8,2.1z"/>
</svg>
