<svg xmlns="http://www.w3.org/2000/svg" width="510.959" height="380.235" viewBox="0 0 510.959 380.235">
  <g id="Grupo_2232" data-name="Grupo 2232" transform="translate(-654.882 -2056.543)">
    <g id="Grupo_1884" data-name="Grupo 1884" transform="translate(649.585 2234.272) rotate(-7)">
      <g id="Grupo_1881" data-name="Grupo 1881" transform="translate(332.846 0)">
        <path id="Caminho_5849" data-name="Caminho 5849" d="M7.7,67.865c6.78,3.116,18.389,10.764,22.94.137,4.111-9.6-9.751-10.388-15.589-11.24-3.243-.473-5.031-4.15-3.526-7.56a91.31,91.31,0,0,1,5.407-10.587,111.547,111.547,0,0,1,7.855-11.1c2.3-2.87,6.54-2.943,8.145-.259,3.3,5.517,8.628,18.961,16.414,9.067,5.424-6.893-.32-15.123-4.95-20.669-2.315-2.774-.7-7.72,3.127-9.379A79.1,79.1,0,0,1,69.431.053c4.741-.568,8.122,3.561,6.469,7.668-2.194,5.45-6.242,17.16,2.746,18.715C89.951,28.392,89,5.467,91.88,2.8c4.247-3.929,33.806,4.738,39.336,11.637,4.885,6.095,5.07,19.2,5.988,28.471a2.072,2.072,0,0,1-2.214,2.1c-5.844,0-17.264-.044-16.533,9.415.756,9.769,16,6.645,22.493,6.706-.515,13.615-2.967,25.624-9.015,37.494-1.186,2.328-4.87,2.785-7.189.791-3.793-3.262-13.944-17.046-19.085-8.955-5.114,8.05,8.967,13.693,13.878,17.063,2.328,1.6,2.843,4.686,1.164,6.483a94.734,94.734,0,0,1-17.566,14.252c-2.528,1.654-6.661.184-7.7-2.824-1.978-5.705-2.887-19.741-11.846-18.9-13.692,1.292-.763,19.221,1.688,24.569a5.246,5.246,0,0,1-2.982,7.255c-2.688.972-5.43,1.87-8.163,2.6A17.665,17.665,0,0,1,53.7,131.324c-3.888-8.437-7.519-18.716-14.129-24.444-8.488-7.355-27.175,3.539-34.549-6.212-6.053-8-5.874-19.428-3.437-29.179C2.3,68.653,5.332,66.775,7.7,67.865Z" transform="translate(0.364 0)" fill="#00a2ff"/>
        <path id="Caminho_5850" data-name="Caminho 5850" d="M55.976,44.611a.989.989,0,0,1-.2-.027,1.015,1.015,0,0,1-.721-.723c-2.243-8.538-4.2-17.26-5.828-25.926a1.015,1.015,0,1,1,1.995-.373C52.83,26.156,54.774,34.807,57,43.276q6.454-8.486,13.487-16.6a.975.975,0,0,1-.022-.2,1.012,1.012,0,0,1,1.031-.943q1.757-2,3.545-3.985C73.805,14.8,72.776,7.938,71.982,1.132A1.015,1.015,0,0,1,74,.9c.73,6.253,1.667,12.554,2.771,18.764Q85.793,9.846,95.694.618A1.015,1.015,0,0,1,97.076,2.1Q84.877,13.45,74.042,25.715c7.475.544,15,1.26,22.4,2.152a1.015,1.015,0,1,1-.243,2.015c-7.879-.95-15.895-1.7-23.844-2.258Q62.9,38.468,54.518,50c8.55-.053,17.184.126,25.694.55a1.015,1.015,0,0,1-.1,2.027c-8.962-.447-18.064-.63-27.055-.545A328.621,328.621,0,0,0,2,162.48a1.015,1.015,0,0,1-1.235.731l-.006,0a1.015,1.015,0,0,1-.724-1.234C11.184,118.512,29.932,79.228,55.976,44.611Z" transform="translate(0 41.688)" fill="#00c3ff"/>
      </g>
      <g id="Grupo_1882" data-name="Grupo 1882" transform="translate(292.49 133.147)">
        <path id="Caminho_5852" data-name="Caminho 5852" d="M.5,67.99c43.419-23.5,89.146-37.662,136.561-42.356a.95.95,0,0,1-.217-1.272C142.124,16.277,147.7,8.211,153.411.39a.953.953,0,0,1,1.539,1.125c-5.693,7.794-11.248,15.832-16.511,23.891a.9.9,0,0,1-.1.112q11.849-1.13,23.834-1.481a.946.946,0,0,1,1.442-.031q3.047-.075,6.1-.1c4.541-6,9.318-11.94,14.2-17.659a.953.953,0,0,1,1.45,1.238c-4.544,5.323-8.989,10.842-13.244,16.419q14.773-.017,29.731,1.142a.953.953,0,0,1-.149,1.9q-18.443-1.448-36.6-1.06c5.176,6.567,10.282,13.27,15.19,19.967a.953.953,0,0,1-1.537,1.127c-5.178-7.065-10.573-14.14-16.042-21.049q-16,.434-31.764,2.285c6.2,6.6,12.412,13.623,18.965,21.446a.953.953,0,0,1-1.461,1.225c-6.83-8.154-13.289-15.441-19.747-22.277a.926.926,0,0,1-.082-.107C84.531,33.967,41.956,47.717,1.407,69.666A.953.953,0,1,1,.5,67.99Z" transform="translate(0 0)" fill="#daecff"/>
      </g>
      <g id="Grupo_1883" data-name="Grupo 1883" transform="translate(0 43.468)">
        <path id="Caminho_5853" data-name="Caminho 5853" d="M151.467,30.778c-4.17,7.3-10.029,22.2-21.329,15.611-10.3-6,2.453-16.544,6.965-21.018,2.71-2.687,1.895-7.271-1.814-9.439a105.289,105.289,0,0,0-12.2-6.236,128.584,128.584,0,0,0-14.831-5.058c-4.09-1.125-8.1,1.666-7.781,5.256.548,6.238,4.3,24-9.2,19.546C82.082,26.41,81.355,15.108,81.932,6.8c.289-4.153-4.4-7.578-9.257-6.646A85.587,85.587,0,0,0,48.014,9.128c-4.877,2.651-5.187,8.779-.861,11.526,5.92,3.759,17.013,11.823,10.078,19.326C48.219,49.732,33.836,27.557,28.9,26.849,21.784,25.827.71,54.593.031,64.271c-.622,8.861,8.3,21.488,13.642,30.622a2.367,2.367,0,0,0,3.486.465c5.863-4.364,15.7-11.028,21.8-2.371,6.2,8.81-11.5,17.778-16.475,21.446,9.18,11.923,20.036,22.474,33.747,28.92,2.78,1.307,6.378-.655,7.248-4.115,1.282-5.1,1.974-25.212,11.773-21.244,9.7,3.928.669,19.236-1.434,25.3-1.076,3.1.492,6.31,3.293,6.839a103.515,103.515,0,0,0,26.031,1.452c3.54-.235,6.32-4.279,5.286-7.836-1.927-6.628-10.584-20.616-1.7-25.642,13.731-7.768,13.734,17.68,15.019,24.082a6.049,6.049,0,0,0,7.685,4.763c3.166-.907,6.387-1.9,9.38-3.08,8.424-3.337,14.725-13.427,12.566-22.786-2.276-9.87-5.935-22.889-3.317-32.364C151.5,76.267,175.239,73.75,176.128,59.6c.738-11.727-7.915-22.169-16.5-29.569C157.046,27.807,152.967,28.152,151.467,30.778Z" transform="translate(0 0)" fill="#00a2ff"/>
        <path id="Caminho_5854" data-name="Caminho 5854" d="M199.358,102.214c-39.784-33.219-83.888-57.3-131.7-72a1,1,0,0,0,.488-1.263C64.4,19.532,60.341,10.073,56.091.836a1,1,0,1,0-1.818.837c4.236,9.2,8.279,18.631,12.017,28.018a.978.978,0,0,0,.083.137Q54.416,26.2,42.158,23.344a1.027,1.027,0,0,0-.118-.177,1,1,0,0,0-1.359-.156q-3.118-.711-6.256-1.373C31,14.521,27.323,7.414,23.49.514a1,1,0,0,0-1.75.972c3.568,6.423,6.993,13.026,10.21,19.65q-15.2-3.092-30.829-5.013A1,1,0,1,0,.88,18.11q19.278,2.348,37.883,6.527C32.069,30.316,25.421,36.151,18.977,42.02A1,1,0,1,0,20.324,43.5c6.8-6.191,13.822-12.349,20.887-18.319q16.376,3.778,32.207,8.962c-7.751,5.5-15.606,11.434-23.976,18.12a1,1,0,0,0,1.248,1.564C59.416,46.856,67.578,40.7,75.645,35.014a.981.981,0,0,0,.108-.093c44.224,14.8,85.168,37.806,122.323,68.829a1,1,0,1,0,1.282-1.535Z" transform="translate(51.227 50.105)" fill="#fff"/>
      </g>
    </g>
    <g id="Grupo_1885" data-name="Grupo 1885" transform="translate(667.337 2087.911)">
      <path id="Caminho_5855" data-name="Caminho 5855" d="M1204.519,171.838c0-4.948,4.3-8.959,9.6-8.959a10.1,10.1,0,0,1,4.446,1.019c2.168-7.432,9.445-12.9,18.094-12.9a18.826,18.826,0,0,1,17.273,10.675,13.556,13.556,0,0,1,7-1.922c7.151,0,12.947,5.41,12.947,12.085Z" transform="translate(-925.941 -151)" fill="#fff"/>
      <path id="Caminho_5856" data-name="Caminho 5856" d="M1596.175,437.361a6.864,6.864,0,0,1,7.088-6.616,7.467,7.467,0,0,1,3.283.753,13.731,13.731,0,0,1,13.36-9.524,13.9,13.9,0,0,1,12.754,7.883,10.005,10.005,0,0,1,5.17-1.419c5.28,0,9.559,3.995,9.559,8.923Z" transform="translate(-1202.952 -369.29)" fill="#fff"/>
      <path id="Caminho_5857" data-name="Caminho 5857" d="M599.091,531.942a5.924,5.924,0,0,0-6.117-5.71,6.441,6.441,0,0,0-2.833.65,11.851,11.851,0,0,0-11.531-8.219,12,12,0,0,0-11.008,6.8,8.636,8.636,0,0,0-4.462-1.225,7.99,7.99,0,0,0-8.25,7.7Z" transform="translate(-554.89 -360.999)" fill="#fff"/>
      <path id="Caminho_5858" data-name="Caminho 5858" d="M715.528,280.551c0-2.206-2.537-4.573-5.666-4.573a7.818,7.818,0,0,0-1.91.233,5.931,5.931,0,0,0-5.344-2.947,6.373,6.373,0,0,0-4.229,1.528,7.64,7.64,0,0,0-5.991-2.685c-3.325,0-6.122,1.886-6.947,4.449h0c-3.13,0-5.666,1.789-5.666,3.995Z" transform="translate(-626.22 -220.173)" fill="#fff"/>
    </g>
    <g id="Grupo_1889" data-name="Grupo 1889" transform="translate(753.883 2158.601)">
      <g id="Grupo_1888" data-name="Grupo 1888">
        <path id="Caminho_5859" data-name="Caminho 5859" d="M895.819,315.845c-76.691,0-139.107,62.41-139.107,139.091,0,76.7,62.416,139.085,139.107,139.085s139.09-62.381,139.09-139.085C1034.909,378.255,972.508,315.845,895.819,315.845Z" transform="translate(-756.712 -315.845)" fill="#8bd9f1"/>
        <path id="Caminho_5860" data-name="Caminho 5860" d="M1007.276,316.2a139.285,139.285,0,0,1,79.1,125.464c0,76.707-62.4,139.093-139.089,139.093-2.05,0-4.086-.067-6.132-.153a138.3,138.3,0,0,0,60.012,13.619c76.689,0,139.091-62.381,139.091-139.085C1140.259,380.515,1081.14,319.419,1007.276,316.2Z" transform="translate(-862.061 -316.049)" fill="#7acbe4"/>
        <g id="Grupo_1886" data-name="Grupo 1886" transform="translate(0.975 14.781)">
          <path id="Caminho_5861" data-name="Caminho 5861" d="M1359.759,728.369c-1.838.043-4.217.9-4.246,1.525s-2.565,1.774-3.415,2.1c-.82.338-2.443,2.913-2.8,3.769s-2.411.6-3.183.933c-.76.353-2.323,1.61-2.33,2.371s-.438.671-.946-.2l-1.007,1.06-1.19,1.326c-.683,2.135-2.942,4.808-3.728,5.07-.76.21-.911,3.964-.911,5.464a6.953,6.953,0,0,0,1.322,4.147l.14,1.214.275,2.381a4.335,4.335,0,0,0,1.387,3.83c.4.31,3.859-.618,5.165-.936a8.944,8.944,0,0,0,1.872-.759,138.588,138.588,0,0,0,14.328-33.221A2.228,2.228,0,0,0,1359.759,728.369Z" transform="translate(-1088.564 -566.245)" fill="#52c3e2"/>
          <path id="Caminho_5862" data-name="Caminho 5862" d="M800.51,548.575c-.187.393,2.293,2.941,3.267,3.8.947.871,3,5.055,3.413,6.414a10.374,10.374,0,0,1,.042,4.146c-.126.521.462,1.692.558,2.164s-.85,4.577-.483,6.225-1.935,6.778-1.884,9.316c.064,2.567,1.208,5.891,1.684,5.645.457-.257.618,2.306-.166,2.612-.763.317-1.683,2.352-1.237,2.446s-.03,2.115.091,2.91c.1.809.789,6.106.935,7.412.147,1.338,2.025,4.542,2.424,5.63s.8,3.168.96,3.477a3.912,3.912,0,0,0,.369.656,12.919,12.919,0,0,1,1.98.913c.466.33,3.428.112,4.4-.09s.083-1.092-.362-1.563c-.44-.492-.821-2.835-1.34-3.087-.493-.219-.71-3.22-.266-3.88s2.215-1.709,2.422-2.278c.183-.556.24-3.169-.229-3.526-.486-.35.134-3.515-.225-5.087s2.727-3,2.907-4.25,3.522-2.579,4.282-3.214,1.406-4.185,1.066-4.96c-.373-.763,1.215-1.391,1.943-1.391a9.381,9.381,0,0,0,1.778-.508c.283,0,1.124-1.579,1.582-1.944s1.4-4.142,2.226-4.754c.85-.628,1.524-2.9,1.524-3.566s1.262-2.66,1.685-3.257,3.538-2.024,4.117-2.272c.534-.216,1.384-5.225,1.61-7.024a46.317,46.317,0,0,1,1.215-4.8c.054-.606,1.072-1.105,1.236-1.29.2-.2.946-2.491,1.428-3.022a15.669,15.669,0,0,0,2.254-3.212,19.839,19.839,0,0,1,.564-2.774v-1.231l.028-1.944c-.56-1.523-2.229-3.4-2.658-2.986s-2.365-1.342-3.346-1.711a18.84,18.84,0,0,0-4.066-.675c-.629,0-2.781-1.763-3.745-2.057s-3.416-.786-3.872-1.067c-.437-.289-1.046-3.946-3.021-5.139s-5.46-3.982-5.842-5.006-4.181-3.179-5.362-3.825c-1.163-.644-2.949-.8-3.154-.551-.231.213-1.711-1.988-2.448-2.625-.76-.616-3.036-1.131-3.137-.58-.114.576-1.623.277-1.986-.2-.34-.482-1.519.186-2.071.366s-2.441,3.064-3.3,3.77c-.881.678-1.919-.653-2.482-.905s-2.751.442-3.35.862-1.967-3.067-1.649-4.665-1.443-4.781-2.792-4.869-1.783-3.421-1.509-4.663-2.443-2.009-3.123-2.087c-.68-.1-2.377,1.654-2.654,2.487-.3.83-6.456-1.132-5.724-4.832a16.951,16.951,0,0,1,4.363-7.958c.727-.445,4.685-.682,5.553-.172a1.444,1.444,0,0,0,1.816-.229c.145-.237,3.374.024,4.338.435.959.383,2.345,4.115,3.33,4.569,1.013.457,1.37-2.409,1.543-3.106a7.543,7.543,0,0,0-.722-2.978c-.252-.5,1.594-5.008,3.107-5.775s3.094-3.289,2.965-3.738,1.2-.788,1.567-.981c.37-.172-.062-3.824.536-4.624a17.351,17.351,0,0,1,4.329-2.846c.886-.372,1.564-2.686,1.253-3.09-.331-.4,2.317-2.664,3.68-3.1s2.554.789,2.222.973c.269-.137,2.155-1.12,2.979-1.653.932-.627,0-2.321-.607-2.846-.6-.478-.229-2.481.489-2.65s1.361-1.9,1.176-2.27,3.026.3,4.247-.617c1.194-.9.35,2.187-.552,3.449a1.4,1.4,0,0,0,1.233,2.164c.577-.235,1.184.666,1.306,1,.105.344,1.358-.351,2.154-.012.8.356,1.293-1.1,1.359-1.769s-1.942-2.085-2.241-2.893c-.319-.806-.442-5.513-.493-6.49s-1.341-2.541-1.764-2.243c-.419.257-1.262-2.511-1.929-3.124a3.52,3.52,0,0,1-.8-2.378c.027-.449-2.287-2.866-2.838-3.982s-1.333-.886-1.372-.387c-.069.52-1.662.6-2.334.52-.659-.052-1.2-2.609-1.2-3.57s-3-1.116-3.479-1.9c-.481-.767-2.424-.409-2.742-.936a3.085,3.085,0,0,0-2.35-.84c-.358.194-.2,7.116-.508,8.977-.347,1.865-1.913,3.513-2.5,3.462-.573-.036-.234,1.338.175,1.212s-1.131,2.039-1.324,3.46-1.648-.069-1.872-1.352c-.242-1.29-1.637-3.023-1.9-2.591-.273.453-1.239-.516-1.672-.246-.413.277-3.069-1.551-4.154-2.142-1.051-.552-1.669-3.857-2.284-4.154-.615-.278-.089-.688-.105-1.181s2.073-2.406,2.705-3.163a39.259,39.259,0,0,1,3.838-4.4,3.987,3.987,0,0,0,1.475-2.678c-.151-.309,3.893-1.583,5-1.964s2.058-3.438,2.191-4.325a3.624,3.624,0,0,0-1.188-2.777c-.51-.2,1.526-.274,2.207.069.691.321,2.774-.638,3.613-.189.819.432,2.5,1.418,3.7,2.2l-.264,2.241-.491,3.815c-3.2,1.328-4.115,3.628-3,3.569s6.247,2.232,7.692,3.262c1.429,1.03,1.889-1.5,2.312-2.345a6.31,6.31,0,0,0-.043-3.775c-.36-.483,1.659-.308,2.218.235.587.535,1.238-.561,1.681-.761s.648-2.29.893-2.714c.227-.422-.977-.86-.989-1.373-.046-.542-2.345-1.529-3.083-1.885-.767-.361-.945-1.945-.557-2.21.353-.282-.262-2.309-.639-2.966-.341-.669-2.757-1.22-3.554-1.22s-1.628-1.868-2.082-2.122a12.332,12.332,0,0,0-4.3-.374c-.766.217-2.154-2.186-3.445-1.462s-2.618-.853-3.2-1.175c-.6-.314-3.592,2.925-3.576,5.187.042,2.275,1.179,4.474,1.655,4.538s-.111,2.117-.636,2.709c-.51.571-1.783-.621-1.3-1.138s-1.307-2.885-1.927-3.86c-.442-.7-2.01-1.321-3.068-1.748-.621.668-1.226,1.367-1.818,2.054a5.044,5.044,0,0,1,.232,2.716c-.45,1.384-1.6,1.588-1.687,1-.021-.277-.607-.478-1.292-.565a138.534,138.534,0,0,0-31.274,72.7,8.367,8.367,0,0,1,1.634,2.321c.387,1.221,2.511,2.015,2.907,2.274.39.233.534-2.345.25-3.006s.521-1.081.5-.591,1.993,2.784,2.649,3.6,1.35,6.116,1.987,7.251c.634,1.155,6.765,3.51,8.734,3.925a10.567,10.567,0,0,1,4.847,3.255c.38.638,3,.961,3.555,1.213.578.262,1.913,2.036,2.468,2.406a3.042,3.042,0,0,1,.989,1.712c0,.276,3.463,1.577,4.311,2.518a1.862,1.862,0,0,0,2.479.271c.259-.386.951,1.843,1.315,2.6a5.084,5.084,0,0,1,.163,2.971c-.277.287-.772,3.771-1.356,4.47s-1.807,5.746-1.556,6.747a7.925,7.925,0,0,0,2.591,3.384.793.793,0,0,1-.148,1.449c-.556.071-.291,4.9,1.011,5.612C799.6,546.075,800.7,548.218,800.51,548.575Z" transform="translate(-758.986 -382.897)" fill="#7dc2f5"/>
          <path id="Caminho_5863" data-name="Caminho 5863" d="M893.946,539.1l.02-.017C893.917,539.122,893.9,539.131,893.946,539.1Z" transform="translate(-836.056 -458.134)" fill="#7dc2f5"/>
          <path id="Caminho_5864" data-name="Caminho 5864" d="M864.759,376.771c1.666-.278,4.426-.741,4.613-1.213a2.841,2.841,0,0,0-.15-1.924c.261.018.572.032.811.032.626,0,1.679-3.464,2.349-4.266s4.465-2,5.373-2.547,2.887-2.476,3.661-2.689c.759-.233,1.883-2.021,1.693-2.377-.158-.349,2.584-2.01,3.632-2.443,1.038-.454,1.581-1.676,1.183-1.745-.25,0-6.053,3.03-11.374,6.046a140.164,140.164,0,0,0-17.11,13.725C861.1,377.264,863.66,376.954,864.759,376.771Z" transform="translate(-816.363 -354.474)" fill="#7dc2f5"/>
          <path id="Caminho_5865" data-name="Caminho 5865" d="M1042.8,567.333c1.779-1.059,4.792-5.529,5.793-6.454.993-.946,1.71-4.33,1.934-5.082a4.873,4.873,0,0,1,2.272-2.086c.561-.172,2.35-7.661,3.941-9.3s3.442-9.57,3.256-12.421c-.2-2.84,1.007-8.289,1.388-9.6a12.6,12.6,0,0,1,2.989-4.087,88.253,88.253,0,0,0,5.656-8.18c1.222-2.036,2.4-6.491,2.164-7.516-.237-1.063-2.9-1.77-3.388-1.274-.493.516-3.01.943-3.8.943-.825,0-2.65-4.287-3.789-5.171s-2.159-5.8-2.818-6.725a48,48,0,0,0-3.062-3.825c-.571-.545-.679-3.152-.808-3.862s1.112.465,1.328,1.495,3.146,5.233,4.059,6.649,3.323,5.9,3.927,7.3c.639,1.406,5.961.694,7.7-.124s3.9-2.208,3.982-2.685,2.837-1.757,3.612-2.377,1.453-3.832,1.94-4.341c.508-.532-.387-3.588-.97-4.506s-3.344-1.64-3.906-1.29c-.572.375-1.758-2.033-2.2-2.935-.412-.9-2.535-1.983-2.764-2.592s.558-1.561.909-1.774c.322-.206,4.235,2.534,5.375,3.9a30.516,30.516,0,0,1,2.623,4.307c.192.435,3.289.665,3.983.147a1.088,1.088,0,0,1,1.749.288l.97-.17,3.39-.524c1.6,1.741,2.068,3.235,2.03,3.592a3.339,3.339,0,0,0,1.625,1.884c.659.166,1.14,2.373,1.334,2.922a56.583,56.583,0,0,1,2.541,5.271,34.885,34.885,0,0,0,2.424,4.837,11.2,11.2,0,0,1,.732,3.43,2.487,2.487,0,0,0,2,1.665c.758-.053,2.324-4.925,2.689-6.718s1.613-3.3,1.951-3.3c.366,0,.645-1,.645-1.4,0-.373,1.96-.327,2.136-.841.167-.489.752-3.7,1.451-4.176a30.22,30.22,0,0,1,4.06-2.419c.877-.3,3.1,1.615,3.6,2.519a7.737,7.737,0,0,1,.748,3.544c-.184.38,1.176,2.339,2.372,2.312,1.179-.036,1.559,1.508,1.578,2.063.053.559,1.615,2.136,1.936,2.854a6.16,6.16,0,0,1,0,3.078,10.5,10.5,0,0,0,.178,3.709c.209.7,3.849,4.4,5.233,5.522,1.355,1.113,2.012-2.286,1.305-3.353s-3.089-3.518-3.632-4.257c-.571-.737-.657-3.693-.453-4.519s2.087.457,2.856,1.055a5.942,5.942,0,0,1,1.839,2.369c.028.458,4.92-2.294,5.074-5.259.189-2.979,1.811-6.327,1.956-7.111.178-.8-.467-1.864-.884-1.887-.413-.044.722-2.272,2.1-2.242,1.367.047,4.664-3.639,5.448-5.09a11.672,11.672,0,0,1,2.533-2.846,25.27,25.27,0,0,0,1.475-5.042c.2-1.422-.8-3.662-.925-4.4a14.462,14.462,0,0,0-1.613-2.975,6.321,6.321,0,0,1-.4-2.9c.185-.371,1.4-.763,1.558-1.091.125-.332,1.546-1.827,1.434-2.522-.1-.652.876.86,1.536,1.42.636.555,1.337,4.1,2.142,4.481s4.039-3.758,3.652-6.425c-.389-2.685.939-6.11,1.72-6.419.593-.231,2.117-2.4,3.141-3.941a139.131,139.131,0,0,0-34.241-54,1.889,1.889,0,0,1-.53-.009l-1.19-.254c-1.993-.431-3.151-2.569-2.814-3.06a1.511,1.511,0,0,0-.008-.934q-1.689-1.5-3.407-2.958c-.948-.02-1.945,0-2.524-.02a10.793,10.793,0,0,1-4.254-1.367c-.469-.459-2.023.417-2.119,1.277s-2.826,1.262-3.082,1.914a1.446,1.446,0,0,1-1.943.338c-.272-.37-2.8.889-4.059,1.081a22.209,22.209,0,0,0-4.162,1.438,6.629,6.629,0,0,0-2.1,2.093c-.2.544-1.817,1.455-2.338,1.652s-.407,2.544.248,2.885c.665.322-1.23-.277-2.071-.714-.862-.426-1.791,1-2.05,1.491-.276.485-1.038-.3-1-1s-2.089-1.262-2.368-.7-1.743-.19-2.343-.491c-.609-.327-3.238,2.4-4.192,3.368-.977.989-5.626,1.734-6.484,1.366-.877-.357-1.728,2.079-.975,2.227.728.147-1.894-.127-3.337.024a23.088,23.088,0,0,0-6.634,2.546,1.082,1.082,0,0,1-1.809-.729c0-.572-1.59-1.093-2.079-1.266-.456-.154-1.388,3.137-2.214,3.771-.844.639-1.84-2.568-3.808-3.1-1.949-.529-5-2.416-5.88-2.642s-2.609-2.053-3.108-2.572c-.476-.544-2.993-.982-3.795-.982s-3.394,1.492-4.081,2.081c-.7.581-1.755.467-2.093.682s-3.274,3.057-4.408,3.971c-1.14.9-3.125,4.775-3.765,5.694a2.7,2.7,0,0,1-1.967,1.111c-.377.029-.693,1.051-.693,1.432s-3.359,2.134-3.714,3.658.333,5.014.333,6.263,1.229,3.7,2.17,3.739.449,2.109.216,2.675c-.254.6.579,1.232.537,1.725-.005.479-2.356,1.177-3.076,1.46a5.452,5.452,0,0,0-2.041,2.506c-.124.521-2.373.9-3.112,1.623.184-.521.433-1.238.616-1.623a2.654,2.654,0,0,0-.5-2.538c-.342-.293-.509-4.339-1.077-5.208a17.834,17.834,0,0,0-2.337-2.621c-.346-.266.233-1.338.444-1.8.185-.437-1.882-.709-2.453-.355-.582.316-.884,4.311-1.124,5.412a3.572,3.572,0,0,0,1.382,2.851c.354.092.241,2.065-.476,2.126-.738.064-1.421,2.958-1.045,3.6.379.661-.515,1.951-.955,2.254s2.831.117,4.309.08,2.624.622,2.476.752-2.846.513-3.317,1.148-2.3,1.865-2.648,2.348.6,1.58,1.376,1.528,1.65,2.667,2.25,3.156c.586.506.369,1.913.125,2.3-.277.375-3.9-.276-5.279.082s-3.114,3.246-3.238,4.338a27.044,27.044,0,0,0,.419,5.149c.148.861,3.037,1.393,3.617,1.832.6.417,3.36.014,3.938.28.555.268,2.416-2.8,2.8-4.224.349-1.429,3.306-4.033,3.916-5.012.612-.956,3.771-.847,4.537-1.355.789-.492.363,2.416.726,3.994.38,1.614,3.406,1.4,2.964-.095s.3-2.149.416-1.6c.152.524,3.052,1.728,3.612,2.575.536.831.383,2.631-.252,2.6-.67-.021-.688,1.971.012,2.188.674.209,1.589-2.239,2.314-2.6.75-.356,1.352-1.9.983-2-.317-.133.632-1.5,1.054-1.048a17.4,17.4,0,0,0-2.8-4.225c-1.236-1.245-.372-.692,1.951,1.243l1.6,2.235c.313.4.734,1.63.991,2.076l.382.657a15.468,15.468,0,0,1,.6,3.511,2.514,2.514,0,0,0,2,1.676c.754-.051,1.334.363,1.194.4-.168.02.5,1.507,1.255,1.535s1.087-1.912.318-1.967-.645-2.853-.74-4.082.539-2.241.8-2.241-.018,2.518-.01,3.11a8.487,8.487,0,0,0,.685,2.539l.793.6,1.753,1.348c2.522-.75,5.9-.174,5.774.341s1.861.644,1.969-.189c.124-.823.211.016.211.6,0,.556-1.637,2.818-1.906,3.85s-6.1.345-8.6.143-6.189.654-6.486,1.417c-.258.742-4.168-1.723-5.969-2.482s-3.186-3.484-3.558-3.835c-.378-.376.321-1.245.142-1.777-.175-.547-4.263-.659-5.448-.215s-7.311,1.081-8.759,1.719c-1.452.657-3.64-.036-4.325-.16s-2.3,1.886-3.119,2.248c-.838.362-1.861,3.188-2.317,6.308l-1.122,2.17-.713,1.39c-2.02,1.529-4.254,6.673-4.919,7.7s-1.19,8.405-1.19,10.906,2.178,7.766,2.786,9.216,4.366,4.652,5.617,5.433c1.253.749,5.329.853,6.668.845a4.089,4.089,0,0,0,3.377-2.812l1.958.195.9.1c.04,1.08,2.938,1.967,3.643,2.339.706.4,2.6.106,3.18-.064.561-.168,1.205,4.942.784,6.416-.406,1.474,1,6.658,1.417,8.214s2.2,5.823,2.371,7.358-1.036,6.61-1.239,8.393,2.221,6.77,2.872,8.5a28.957,28.957,0,0,1,1.135,6.238c0,.875,2.65,6.01,3.248,8.142C1034.361,567.851,1041,568.382,1042.8,567.333Z" transform="translate(-893.806 -371.914)" fill="#52c3e2"/>
          <path id="Caminho_5866" data-name="Caminho 5866" d="M1370.221,649.84c.184.374,1.845-.961,2.848-1.107s1.627-2.85.848-3.043c-.784-.213-1.771-2.285-2.345-2.53s-1.675.892-1.62,1.709c.037.817-1.818,1.148-2.179,1.818-.328.688-.328,1.181.058,1.107S1370.061,649.454,1370.221,649.84Z" transform="translate(-1106.573 -517.559)" fill="#52c3e2"/>
          <path id="Caminho_5867" data-name="Caminho 5867" d="M1362.982,688.736c.488-.174-.068-2.835-1.1-3.053s-3.933,3.489-3.379,5.637c.555,2.132,1.153,2,1.456,1.547.283-.451,2.019.295,2.523.472s.5-.355,0-1.147S1362.478,688.922,1362.982,688.736Z" transform="translate(-1101.373 -541.862)" fill="#52c3e2"/>
          <path id="Caminho_5868" data-name="Caminho 5868" d="M1342.3,677.3c.125-.945.306-3.922.459-4.495.164-.6-1.616-2.3-2.491-2.607-.856-.307-3.672,5.787-5.69,6.856s-2.742,4.8-2.211,5.646,4.736,1.3,5.461,1.962c.739.636,1.553-.112,2-.22s.307-.381.133-.5,1.476-1.838,1.712-2.947C1341.9,679.922,1342.183,678.249,1342.3,677.3Z" transform="translate(-1086.394 -533.018)" fill="#52c3e2"/>
          <path id="Caminho_5869" data-name="Caminho 5869" d="M1324.348,710.156c-1.578-.607-3.434.332-3.571.94-.166.605,6.066,1.6,8.138,2.153s3.348.749,2.871.391C1331.3,713.3,1325.928,710.746,1324.348,710.156Z" transform="translate(-1079.865 -555.734)" fill="#7dc2f5"/>
          <path id="Caminho_5870" data-name="Caminho 5870" d="M1356.418,611.615c.5-.691-.691-3.948-1.291-3.213s-.172,2.634.023,3.3S1355.929,612.309,1356.418,611.615Z" transform="translate(-1099.312 -497.665)" fill="#52c3e2"/>
          <path id="Caminho_5871" data-name="Caminho 5871" d="M1363.578,629.58c.356-.83-.47-1.776-1.81-2.047s-1.135,3.774-.555,4.278C1361.8,632.332,1363.206,630.425,1363.578,629.58Z" transform="translate(-1102.706 -508.646)" fill="#52c3e2"/>
          <path id="Caminho_5872" data-name="Caminho 5872" d="M1383.635,687.939c1.61,1.112,5.194.6,5.3-1.581C1387.352,685.336,1383.49,685.492,1383.635,687.939Z" transform="translate(-1115.767 -541.914)" fill="#52c3e2"/>
          <path id="Caminho_5873" data-name="Caminho 5873" d="M1379.574,569.061a2.252,2.252,0,0,0-.814,2.145c-.1,0-.182-.012-.28-.012-.531,0-.594,2.125-.027,2.484s1.911-1.656,2.632-2.138a4.063,4.063,0,0,1,2.344-.623,6.19,6.19,0,0,0,2.79-.83,2.423,2.423,0,0,0,.769-.944c-.3-1.548-.678-3.083-1.043-4.6-.68.488-1.434,1.012-1.793,1.336C1383.451,566.515,1380.45,568.463,1379.574,569.061Z" transform="translate(-1112.581 -472.677)" fill="#52c3e2"/>
          <path id="Caminho_5874" data-name="Caminho 5874" d="M1295.6,674.442a.079.079,0,0,0,.018,0C1295.344,674.254,1295.3,674.229,1295.6,674.442Z" transform="translate(-1065.368 -535.361)" fill="#7dc2f5"/>
          <path id="Caminho_5875" data-name="Caminho 5875" d="M1305.916,682.961a17.1,17.1,0,0,0-4.275-4.958l-.685-1.1-.725-1.216c-.67-1.334-2.649-2.361-2.83-2.761s-.8,1.164-1.488.714c.361.253,1.1.781,2.147,1.511,1.877,1.346,5.471,10.4,6.285,11.041S1306.494,684.282,1305.916,682.961Z" transform="translate(-1065.665 -534.543)" fill="#52c3e2"/>
          <path id="Caminho_5876" data-name="Caminho 5876" d="M1252.2,660.8c-.5,1.013,2.654,3.2,2.912,2.7.266-.511-.411-3.017-.982-3.568C1253.579,659.4,1252.7,659.787,1252.2,660.8Z" transform="translate(-1040.668 -527.024)" fill="#7dc2f5"/>
          <path id="Caminho_5877" data-name="Caminho 5877" d="M1153.209,750.527c.123,1.076,2.317,1.934,2.949,1.755s2.4-3.43,2.647-4.369a20.61,20.61,0,0,0,.436-3.429,3.136,3.136,0,0,1,.547-1.693,5.917,5.917,0,0,0,.893-2.459c.233-1.234-1.33-6.929-1.364-7.938s-1.171.508-1.46,1.526c-.305,1.016-3.134,3.084-3.78,3.949-.619.859-1.324,3.777-1.083,4.288a6.339,6.339,0,0,1-.53,3.048C1152.19,745.743,1153.093,749.451,1153.209,750.527Z" transform="translate(-983.701 -568.356)" fill="#7dc2f5"/>
          <path id="Caminho_5878" data-name="Caminho 5878" d="M915.125,865.437h1.922C917.386,863.37,915.029,863.721,915.125,865.437Z" transform="translate(-848.167 -643.726)" fill="#7dc2f5"/>
          <path id="Caminho_5879" data-name="Caminho 5879" d="M957.012,356.807a6.6,6.6,0,0,1-3.248-.7,8.163,8.163,0,0,0-4.37-.337c-.888.38-.269-2.188.979-2.473,1.244-.263.172-2.033-1.135-2.039-1.333-.012-4.624-.487-5.392-.328s-2.275-.527-2.83-.614-4.5,1.189-6.347,1.085a46.8,46.8,0,0,0-7.42.383c-1.024.268-1.736,2.2-1.583,2.894.138.683-4.432.677-5.858.7-1.456.018-9.119,1.649-11.127,2.756-2,1.084-3.559,3.9-2.9,3.966.663.038-1.109,1.646-2.195,2.009s-3.631.561-4.24,1.154.653,1.016.88,1.42.97-.352,1.647.043c.657.368,2.9.551,3.489.784.619.242-1.9.713-3.067.787s-.905,2.383.032,2.7c.976.322,3.428.66,3.68.265s2.915.434,4.133.57c1.189.135,2.107,3.142,2.473,3.793a9.566,9.566,0,0,1,.368,3.609c-.087.667,2.116,1.883,2.522,1.449.392-.406.277,1.049-.6.962-.892-.063-.328,2.483.776,2.851s.348,1.935-.282,2.412c-.629.461-.279,1.967-.932,2.5s2.28,5.618,2.26,8.231,1.624,4.734,2.246,4.734,2.764.53,3.035,1.085c.3.545,1.328-.394,1.732-.827a20.431,20.431,0,0,0,1.938-2.777,68.448,68.448,0,0,0,2.331-6.9c.2-.565,2.663-.21,3.209-.493a28.716,28.716,0,0,0,2.618-1.932c.47-.383,3.957-1.86,4.933-2.552.942-.7,2.537-3.656,3.282-4.285s-.39-.452-1.32-1.066a1,1,0,0,1-.244-1.639c.275-.3,3.088.461,4.078.843.969.374,2.821-.96,2.108-1.487s-.33-.5,0-.276c.358.209.713-1.72.334-2.082-.362-.372,2.87-2.735,2.29-4.959-.56-2.224.9-4.523,1.757-4.531.867-.037.612-2.525-.426-2.753s-.069-.455.323-.813a5.321,5.321,0,0,0,.668-3.01c-.244-.419,1.579-.916,1.89-1.409a8.47,8.47,0,0,1,3.151-1.67C957.378,358.664,957.8,356.716,957.012,356.807Z" transform="translate(-839.063 -350.313)" fill="#7dc2f5"/>
          <path id="Caminho_5880" data-name="Caminho 5880" d="M1066.834,369.618c-.992-.338-2.991.771-2.736,1.386s-1.643-.808-2.954-.122c-1.332.689-1.692,3.015-1.09,3.321.621.3,1.041,2.137,1.068,2.492s2.555.109,3.229-.436c.641-.538.561,1.88-.093,2.529s.25,1.946.95,2.051,1.673,1.769,2.406,1.769c.746-.031,1.982-2.839,2.255-3.888.292-1.046,2.718-.22,3.847.118,1.105.327,1.511-3.871.307-4.513-1.2-.624-2.706-.32-3.207-.784a4.036,4.036,0,0,0-1.931-1.016C1068.36,372.436,1067.817,369.949,1066.834,369.618Z" transform="translate(-930.787 -361.304)" fill="#7dc2f5"/>
          <path id="Caminho_5881" data-name="Caminho 5881" d="M1089.469,369.68c1.953.272,4.167-1.339,4.644-1.791s-5.443-1.652-7.691-1.733c-2.266-.076-4.064.237-4.042.681S1087.5,369.4,1089.469,369.68Z" transform="translate(-943.701 -359.355)" fill="#7dc2f5"/>
          <path id="Caminho_5882" data-name="Caminho 5882" d="M1014.475,495.635c-.506-.222-.795,1.726-.671,2.459.115.748,1.908.686,2.68.53a1.464,1.464,0,0,0,1.339-1.383c-.022-.63-1.114-3.512-1.561-3.512S1014.993,495.847,1014.475,495.635Z" transform="translate(-904.515 -432.228)" fill="#7dc2f5"/>
          <path id="Caminho_5883" data-name="Caminho 5883" d="M1016.418,442.826c-.4-.714-3.487-.634-4.233-.686a8.53,8.53,0,0,1-3.495-1.295c-.424-.475-.747,1.9-1.463,2.209s.343.767.636.5c.276-.245-.018,1.232-.341,1.743-.307.514,2.042.865,2.314,1.639a1.951,1.951,0,0,0,2.165,1.107c.94-.144,2.8-1.107,3.453-1.168S1016.815,443.544,1016.418,442.826Z" transform="translate(-900.638 -401.987)" fill="#7dc2f5"/>
          <path id="Caminho_5884" data-name="Caminho 5884" d="M1168.215,396.99c1.059-1.067,5.414-2.5,5.9-3.589a1.387,1.387,0,0,0-.741-1.995,1.727,1.727,0,0,0-1.085.723c-.1.175-5.092,1.364-6.631,2.1a17.259,17.259,0,0,0-3.965,2.535c-.635.648-1.707,5.586-2.065,6.143-.376.569,1.657,2.586,2.57,3.144a3.326,3.326,0,0,0,2.468.156c.357-.106-.452-3.561-.926-4.769S1167.169,398.048,1168.215,396.99Z" transform="translate(-987.798 -373.784)" fill="#7dc2f5"/>
          <path id="Caminho_5885" data-name="Caminho 5885" d="M1167.235,370.961c1.654,1.637,2.54-.718,4.358-.486C1171.567,367.157,1167.081,368.3,1167.235,370.961Z" transform="translate(-992.165 -360.663)" fill="#7dc2f5"/>
          <path id="Caminho_5886" data-name="Caminho 5886" d="M1241.745,373.988c-.048.6,4.563,1.1,5.891.864,1.348-.238-.271-2.332-2.235-2.209S1241.806,373.367,1241.745,373.988Z" transform="translate(-1034.725 -363.065)" fill="#52c3e2"/>
          <path id="Caminho_5887" data-name="Caminho 5887" d="M853.426,453.4c-.485.446-.061,2.7.858,2.76s2.392-3.381,3.509-2.71c1.125.711,1.889.977,1.707.6s-3.4-1.765-3.79-2.027C855.31,451.795,853.915,452.962,853.426,453.4Z" transform="translate(-812.812 -408.392)" fill="#7dc2f5"/>
          <path id="Caminho_5888" data-name="Caminho 5888" d="M881.1,631.362c0,.366,2,.316,2.326-.3s.168-1.109-.39-1.109C882.51,629.955,881.1,630.971,881.1,631.362Z" transform="translate(-828.734 -510.037)" fill="#7dc2f5"/>
          <path id="Caminho_5889" data-name="Caminho 5889" d="M846.811,619.726c.958-.18.5,1.368.729,1.92s2.532,1.006,2.993,1.379,1.638-.7,2.566-.591c.909.117-.307-3.169-1.854-3.09-1.535.125-2.763-1.379-3.119-1.566a24.2,24.2,0,0,1-2.671-1.664c-.5-.4-4.416-.756-5.775-.756a4.355,4.355,0,0,0-3,1.792c-.211.462,2.124.751,2.8.413.649-.355,3.763.391,4.4,1.136A3.468,3.468,0,0,0,846.811,619.726Z" transform="translate(-803.353 -501.7)" fill="#7dc2f5"/>
          <path id="Caminho_5890" data-name="Caminho 5890" d="M850.5,632.276c0,.366,2.029.132,2.515.161.491,0,.479-.335-.042-.751C852.471,631.288,850.5,631.885,850.5,632.276Z" transform="translate(-811.259 -510.951)" fill="#7dc2f5"/>
          <path id="Caminho_5891" data-name="Caminho 5891" d="M852.587,608.9c-.523-.209-.945.614-.945,1.011a.68.68,0,0,0,.645.711C852.642,610.618,853.121,609.1,852.587,608.9Z" transform="translate(-811.909 -497.99)" fill="#7dc2f5"/>
          <path id="Caminho_5892" data-name="Caminho 5892" d="M861.477,608.772a1.938,1.938,0,0,0-1.308-.722c-.259,0-.43.678-.386,1.481C859.826,610.358,861.658,609.137,861.477,608.772Z" transform="translate(-816.554 -497.526)" fill="#7dc2f5"/>
          <path id="Caminho_5893" data-name="Caminho 5893" d="M867.625,616.731c.814-.4.919-1.385.437-1.327s-1.384-1.4-1.911-1.616-.956.873-.956,1.343.3.807.659.708S866.8,617.106,867.625,616.731Z" transform="translate(-819.65 -500.788)" fill="#7dc2f5"/>
          <path id="Caminho_5894" data-name="Caminho 5894" d="M1392.407,693.626c-.409.227-2.451.459-2.741.069-.256-.407-.664.83-1.107,1.013-.419.212-.188,1.279.468.938.45-.227,2.391.854,3.956,1.844.3-1.566.579-3.117.839-4.711C1393.259,693.083,1392.669,693.5,1392.407,693.626Z" transform="translate(-1118.461 -545.921)" fill="#52c3e2"/>
        </g>
        <path id="Caminho_5895" data-name="Caminho 5895" d="M881.9,395.68c-.143-.138-.717.28-.46.542C881.562,396.4,882.137,395.975,881.9,395.68Z" transform="translate(-827.916 -361.429)" fill="#d1ecfb"/>
        <path id="Caminho_5896" data-name="Caminho 5896" d="M917.841,502.738c-.106-.149-.706.274-.491.54C917.493,503.444,918.09,503.011,917.841,502.738Z" transform="translate(-848.438 -422.575)" fill="#d1ecfb"/>
        <g id="Grupo_1887" data-name="Grupo 1887" transform="translate(0.975 14.781)">
          <path id="Caminho_5897" data-name="Caminho 5897" d="M845.466,546.578a15.669,15.669,0,0,0,2.254-3.212,19.839,19.839,0,0,1,.564-2.774v-1.231l.028-1.944c-.56-1.523-2.229-3.4-2.658-2.986s-2.365-1.342-3.346-1.711a18.84,18.84,0,0,0-4.066-.675c-.629,0-2.781-1.763-3.745-2.057s-3.416-.786-3.872-1.067c-.437-.289-1.046-3.946-3.021-5.139s-5.46-3.982-5.842-5.006-4.181-3.179-5.362-3.825c-1.163-.644-2.949-.8-3.154-.551-.231.213-1.711-1.988-2.448-2.625-.76-.616-3.036-1.131-3.137-.58-.114.576-1.623.277-1.986-.2-.34-.482-1.519.186-2.071.366s-2.441,3.064-3.3,3.77c-.881.678-1.919-.653-2.482-.905s-2.751.442-3.35.862-1.967-3.067-1.649-4.665-1.443-4.781-2.792-4.869-1.783-3.421-1.509-4.663-2.443-2.009-3.123-2.087c-.68-.1-2.377,1.654-2.654,2.487-.3.83-6.456-1.132-5.724-4.832a16.951,16.951,0,0,1,4.363-7.958c.727-.445,4.685-.682,5.553-.172a1.444,1.444,0,0,0,1.816-.229c.145-.237,3.374.024,4.338.435.959.383,2.345,4.115,3.33,4.569,1.013.457,1.37-2.409,1.543-3.106a7.543,7.543,0,0,0-.722-2.978c-.252-.5,1.594-5.008,3.107-5.775s3.094-3.289,2.965-3.738,1.2-.788,1.567-.981c.37-.172-.062-3.824.536-4.624a17.351,17.351,0,0,1,4.329-2.846c.886-.372,1.564-2.686,1.253-3.09-.331-.4,2.317-2.664,3.68-3.1s2.554.789,2.222.973c.269-.137,2.155-1.12,2.979-1.653.932-.627,0-2.321-.607-2.846-.6-.478-.229-2.481.489-2.65s1.361-1.9,1.176-2.27,3.026.3,4.247-.617c1.194-.9.35,2.187-.552,3.449a1.4,1.4,0,0,0,1.233,2.164c.577-.235,1.184.666,1.306,1,.105.344,1.358-.351,2.154-.012.8.356,1.293-1.1,1.359-1.769s-1.942-2.085-2.241-2.893c-.319-.806-.442-5.513-.493-6.49s-1.341-2.541-1.764-2.243c-.419.257-1.262-2.511-1.929-3.124a3.52,3.52,0,0,1-.8-2.378c.027-.449-2.287-2.866-2.838-3.982s-1.333-.886-1.372-.387c-.069.52-1.662.6-2.334.52-.659-.052-1.2-2.609-1.2-3.57s-3-1.116-3.479-1.9c-.481-.767-2.424-.409-2.742-.936a3.085,3.085,0,0,0-2.35-.84c-.358.194-.2,7.116-.508,8.977-.347,1.865-1.913,3.513-2.5,3.462-.573-.036-.234,1.338.175,1.212s-1.131,2.039-1.324,3.46-1.648-.069-1.872-1.352c-.242-1.29-1.637-3.023-1.9-2.591-.273.453-1.239-.516-1.672-.246-.413.277-3.069-1.551-4.154-2.142-1.051-.552-1.669-3.857-2.284-4.154-.615-.278-.089-.688-.105-1.181s2.073-2.406,2.705-3.163a39.259,39.259,0,0,1,3.838-4.4,3.987,3.987,0,0,0,1.475-2.678c-.151-.309,3.893-1.583,5-1.964s2.058-3.438,2.191-4.325a3.624,3.624,0,0,0-1.188-2.777c-.51-.2,1.526-.274,2.207.069.691.321,2.774-.638,3.613-.189.819.432,2.5,1.418,3.7,2.2l-.264,2.241-.491,3.815c-3.2,1.328-4.115,3.628-3,3.569s6.247,2.232,7.692,3.262c1.429,1.03,1.889-1.5,2.312-2.345a6.31,6.31,0,0,0-.043-3.775c-.36-.483,1.659-.308,2.218.235.587.535,1.238-.561,1.681-.761s.648-2.29.893-2.714c.227-.422-.977-.86-.989-1.373-.046-.542-2.345-1.529-3.083-1.885-.767-.361-.945-1.945-.557-2.21.353-.282-.262-2.309-.639-2.966-.341-.669-2.757-1.22-3.554-1.22s-1.628-1.868-2.082-2.122a12.332,12.332,0,0,0-4.3-.374c-.766.217-2.154-2.186-3.445-1.462s-2.618-.853-3.2-1.175c-.6-.314-3.592,2.925-3.576,5.187.042,2.275,1.179,4.474,1.655,4.538s-.111,2.117-.636,2.709c-.51.571-1.783-.621-1.3-1.138s-1.307-2.885-1.927-3.86c-.442-.7-2.01-1.321-3.068-1.748-.621.668-1.226,1.367-1.818,2.054a5.044,5.044,0,0,1,.232,2.716c-.45,1.384-1.6,1.588-1.687,1-.021-.277-.607-.478-1.292-.565a138.534,138.534,0,0,0-31.274,72.7,8.367,8.367,0,0,1,1.634,2.321c.387,1.221,2.511,2.015,2.907,2.274.39.233.534-2.345.25-3.006s.521-1.081.5-.591,1.993,2.784,2.649,3.6,1.35,6.116,1.987,7.251c.634,1.155,6.765,3.51,8.734,3.925a10.567,10.567,0,0,1,4.847,3.255c.38.638,3,.961,3.555,1.213.578.262,1.913,2.036,2.468,2.406a3.042,3.042,0,0,1,.989,1.712c0,.276,3.463,1.577,4.311,2.518a1.862,1.862,0,0,0,2.479.271c.259-.386.951,1.843,1.315,2.6a5.084,5.084,0,0,1,.163,2.971c-.277.287-.772,3.771-1.356,4.47s-1.807,5.746-1.556,6.747a7.925,7.925,0,0,0,2.591,3.384.793.793,0,0,1-.148,1.449c-.556.071-.291,4.9,1.011,5.612,1.286.715,2.388,2.858,2.2,3.214-.187.393,2.293,2.941,3.267,3.8.947.871,3,5.055,3.413,6.414a10.374,10.374,0,0,1,.042,4.146c-.126.521.462,1.692.558,2.164s-.85,4.577-.483,6.225-1.935,6.778-1.884,9.316c.064,2.567,1.208,5.891,1.684,5.645.457-.257.618,2.306-.166,2.612-.763.317-1.683,2.352-1.237,2.446s-.03,2.115.091,2.91c.1.809.789,6.106.935,7.412.147,1.338,2.025,4.542,2.424,5.63s.8,3.168.96,3.477a3.912,3.912,0,0,0,.369.656,12.919,12.919,0,0,1,1.98.913c.466.33,3.428.112,4.4-.09s.083-1.092-.362-1.563c-.44-.492-.821-2.835-1.34-3.087-.493-.219-.71-3.22-.266-3.88s2.215-1.709,2.422-2.278c.183-.556.24-3.169-.229-3.526-.486-.35.134-3.515-.225-5.087s2.727-3,2.907-4.25,3.522-2.579,4.282-3.214,1.406-4.185,1.066-4.96c-.373-.763,1.215-1.391,1.943-1.391a9.381,9.381,0,0,0,1.778-.508c.283,0,1.124-1.579,1.582-1.944s1.4-4.142,2.226-4.754c.85-.628,1.524-2.9,1.524-3.566s1.262-2.66,1.685-3.257,3.538-2.024,4.117-2.272c.534-.216,1.384-5.225,1.61-7.024a46.317,46.317,0,0,1,1.215-4.8c.054-.606,1.072-1.105,1.236-1.29C844.241,549.405,844.985,547.11,845.466,546.578Z" transform="translate(-758.986 -382.897)" fill="#52c3e2"/>
          <line id="Linha_52" data-name="Linha 52" x1="0.02" y2="0.017" transform="translate(57.89 80.95)" fill="#8dcfff"/>
          <path id="Caminho_5898" data-name="Caminho 5898" d="M872.382,369.4c.657-.815,4.465-2,5.373-2.547s2.887-2.476,3.661-2.689c.759-.233,1.883-2.021,1.693-2.377-.158-.349,2.584-2.01,3.632-2.443,1.038-.454,1.581-1.676,1.183-1.745-.25,0-6.053,3.03-11.374,6.046a140.164,140.164,0,0,0-17.11,13.725c1.657-.107,4.22-.416,5.319-.6,1.666-.278,4.426-.741,4.613-1.213a2.841,2.841,0,0,0-.15-1.924c.261.018.572.032.811.032C870.659,373.666,871.712,370.2,872.382,369.4Z" transform="translate(-816.363 -354.474)" fill="#52c3e2"/>
          <path id="Caminho_5899" data-name="Caminho 5899" d="M1090.836,416.643a2.2,2.2,0,0,1-.107.2c-.276.485-1.038-.3-1-1s-2.089-1.262-2.368-.7-1.743-.19-2.343-.491c-.609-.327-3.238,2.4-4.192,3.368-.977.989-5.626,1.734-6.484,1.366-.877-.357-1.728,2.079-.975,2.227.728.147-1.894-.127-3.337.024a23.092,23.092,0,0,0-6.634,2.546,1.082,1.082,0,0,1-1.809-.729c0-.573-1.59-1.093-2.079-1.266-.456-.154-1.388,3.137-2.214,3.771-.844.639-1.84-2.568-3.808-3.1-1.949-.529-5-2.416-5.88-2.642s-2.609-2.053-3.108-2.572c-.476-.544-2.993-.982-3.795-.982s-3.394,1.492-4.081,2.081c-.7.581-1.755.467-2.093.682s-3.274,3.057-4.408,3.971c-1.14.9-3.125,4.775-3.765,5.694a2.7,2.7,0,0,1-1.967,1.111c-.377.029-.693,1.051-.693,1.432s-3.359,2.134-3.714,3.658.333,5.014.333,6.263,1.229,3.7,2.17,3.739.449,2.109.216,2.675c-.254.6.579,1.232.537,1.725-.005.479-2.356,1.177-3.076,1.46a5.452,5.452,0,0,0-2.041,2.506c-.124.521-2.373.9-3.112,1.623.184-.521.433-1.239.616-1.623a2.654,2.654,0,0,0-.5-2.538c-.342-.293-.509-4.339-1.077-5.208a17.84,17.84,0,0,0-2.337-2.621c-.346-.266.233-1.338.444-1.8.185-.437-1.882-.709-2.453-.355-.582.316-.884,4.311-1.124,5.412a3.573,3.573,0,0,0,1.382,2.851c.354.092.241,2.065-.476,2.126-.738.064-1.421,2.958-1.045,3.6.379.661-.515,1.951-.955,2.254s2.831.117,4.309.08,2.624.622,2.476.752-2.846.513-3.317,1.148-2.3,1.864-2.648,2.348.6,1.58,1.376,1.527,1.65,2.667,2.25,3.156c.586.507.369,1.913.125,2.3-.277.375-3.9-.276-5.279.082s-3.114,3.246-3.238,4.338a27.042,27.042,0,0,0,.419,5.149c.148.861,3.037,1.393,3.617,1.832.6.417,3.36.014,3.938.28.555.268,2.416-2.8,2.8-4.224.349-1.429,3.306-4.033,3.916-5.012.612-.956,3.771-.847,4.537-1.355.789-.492.363,2.417.726,3.994.38,1.614,3.406,1.4,2.964-.095s.3-2.149.416-1.6c.152.524,3.052,1.728,3.612,2.575.536.831.383,2.631-.252,2.6-.67-.021-.688,1.97.012,2.187.674.208,1.589-2.239,2.314-2.6.75-.356,1.352-1.9.983-2-.317-.133.632-1.5,1.054-1.048a17.394,17.394,0,0,0-2.8-4.225c-1.236-1.245-.372-.692,1.951,1.243l1.6,2.235c.313.4.734,1.63.991,2.076l.382.657a15.469,15.469,0,0,1,.6,3.511,2.514,2.514,0,0,0,2,1.676c.754-.051,1.334.363,1.194.4-.168.02.5,1.507,1.255,1.535s1.087-1.912.318-1.967-.645-2.853-.74-4.082.539-2.241.8-2.241-.018,2.518-.01,3.11a8.487,8.487,0,0,0,.685,2.539l.793.6,1.753,1.348c2.522-.751,5.9-.174,5.774.341s1.861.644,1.969-.189c.124-.823.211.016.211.6,0,.556-1.637,2.818-1.906,3.85s-6.1.345-8.6.143-6.189.654-6.486,1.417c-.258.742-4.168-1.723-5.969-2.482s-3.186-3.484-3.558-3.835c-.378-.376.321-1.245.142-1.777-.175-.547-4.263-.659-5.448-.215s-7.311,1.081-8.759,1.719c-1.452.657-3.64-.036-4.325-.16s-2.3,1.885-3.119,2.248c-.838.362-1.861,3.188-2.317,6.308l-1.122,2.17-.713,1.39c-2.02,1.529-4.254,6.673-4.919,7.7s-1.19,8.405-1.19,10.906,2.178,7.766,2.786,9.216,4.366,4.651,5.617,5.433c1.253.749,5.329.853,6.668.845a4.089,4.089,0,0,0,3.377-2.812l1.958.195.9.1c.04,1.08,2.938,1.967,3.643,2.339.706.4,2.6.106,3.18-.064.561-.168,1.205,4.942.784,6.417-.406,1.474,1,6.658,1.417,8.214s2.2,5.823,2.371,7.358-1.036,6.61-1.239,8.392,2.221,6.77,2.872,8.5a28.958,28.958,0,0,1,1.135,6.238c0,.875,2.65,6.01,3.248,8.142.612,2.115,7.254,2.646,9.052,1.6,1.779-1.059,4.792-5.529,5.793-6.454.993-.946,1.71-4.33,1.934-5.082a4.873,4.873,0,0,1,2.272-2.086c.561-.171,2.35-7.661,3.941-9.3s3.442-9.571,3.256-12.421c-.2-2.84,1.007-8.29,1.388-9.6a12.607,12.607,0,0,1,2.989-4.087,88.226,88.226,0,0,0,5.656-8.18c1.222-2.036,2.4-6.491,2.164-7.516-.237-1.064-2.9-1.77-3.388-1.274-.493.516-3.01.943-3.8.943-.825,0-2.65-4.287-3.789-5.171s-2.159-5.8-2.818-6.725a47.986,47.986,0,0,0-3.062-3.826c-.571-.545-.679-3.152-.808-3.862s1.112.465,1.328,1.494,3.146,5.233,4.059,6.649,3.323,5.9,3.927,7.3c.639,1.406,5.961.693,7.7-.124s3.9-2.208,3.982-2.684,2.837-1.757,3.612-2.377,1.453-3.832,1.94-4.341c.508-.532-.387-3.588-.97-4.506s-3.344-1.64-3.906-1.289c-.572.375-1.758-2.033-2.2-2.935-.412-.9-2.535-1.983-2.764-2.592s.558-1.561.909-1.774c.322-.206,4.235,2.533,5.375,3.9a30.534,30.534,0,0,1,2.623,4.307c.192.435,3.289.665,3.983.147a1.088,1.088,0,0,1,1.749.288l.97-.17,3.39-.524c1.6,1.741,2.068,3.235,2.03,3.592a3.339,3.339,0,0,0,1.625,1.884c.659.166,1.14,2.373,1.334,2.922a56.6,56.6,0,0,1,2.541,5.271,34.893,34.893,0,0,0,2.424,4.837,11.2,11.2,0,0,1,.732,3.43,2.487,2.487,0,0,0,2,1.665c.758-.053,2.324-4.925,2.689-6.718s1.613-3.3,1.951-3.3c.366,0,.645-1,.645-1.4,0-.372,1.96-.327,2.136-.84.167-.489.752-3.7,1.451-4.176a30.213,30.213,0,0,1,4.06-2.419,1.6,1.6,0,0,1,1.146.29c.072-1.916.141-3.823.141-5.76A138.271,138.271,0,0,0,1090.836,416.643Z" transform="translate(-893.806 -387.049)" fill="#52c3e2"/>
          <path id="Caminho_5900" data-name="Caminho 5900" d="M1255.115,663.509c.266-.511-.411-3.017-.982-3.568-.554-.542-1.432-.154-1.931.864S1254.857,664,1255.115,663.509Z" transform="translate(-1040.668 -527.024)" fill="#52c3e2"/>
          <path id="Caminho_5901" data-name="Caminho 5901" d="M1153.209,750.527c.123,1.076,2.317,1.934,2.949,1.755s2.4-3.43,2.647-4.369a20.61,20.61,0,0,0,.436-3.429,3.136,3.136,0,0,1,.547-1.693,5.917,5.917,0,0,0,.893-2.459c.233-1.234-1.33-6.929-1.364-7.938s-1.171.508-1.46,1.526c-.305,1.016-3.134,3.084-3.78,3.949-.619.859-1.324,3.777-1.083,4.288a6.339,6.339,0,0,1-.53,3.048C1152.19,745.743,1153.093,749.451,1153.209,750.527Z" transform="translate(-983.701 -568.356)" fill="#52c3e2"/>
          <path id="Caminho_5902" data-name="Caminho 5902" d="M915.125,865.437h1.922C917.386,863.37,915.029,863.721,915.125,865.437Z" transform="translate(-848.167 -643.726)" fill="#52c3e2"/>
          <path id="Caminho_5903" data-name="Caminho 5903" d="M919.809,355.379c-1.456.018-9.119,1.649-11.127,2.756-2,1.084-3.559,3.9-2.9,3.966.663.038-1.109,1.646-2.195,2.009s-3.631.561-4.24,1.154.653,1.016.88,1.42.97-.352,1.647.043c.657.368,2.9.551,3.489.784.619.242-1.9.713-3.067.787s-.905,2.383.032,2.7c.976.322,3.428.66,3.68.265s2.915.434,4.133.57c1.189.135,2.107,3.142,2.473,3.793a9.566,9.566,0,0,1,.368,3.609c-.087.667,2.116,1.883,2.522,1.449.392-.406.277,1.049-.6.962-.892-.063-.328,2.483.776,2.851s.348,1.935-.282,2.412c-.629.461-.279,1.967-.932,2.5s2.28,5.618,2.26,8.231,1.624,4.734,2.246,4.734,2.764.53,3.035,1.085c.3.545,1.328-.394,1.732-.827a20.431,20.431,0,0,0,1.938-2.777,68.448,68.448,0,0,0,2.331-6.9c.2-.565,2.663-.21,3.209-.493a28.716,28.716,0,0,0,2.618-1.932c.47-.383,3.957-1.86,4.933-2.552.942-.7,2.537-3.656,3.282-4.285s-.39-.452-1.32-1.066a1,1,0,0,1-.244-1.639c.275-.3,3.088.461,4.078.843.969.374,2.821-.96,2.108-1.487s-.33-.5,0-.276c.358.209.713-1.72.334-2.082-.362-.372,2.87-2.735,2.29-4.959-.56-2.224.9-4.523,1.757-4.531.867-.037.612-2.525-.426-2.753s-.069-.455.323-.813a5.321,5.321,0,0,0,.668-3.01c-.244-.419,1.579-.916,1.89-1.409a8.47,8.47,0,0,1,3.151-1.67c.719-.182,1.138-2.131.353-2.039a6.6,6.6,0,0,1-3.248-.7,8.163,8.163,0,0,0-4.37-.337c-.888.38-.269-2.188.979-2.473,1.244-.263.172-2.033-1.135-2.039-1.333-.012-4.624-.487-5.392-.328s-2.275-.527-2.83-.614-4.5,1.189-6.347,1.085a46.8,46.8,0,0,0-7.42.383c-1.024.268-1.736,2.2-1.583,2.894C925.8,355.362,921.235,355.356,919.809,355.379Z" transform="translate(-839.063 -350.313)" fill="#52c3e2"/>
          <path id="Caminho_5904" data-name="Caminho 5904" d="M1065.208,380.84c.711.114,1.673,1.769,2.406,1.769.746-.031,1.982-2.839,2.255-3.888.292-1.046,2.718-.22,3.847.118,1.105.327,1.511-3.871.307-4.513-1.2-.624-2.706-.32-3.207-.784a4.036,4.036,0,0,0-1.931-1.016c-.525-.09-1.068-2.577-2.051-2.907s-2.991.771-2.736,1.386-1.643-.808-2.954-.122c-1.332.689-1.692,3.015-1.09,3.321.621.3,1.041,2.137,1.068,2.492s2.555.109,3.229-.436c.641-.538.561,1.88-.093,2.529S1064.508,380.735,1065.208,380.84Z" transform="translate(-930.787 -361.304)" fill="#52c3e2"/>
          <path id="Caminho_5905" data-name="Caminho 5905" d="M1094.113,367.889c.483-.446-5.443-1.652-7.691-1.733-2.266-.076-4.064.237-4.042.681s5.118,2.564,7.089,2.844C1091.422,369.952,1093.636,368.34,1094.113,367.889Z" transform="translate(-943.701 -359.355)" fill="#52c3e2"/>
          <path id="Caminho_5906" data-name="Caminho 5906" d="M1014.475,495.635c-.506-.222-.795,1.726-.671,2.459.115.748,1.908.686,2.68.53a1.464,1.464,0,0,0,1.339-1.383c-.022-.63-1.114-3.512-1.561-3.512S1014.993,495.847,1014.475,495.635Z" transform="translate(-904.515 -432.228)" fill="#52c3e2"/>
          <path id="Caminho_5907" data-name="Caminho 5907" d="M1016.418,442.826c-.4-.714-3.487-.634-4.233-.686a8.53,8.53,0,0,1-3.495-1.295c-.424-.475-.747,1.9-1.463,2.209s.343.767.636.5c.276-.245-.018,1.232-.341,1.743-.307.514,2.042.865,2.314,1.639a1.951,1.951,0,0,0,2.165,1.107c.94-.144,2.8-1.107,3.453-1.168S1016.815,443.544,1016.418,442.826Z" transform="translate(-900.638 -401.987)" fill="#52c3e2"/>
          <path id="Caminho_5908" data-name="Caminho 5908" d="M1161.7,396.762c-.635.648-1.707,5.586-2.065,6.143-.376.569,1.657,2.586,2.57,3.144a3.326,3.326,0,0,0,2.468.156c.357-.106-.452-3.561-.926-4.769s3.425-3.389,4.471-4.447,5.414-2.5,5.9-3.589a1.387,1.387,0,0,0-.741-1.995,1.727,1.727,0,0,0-1.085.723c-.1.175-5.092,1.364-6.631,2.1A17.259,17.259,0,0,0,1161.7,396.762Z" transform="translate(-987.798 -373.784)" fill="#52c3e2"/>
          <path id="Caminho_5909" data-name="Caminho 5909" d="M1167.235,371.015c1.654,1.637,2.54-.718,4.358-.486a1.6,1.6,0,0,0-.057-.319c-.6-.551-1.188-1.142-1.785-1.681A2.488,2.488,0,0,0,1167.235,371.015Z" transform="translate(-992.165 -360.717)" fill="#52c3e2"/>
          <path id="Caminho_5910" data-name="Caminho 5910" d="M853.426,453.4c-.485.446-.061,2.7.858,2.76s2.392-3.381,3.509-2.71c1.125.711,1.889.977,1.707.6s-3.4-1.765-3.79-2.027C855.31,451.795,853.915,452.962,853.426,453.4Z" transform="translate(-812.812 -408.392)" fill="#52c3e2"/>
          <path id="Caminho_5911" data-name="Caminho 5911" d="M881.1,631.362c0,.366,2,.316,2.326-.3s.168-1.109-.39-1.109C882.51,629.955,881.1,630.971,881.1,631.362Z" transform="translate(-828.734 -510.037)" fill="#8dcfff"/>
          <path id="Caminho_5912" data-name="Caminho 5912" d="M846.811,619.726c.958-.18.5,1.368.729,1.92s2.532,1.006,2.993,1.379,1.638-.7,2.566-.591c.909.117-.307-3.169-1.854-3.09-1.535.125-2.763-1.379-3.119-1.566a24.2,24.2,0,0,1-2.671-1.664c-.5-.4-4.416-.756-5.775-.756a4.355,4.355,0,0,0-3,1.792c-.211.462,2.124.751,2.8.413.649-.355,3.763.391,4.4,1.136A3.468,3.468,0,0,0,846.811,619.726Z" transform="translate(-803.353 -501.7)" fill="#52c3e2"/>
          <path id="Caminho_5913" data-name="Caminho 5913" d="M850.5,632.276c0,.366,2.029.132,2.515.161.491,0,.479-.335-.042-.751C852.471,631.288,850.5,631.885,850.5,632.276Z" transform="translate(-811.259 -510.951)" fill="#52c3e2"/>
          <path id="Caminho_5914" data-name="Caminho 5914" d="M852.587,608.9c-.523-.209-.945.614-.945,1.011a.68.68,0,0,0,.645.711C852.642,610.618,853.121,609.1,852.587,608.9Z" transform="translate(-811.909 -497.99)" fill="#52c3e2"/>
          <path id="Caminho_5915" data-name="Caminho 5915" d="M861.477,608.772a1.938,1.938,0,0,0-1.308-.722c-.259,0-.43.678-.386,1.481C859.826,610.358,861.658,609.137,861.477,608.772Z" transform="translate(-816.554 -497.526)" fill="#52c3e2"/>
          <path id="Caminho_5916" data-name="Caminho 5916" d="M867.625,616.731c.814-.4.919-1.385.437-1.327s-1.384-1.4-1.911-1.616-.956.873-.956,1.343.3.807.659.708S866.8,617.106,867.625,616.731Z" transform="translate(-819.65 -500.788)" fill="#8dcfff"/>
        </g>
      </g>
    </g>
    <g id="Grupo_1922" data-name="Grupo 1922" transform="translate(986.58 2297.689)">
      <g id="Grupo_1913" data-name="Grupo 1913" transform="translate(7.913 0)">
        <path id="Caminho_5941" data-name="Caminho 5941" d="M708.309,605.307c-4.88,1.086-13.926,5.181-16,12.555-3.115,11.068,2.046,27.593-7.284,43.357-2.978,5.021,48.767,13.325,48.767,13.325l11.584-56.058s-12.178-12.579-14.716-13.47C725.4,603.161,718.055,603.141,708.309,605.307Z" transform="translate(-684.898 -587.747)" fill="#4e99ff"/>
        <g id="Grupo_1909" data-name="Grupo 1909" transform="translate(45.021 30.658)">
          <path id="Caminho_5942" data-name="Caminho 5942" d="M805.417,638.171c1.681,4.552,5.5,31.459.238,37.633-.6.714,2.589,1.936,1.912,5.25-.114.557-1.159,3.185-1.159,3.185l-4.181.967-12.344-7.487,2.483-2.857,1.136.054a2.559,2.559,0,0,0,.837-2.211c-.262-1.233,2.969-3.143,8.341-23.8C804.261,642.834,805.048,637.166,805.417,638.171Z" transform="translate(-789.883 -638.054)" fill="#2b83fd"/>
          <path id="Caminho_5943" data-name="Caminho 5943" d="M804.378,721.126l-3.687-.92-1.495-.279a2.744,2.744,0,0,1-.875,1.753l2.875.17,3.347.819,4.012,2.433Z" transform="translate(-794.702 -684.818)" fill="#ecb60d"/>
        </g>
        <path id="Caminho_5944" data-name="Caminho 5944" d="M798.158,730.456a11.074,11.074,0,0,1,5.272,1.616c1.826,1.194,3.466,3.734,1.722,5.032a27.607,27.607,0,0,1-4.415,2.488S794.2,739.59,798.158,730.456Z" transform="translate(-748.862 -660.174)" fill="#c4d1e1"/>
        <path id="Caminho_5945" data-name="Caminho 5945" d="M798.994,745.072l-1.737-.422s-6-.71-6.87-.269-3.682,2.238-3.682,2.238l-.583.506a2.91,2.91,0,0,0,3.164-.344c1.852-1.217,1.975-.239,1.975-.239l-.352,1.594-.029,2.048-.3.857s-.268.459-.074.638a1.137,1.137,0,0,0,1.133.29l1.919-3.145.4,3.491a1.277,1.277,0,0,0,.8.615c.534.131.544-.014.544-.014l.437-.87a1.067,1.067,0,0,0,.349.613,1.733,1.733,0,0,0,1.08.341l-.069-3.662.7,1.879a1.385,1.385,0,0,0,.805.615c.6.157.766.209.766.209Z" transform="translate(-742.714 -668.045)" fill="#e4eef3"/>
        <g id="Grupo_1911" data-name="Grupo 1911" transform="translate(5.011 22.858)">
          <g id="Grupo_1910" data-name="Grupo 1910">
            <path id="Caminho_5946" data-name="Caminho 5946" d="M723.268,704.658s4.058,11.185,14.474,14.44c1.8.56,2.862,2.553,1.968,3.159-1.144.775-2.687.911-5.32.828-5.487-.162-12.906-2.076-17.932-7.219-7.443-7.608-9.756-11.041-8.879-14.739S723.268,704.658,723.268,704.658Z" transform="translate(-702.762 -665.675)" fill="#e9d6b8"/>
            <path id="Caminho_5947" data-name="Caminho 5947" d="M700.575,623.437c-2.324,3.591-3.77,9.421-3.99,17.813-.16,6.5,5.146,17.29,5.914,20.584.131.548.408,2.9.408,2.9l6.04,6.264,12.7-8.1-3.629-5.92-1.132.091a19.4,19.4,0,0,1-.4-4.473c.231-1.241-2.951-18.1-4.453-28.889C711.162,617.491,702.879,619.878,700.575,623.437Z" transform="translate(-696.582 -619.865)" fill="#2b83fd"/>
            <path id="Caminho_5948" data-name="Caminho 5948" d="M724.362,703.946l3.66-1.023,1.488-.326a2.751,2.751,0,0,0,.922,1.729l-2.865.252-3.33.912-3.937,2.549Z" transform="translate(-710.13 -667.119)" fill="#4e99ff"/>
          </g>
          <path id="Caminho_5949" data-name="Caminho 5949" d="M775.259,742.225l6.393-1.56s1.73,2.46,1.373,3.05-.113,4.166-.113,4.166l-3.145,2.53-2.477-.9s-.146-1.093.711-1.176-.556-.744-1-1.014S772.937,745.054,775.259,742.225Z" transform="translate(-741.08 -688.863)" fill="#e9d6b8"/>
        </g>
        <path id="Caminho_5950" data-name="Caminho 5950" d="M757.072,591.36a3.893,3.893,0,0,0,2.241,5.009l3.567,1.363a3.89,3.89,0,0,0,5.008-2.239l3.46-9.063a3.892,3.892,0,0,0-2.24-5.009l-3.567-1.363a3.888,3.888,0,0,0-5.008,2.239Z" transform="translate(-725.977 -574.125)" fill="#e4eef3"/>
        <g id="Grupo_1912" data-name="Grupo 1912" transform="translate(30.384)">
          <path id="Caminho_5951" data-name="Caminho 5951" d="M772.637,596.549a2.5,2.5,0,0,1-3.124,1.659l-10.78-3.293a2.5,2.5,0,0,1-1.663-3.127l4.88-15.97a2.5,2.5,0,0,1,3.125-1.66l10.78,3.292a2.513,2.513,0,0,1,1.665,3.129Z" transform="translate(-756.442 -570.837)" fill="#e9d6b8"/>
          <path id="Caminho_5952" data-name="Caminho 5952" d="M801.905,589.074a9.585,9.585,0,0,0,2.478-1.976,3.739,3.739,0,0,0-.616-3.459c-.986-1.064-2.379-.076-2.379-.076s1.586,1.653,1.565,2.086S801.905,589.074,801.905,589.074Z" transform="translate(-781.818 -576.034)" fill="#163f59"/>
          <path id="Caminho_5953" data-name="Caminho 5953" d="M760.913,578.391s.246-6.637,1.1-8.337,1.425-2.9,3.685-2.42c3.375.706,3.2,1.416,5.105.906s5.508-2.037,6.569-1.976c1.768.1,4.181,1.441,3.332,4.563a3.6,3.6,0,0,0,.58,3.38c-.21.243-.893.321-2.093.523-3.454.584-5.344.329-7.455-.967s-5.993-3.905-7.008-2.363-2.4,6.8-2.728,7.135S761.221,578.817,760.913,578.391Z" transform="translate(-758.699 -566.562)" fill="#194866"/>
          <path id="Caminho_5954" data-name="Caminho 5954" d="M760.138,599.689a.836.836,0,0,1-1.045.551l-2.329-.709a.835.835,0,0,1-.551-1.044l1.3-4.256a.84.84,0,0,1,1.046-.557l2.329.712a.834.834,0,0,1,.554,1.045Z" transform="translate(-755.993 -582.027)" fill="#e9d6b8"/>
          <path id="Caminho_5955" data-name="Caminho 5955" d="M792.535,609.585a.842.842,0,0,1-1.048.557l-2.328-.712a.836.836,0,0,1-.551-1.043l1.3-4.26a.832.832,0,0,1,1.043-.552l2.329.712a.838.838,0,0,1,.554,1.045Z" transform="translate(-774.497 -587.681)" fill="#e9d6b8"/>
          <path id="Caminho_5956" data-name="Caminho 5956" d="M758.568,598.153s-1.92,6.288-2.564,8.384c-.577,1.892-1.092,6.285,9.613,9.555,6.34,1.934,7.527-2.79,8-4.321a14.206,14.206,0,0,0-.361-5.932c-.016-.028-.793,2.594-.793,2.594a5.294,5.294,0,0,0-3.56-3.854c-4.858-1.479-6.829,1.024-8.959.323C758.309,604.358,757.889,601.287,758.568,598.153Z" transform="translate(-755.751 -584.606)" fill="#194866"/>
          <path id="Caminho_5957" data-name="Caminho 5957" d="M778.034,619.331l3.327,1.018a.835.835,0,0,0,1.04-.557l.141-.459-4.921-1.508-.145.467A.832.832,0,0,0,778.034,619.331Z" transform="translate(-768.139 -595.842)" fill="#e9d6b8"/>
        </g>
      </g>
      <path id="Caminho_5958" data-name="Caminho 5958" d="M766.538,742.15c-1.661,4.235-29.2,19.219-38.259,18.032l-27.41.548c-23.2-3.489-33.212-39.96-33.212-39.96,1.18-9.057,23.747,4.741,31.809,9.047,12.767,6.819,20.941,7.372,20.941,7.372,8.638,1.127,18.86-5.275,29.8-5.205C762.22,732.063,769.162,735.479,766.538,742.15Z" transform="translate(-667.137 -652.917)" fill="#282723"/>
      <g id="Grupo_1916" data-name="Grupo 1916" transform="translate(39.952 57.932)">
        <path id="Caminho_5959" data-name="Caminho 5959" d="M759.63,759.1c-.005-.014-.014-.023-.021-.037l.032-1.139,47.139.448-.01,1.139a.07.07,0,0,1,0,.038l-.121.209c-.617.981-1.706,1.152-2.948,1.141l-41.024-.393c-1.244-.009-2.327-.2-2.927-1.19Z" transform="translate(-759.609 -733.796)" fill="#b6c2c9"/>
        <path id="Caminho_5960" data-name="Caminho 5960" d="M771.581,760.005a.053.053,0,0,1,0,.03l-.117.174a1.957,1.957,0,0,1-.693.573l-7.171-.072c-1.2-.009-2.238-.161-2.816-.966l-.11-.175a.09.09,0,0,1-.024-.03l.017-.557,10.924.106Z" transform="translate(-760.203 -734.399)" fill="#d8e5ed"/>
        <g id="Grupo_1914" data-name="Grupo 1914" transform="translate(17.746 24.564)">
          <path id="Caminho_5961" data-name="Caminho 5961" d="M800.991,759.74l23.554.224.008-.8L801,758.939Z" transform="translate(-800.991 -758.939)" fill="#879ba6"/>
        </g>
        <g id="Grupo_1915" data-name="Grupo 1915" transform="translate(11.654)">
          <path id="Caminho_5962" data-name="Caminho 5962" d="M786.785,725.858l6.331-23.108a1.54,1.54,0,0,1,1.41-1.094l33.071.315a.825.825,0,0,1,.807,1.114l-6.334,23.106Z" transform="translate(-786.785 -701.656)" fill="#b0bfde"/>
        </g>
      </g>
      <g id="Grupo_1918" data-name="Grupo 1918" transform="translate(6.493 99.722)">
        <path id="Caminho_5963" data-name="Caminho 5963" d="M729.869,813.107c3.246.65,5.834-3.068,5.834-3.068l8.609-6.4-1.66-4.533-16.609,6.918S726.624,812.461,729.869,813.107Z" transform="translate(-706.979 -799.108)" fill="#e9d6b8"/>
        <path id="Caminho_5964" data-name="Caminho 5964" d="M710.331,816.4a8.331,8.331,0,0,1-.68,2.1c-.676,1.715-1.463,2.295-2.282,2.514-3.172.838-5.423.308-13.029,1.555s-9.843.086-11.957-3.46.254-6.221,3.951-6.4c5.352-.252,8.306.438,11.1.093,2.922-.363,3.126-1.009,4.856-2.012,1.629-.937,2.94,4.956,1.389,6.272C702.312,818.211,709.136,818.583,710.331,816.4Z" transform="translate(-681.585 -805.719)" fill="#f03e30"/>
        <path id="Caminho_5965" data-name="Caminho 5965" d="M708.619,823.629c-3.168.84-5.423.312-13.027,1.559s-9.841.084-11.96-3.463a4.025,4.025,0,0,1-.359-4.188c-1.7,1.1-2.317,3.086-.886,5.483,2.114,3.546,4.353,4.709,11.957,3.46s9.857-.717,13.029-1.555a2.924,2.924,0,0,0,1.8-1.51A2.674,2.674,0,0,1,708.619,823.629Z" transform="translate(-681.588 -809.634)" fill="#fff"/>
        <path id="Caminho_5966" data-name="Caminho 5966" d="M748.5,824.113a.689.689,0,0,0,.015-.1,1.326,1.326,0,0,1-.077.115C748.459,824.12,748.482,824.119,748.5,824.113Z" transform="translate(-719.77 -813.331)" fill="#e9d6b8"/>
        <g id="Grupo_1917" data-name="Grupo 1917" transform="translate(10.911 6.497)">
          <path id="Caminho_5967" data-name="Caminho 5967" d="M708.436,821.006c-.243.082-.448-.38-.5-1.025a18.114,18.114,0,0,0-.768-3.919c-.2-.647-.179-1.211.088-1.278s.681.4.872,1.034a18.5,18.5,0,0,1,.722,3.878C708.892,820.333,708.682,820.918,708.436,821.006Z" transform="translate(-707.029 -814.556)" fill="#fff"/>
          <path id="Caminho_5968" data-name="Caminho 5968" d="M713.917,820.655c-.262.045-.481-.411-.534-1.013a16.757,16.757,0,0,0-.763-3.693c-.193-.607-.169-1.123.114-1.153s.709.438.893,1.043a16.6,16.6,0,0,1,.717,3.648C714.386,820.086,714.169,820.6,713.917,820.655Z" transform="translate(-710.151 -814.565)" fill="#fff"/>
          <path id="Caminho_5969" data-name="Caminho 5969" d="M719.329,820.307c-.269.029-.523-.453-.6-1.08a18.642,18.642,0,0,0-.919-3.813c-.219-.626-.209-1.148.09-1.155s.739.494.954,1.113a18.071,18.071,0,0,1,.87,3.771C719.8,819.764,719.595,820.282,719.329,820.307Z" transform="translate(-713.101 -814.259)" fill="#fff"/>
        </g>
      </g>
      <path id="Caminho_5970" data-name="Caminho 5970" d="M737,777.06s58.559-22.2,61.866-22.142c11.186.206,8.309,11.45,2.5,16.618-6.859,6.094-58.01,16.18-58.01,16.18Z" transform="translate(-706.744 -674.146)" fill="#323b31"/>
      <g id="Grupo_1921" data-name="Grupo 1921" transform="translate(0 55.91)">
        <path id="Caminho_5971" data-name="Caminho 5971" d="M769.794,788.493,754.4,773.07l6.922-6.486L778.08,785.2Z" transform="translate(-716.684 -736.719)" fill="#e9d6b8"/>
        <path id="Caminho_5972" data-name="Caminho 5972" d="M723.155,737.022s-39.2-37.983-41.885-39.158c-9.073-3.983-15.046,6-14.821,9.513.294,4.551,40.135,42.609,40.135,42.609Z" transform="translate(-666.444 -696.941)" fill="#3c463b"/>
        <g id="Grupo_1920" data-name="Grupo 1920" transform="translate(50.279 45.454)">
          <path id="Caminho_5973" data-name="Caminho 5973" d="M813.6,811.181c.917.893,1.005,3.453,1.005,3.453s-13.56,4.7-18.28,4.662a23.7,23.7,0,0,1-5.51-1.2c-.353-.1-1.145-1.047-1.489-1.161-.639-.2-.8.417-1.348.225a16.866,16.866,0,0,1-2.461-.985c-2.669-6.107-1.625-9.049-1.625-9.049s6.119,1.933,5.1.526c-2.18-3.013,4.365-5.857,5.764-4.245C800.328,809.854,810.946,808.591,813.6,811.181Z" transform="translate(-783.692 -802.937)" fill="#f03e30"/>
          <path id="Caminho_5974" data-name="Caminho 5974" d="M815.311,825.126c-4.171,1.524-12.933,4.672-14.665,4.743-7.076.3-11.944-2.342-15.205-3.91a27.436,27.436,0,0,0,1.076,2.886,16.892,16.892,0,0,0,2.461.985c.546.191.709-.43,1.348-.225.344.114,1.136,1.056,1.488,1.161a23.7,23.7,0,0,0,5.51,1.2c4.72.04,18.28-4.662,18.28-4.662A9.163,9.163,0,0,0,815.311,825.126Z" transform="translate(-784.691 -815.611)" fill="#fff"/>
          <g id="Grupo_1919" data-name="Grupo 1919" transform="translate(8.577 2.96)">
            <path id="Caminho_5975" data-name="Caminho 5975" d="M823.549,815c.121.237-.412.5-1.168.634a25.431,25.431,0,0,0-4.572,1.246c-.741.282-1.412.328-1.509.072s.428-.73,1.16-1a25.214,25.214,0,0,1,4.521-1.2C822.731,814.633,823.434,814.769,823.549,815Z" transform="translate(-810.888 -812.622)" fill="#fff"/>
            <path id="Caminho_5976" data-name="Caminho 5976" d="M816.894,812.393c.107.24-.416.564-1.153.754a26.217,26.217,0,0,0-4.432,1.6c-.712.334-1.362.423-1.447.155s.415-.8,1.123-1.116a25.407,25.407,0,0,1,4.389-1.548C816.107,812.059,816.787,812.154,816.894,812.393Z" transform="translate(-807.212 -811.158)" fill="#fff"/>
            <path id="Caminho_5977" data-name="Caminho 5977" d="M810.5,810.062c.1.25-.411.621-1.131.872a26.279,26.279,0,0,0-4.278,1.94c-.691.387-1.311.516-1.39.233s.4-.854,1.078-1.234a25.686,25.686,0,0,1,4.25-1.876C809.74,809.755,810.4,809.807,810.5,810.062Z" transform="translate(-803.694 -809.841)" fill="#fff"/>
          </g>
        </g>
      </g>
    </g>
    <g id="Grupo_1964" data-name="Grupo 1964" transform="translate(834.149 2056.543)">
      <g id="Grupo_1961" data-name="Grupo 1961" transform="translate(32.347 35.916)">
        <g id="Grupo_1960" data-name="Grupo 1960" transform="translate(0 34.91)">
          <path id="Caminho_6026" data-name="Caminho 6026" d="M1244.954,524.507s-.182,1.91-9.345,1.909-22.456-2.3-22.456-2.3l21.269-1.992S1242.563,521.75,1244.954,524.507Z" transform="translate(-1204.48 -522.108)" fill="#e2c59c"/>
          <path id="Caminho_6027" data-name="Caminho 6027" d="M1210.119,527.071c-5.168-.017-7.4,2.567-9.448,3.364a36.216,36.216,0,0,0-4.1,2c1.158-2.208,2.827-2.266,3.666-2.978s.618-.356-1.219-.5c-1.046-.081-2.893,1.757-4.222,2.776a4.187,4.187,0,0,1-1.868.947,23.038,23.038,0,0,1,3.056-3.356,26.474,26.474,0,0,1,5.221-3.55,20.268,20.268,0,0,1,7.025-.2C1211.005,525.95,1213.842,527.081,1210.119,527.071Z" transform="translate(-1192.928 -523.973)" fill="#e2c59c"/>
          <path id="Caminho_6028" data-name="Caminho 6028" d="M1203.321,526.545a28.194,28.194,0,0,0-4.656,1.514c-.485.361-2.513,2.478-2.513,2.478a5.17,5.17,0,0,0,2.338-1.034A44.782,44.782,0,0,1,1203.321,526.545Z" transform="translate(-1194.77 -524.642)" fill="#e2c59c"/>
        </g>
        <path id="Caminho_6029" data-name="Caminho 6029" d="M1254.9,518.72s10.005.63,9.314,6.565c-.39,3.371-2.675,4.541-5.7,4.3-5.618-.458-11.984-1.278-11.984-1.278l-2.84-9.223Z" transform="translate(-1221.925 -485.262)" fill="#0063cb"/>
        <path id="Caminho_6030" data-name="Caminho 6030" d="M1271.512,474.979l9.809-30.541s1.444-4.476,3.824-3.633c3.433,1.212,1.73,4.872,1.43,7.042-.616,4.427-.206,6.353-3.374,17.018-1.955,6.578-3.646,14.158-5.35,18.482-1.174,2.981-3.172-1.289-6.2-2.483C1266.016,478.635,1271.512,474.979,1271.512,474.979Z" transform="translate(-1236.442 -440.699)" fill="#0063cb"/>
      </g>
      <path id="Caminho_6031" data-name="Caminho 6031" d="M1278.4,393.246a12.733,12.733,0,1,0,7.776-16.03A12.6,12.6,0,0,0,1278.4,393.246Z" transform="translate(-1208.991 -368.085)" fill="#001f46"/>
      <path id="Caminho_6032" data-name="Caminho 6032" d="M1245.091,380.023a9.572,9.572,0,0,0,13.32,2.418l-.619-5.1a9.573,9.573,0,0,0,2.418-13.321l-2.045-2.949a9.573,9.573,0,0,0-13.321-2.422l-1.968,1.365a9.572,9.572,0,0,0-2.418,13.32Z" transform="translate(-1186.755 -356.945)" fill="#001f46"/>
      <path id="Caminho_6033" data-name="Caminho 6033" d="M1241.747,378.7a18.94,18.94,0,0,0,1.725,2.085c4.294,4.5,10.027,6.212,13.709,4.362a29.2,29.2,0,0,0,5.339,5.323c2.008,1.56,7.16,2.2,7.16,2.2,3.013,3.135-8.242,21.6-9.015,21.527-1.641-.143-3.742-10.341-2.213-14.043.686-1.658,1.84-3.663,1.509-4.553-1.166-3.124-2.414-3.383-4.476-4.2a7.839,7.839,0,0,0-6.109,1.01,1.088,1.088,0,0,1-.864.169,6.763,6.763,0,0,1-1.387-1.476l-4.495-6.489A6.764,6.764,0,0,1,1241.747,378.7Z" transform="translate(-1188.282 -369.369)" fill="#e9d6b8"/>
      <path id="Caminho_6034" data-name="Caminho 6034" d="M1295.665,485.78s-3.645,4.234-4.76,4.709c-1.491.634-6.053-.7-6.053-.7s-1.209-19.445-2.605-27.036-3.468-9.58-3.558-11.967c-.138-3.817-3.443-5.363-2.9-8.355s1.533-13.618,1.868-12.2c2.858,12.065,6.375,2.049,7.128.455C1285.2,429.808,1295.665,485.78,1295.665,485.78Z" transform="translate(-1207.876 -398.729)" fill="#f03e30"/>
      <path id="Caminho_6035" data-name="Caminho 6035" d="M1277.1,421.872s-4.421,4.7-4.118,6.536-1.9,7.637.285,15.671c2.5,9.176,3.775,15.384,4.242,21.38s-1.635,11.5-.813,18.847c.64,5.756,2.022,6.1,2.022,6.1a4.8,4.8,0,0,0,4.538-1.606c1.887-2.23-.94-21.851-1.879-26.761s-3.935-16.379-4.719-19.739a36.407,36.407,0,0,1-.745-9.619,40.863,40.863,0,0,1,1.25-8.577C1277.237,423.829,1277.482,421.317,1277.1,421.872Z" transform="translate(-1205.91 -393.984)" fill="#387bff"/>
      <path id="Caminho_6036" data-name="Caminho 6036" d="M1301.681,419.8a13.3,13.3,0,1,0,8.123-16.744A13.166,13.166,0,0,0,1301.681,419.8Z" transform="translate(-1222.269 -382.828)" fill="#001f46"/>
      <path id="Caminho_6037" data-name="Caminho 6037" d="M1227.221,705.92l2.486,19.068-10.747,4.931-5.967,1.259,10.588-7.906-3.463-17.2Z" transform="translate(-1172.042 -556.27)" fill="#e9d6b8"/>
      <path id="Caminho_6038" data-name="Caminho 6038" d="M1226.82,750.977l-2.332.607-1.566-1.408-8.585,4.171-7.615,1.74a1.4,1.4,0,0,1,.162-.918c.958-1.206,6.289-3.9,6.289-3.9s.086,1.769.845,1.817,7.336-3.287,8.857-4.216c2.62-1.6,3.109-2.594,3.309-2.472C1226.712,746.728,1226.82,750.977,1226.82,750.977Z" transform="translate(-1168.45 -579.385)" fill="#161711"/>
      <path id="Caminho_6039" data-name="Caminho 6039" d="M1150.755,641.44l-8.537,16.25-11.811-.58-5.874-1.632,13.042-2.133,7.122-13.884Z" transform="translate(-1121.516 -518.311)" fill="#e9d6b8"/>
      <path id="Caminho_6040" data-name="Caminho 6040" d="M1137.5,680.726l-2.348-.536-.741-1.971-10.589-.151-6.323-1.435a5.368,5.368,0,0,1,1.236-1.018c1.408-.567,6.407-.859,6.407-.859s-.527,1.382.123,1.779,7.927.63,9.707.5c3.063-.212,3.953-.866,4.075-.665C1139.362,676.906,1137.5,680.726,1137.5,680.726Z" transform="translate(-1117.497 -538.47)" fill="#161711"/>
      <path id="Caminho_6041" data-name="Caminho 6041" d="M1237.439,530.753l-6.37,2.771.027,8.454-43.775-6.889s-4.174-1.288-6.832,5.3c-3.783,9.385-13.41,38.562-13.41,38.562l6.094,6.372,19.114-32.965s39.165,18.37,52.079,14.4c4.954-1.521,8.74-10.274,8.034-19.114a113.721,113.721,0,0,0-1.94-13.3Z" transform="translate(-1145.817 -456.219)" fill="#194866"/>
      <path id="Caminho_6042" data-name="Caminho 6042" d="M1258.678,590.889l-31.339-2.254,2.693,48.36-9.241.293-6.828-56.635s1.843-8.429,7.826-7.157S1242.258,585.862,1258.678,590.889Z" transform="translate(-1172.596 -480.558)" fill="#163f59"/>
      <path id="Caminho_6043" data-name="Caminho 6043" d="M1326.692,509.2s-16.445-17.8-20.711-27.879c-5.1-12.034-4.657-27.153-5.6-32.155-1.727-9.191-3.823-27.077-4.225-29.286a8.245,8.245,0,0,1,1.012-4.7s-1.078-6.688,2.029-5.971c4.422,1.021,8.845,3.4,10.375,4.084,2.887,1.282,8.829,34.91,9.164,36.538,1.21,5.871,5.677,11.163,8.846,16.653,7.467,12.941,9.37,28.218,9.37,28.218S1336.048,505.989,1326.692,509.2Z" transform="translate(-1219.504 -386.767)" fill="#387bff"/>
      <g id="Grupo_1962" data-name="Grupo 1962" transform="translate(45.425 72.521)">
        <path id="Caminho_6044" data-name="Caminho 6044" d="M1279.367,529.4s-.14,2.18-10.62,1.657-25.778-3.914-25.778-3.914l24.262-1.079S1276.53,526.095,1279.367,529.4Z" transform="translate(-1234.588 -526.059)" fill="#e9d6b8"/>
        <path id="Caminho_6045" data-name="Caminho 6045" d="M1240.025,529.042c-4.99-.094-7.141,2.392-9.124,3.14a34.056,34.056,0,0,0-3.959,1.886c1.12-2.136,2.732-2.168,3.543-2.854s.6-.335-1.176-.5c-1.009-.1-2.793,1.671-4.077,2.646a3.969,3.969,0,0,1-1.805.9,21.605,21.605,0,0,1,2.954-3.229,25.073,25.073,0,0,1,5.044-3.388,19.3,19.3,0,0,1,6.779-.089C1240.883,527.961,1243.619,529.11,1240.025,529.042Z" transform="translate(-1223.426 -526.77)" fill="#e9d6b8"/>
        <path id="Caminho_6046" data-name="Caminho 6046" d="M1233.474,528.329a26.635,26.635,0,0,0-4.495,1.408c-.469.344-2.427,2.381-2.427,2.381a4.889,4.889,0,0,0,2.256-.975A42.352,42.352,0,0,1,1233.474,528.329Z" transform="translate(-1225.211 -527.356)" fill="#e9d6b8"/>
      </g>
      <path id="Caminho_6047" data-name="Caminho 6047" d="M1308.444,517.795l15.548-7.861s.042,9.573.112,13.2,1.669,8.8-1.3,9.55-4.551.373-1.463,2.1,2.356,3.538,1.2,5.023,5.015,15.657,5.015,15.657-.4.272-1.58,1.156c-4.811-5.856-10.7-12.446-12.935-17.739C1310.142,532.041,1309.033,524.2,1308.444,517.795Z" transform="translate(-1226.561 -444.328)" fill="#0063cb"/>
      <path id="Caminho_6048" data-name="Caminho 6048" d="M1302.266,460.827l-.592-30.473s.06-9.508.225-12.308c.17-2.892,5.273.51,5.273.51s7.138,9.348,7.289,31.837c.1,15.041-.764,22.889-7.939,22.267-6.7-.582-14.283-1.566-14.283-1.566l-3.338-10.043Z" transform="translate(-1215.398 -391.178)" fill="#387bff"/>
      <g id="Grupo_1963" data-name="Grupo 1963" transform="translate(19.999 49.007)">
        <rect id="Retngulo_222" data-name="Retngulo 222" width="1.107" height="53.816" transform="translate(11.851 30.305) rotate(-83.12)" fill="#cdd5d7"/>
        <path id="Caminho_6049" data-name="Caminho 6049" d="M1205.973,503.972a1.469,1.469,0,0,1-1.538,1.377l-27.4-3.306c-.746-.091-1.692-.758-2.341-3.026l-10.564-26.368a1.426,1.426,0,0,1,1.769-1.359l28.009,4.236a2.663,2.663,0,0,1,1.551,2.092Z" transform="translate(-1164.133 -471.227)" fill="#cdd5d7"/>
        <path id="Caminho_6050" data-name="Caminho 6050" d="M1218.011,545.063l.277.033,26.752,3.226a10.026,10.026,0,0,1-4.476.316l-22.378-2.7-.276-.034-22.373-2.7a10.075,10.075,0,0,1-4.278-1.372Z" transform="translate(-1179.627 -511.556)" fill="#b7bec0"/>
      </g>
      <path id="Caminho_6051" data-name="Caminho 6051" d="M1296.057,408.094a55.294,55.294,0,0,0-1.3,10.134c-.121,5.188,5.383,32.47,5.383,32.47l-1.532-24.387-1.566-3.58,1.839-.61s.885-9.309.579-11.306l-.341-2.212Z" transform="translate(-1218.743 -386.16)" fill="#0063cb"/>
      <path id="Caminho_6052" data-name="Caminho 6052" d="M1279.643,420.388s-1.89,10.423-1.327,16.482,4.541,21.081,4.541,21.081-5.343-19.832-6.1-19.738.379-3.111.379-3.111l-1.249-.8s-.422-9.007,1.372-11.53S1279.643,420.388,1279.643,420.388Z" transform="translate(-1207.942 -393.181)" fill="#0063cb"/>
      <path id="Caminho_6053" data-name="Caminho 6053" d="M1354.55,569.38l-5.874,8.2s7.279,12.311,10.6,11.321,2.9-4.383,3.115-7.283S1354.55,569.38,1354.55,569.38Z" transform="translate(-1249.54 -478.282)" fill="#0063cb"/>
      <path id="Caminho_6054" data-name="Caminho 6054" d="M1289.289,473c.132-.163.27-.333.413-.512l12.786-.213L1301.9,441.8a29.755,29.755,0,0,1,1.414-4.881c.223,3.338,1.82,27.352,2.031,30.527.228,3.414,3.11,3.794,3.754,4.894s.089,1.329-2.036.9-1.34-.1-.885,1.01-.708.811-4.8-.632c-2.979-1.05-8.736,0-11.658.651Z" transform="translate(-1215.62 -402.622)" fill="#0063cb"/>
    </g>
  </g>
</svg>
