<svg id="belgica" xmlns="http://www.w3.org/2000/svg" width="25.591" height="25.591" viewBox="0 0 25.591 25.591">
  <path id="Caminho_3769" data-name="Caminho 3769" d="M154.71.8a12.842,12.842,0,0,0-8.9,0l-1.113,12,1.113,12a12.842,12.842,0,0,0,8.9,0l1.113-12Z" transform="translate(-137.464 0)" fill="#ffda44"/>
  <path id="Caminho_3770" data-name="Caminho 3770" d="M353.388,27.924a12.8,12.8,0,0,0-8.345-12v24A12.8,12.8,0,0,0,353.388,27.924Z" transform="translate(-327.797 -15.128)" fill="#d80027"/>
  <path id="Caminho_3771" data-name="Caminho 3771" d="M0,27.924a12.8,12.8,0,0,0,8.345,12v-24A12.8,12.8,0,0,0,0,27.924Z" transform="translate(0 -15.128)"/>
</svg>
