<svg xmlns="http://www.w3.org/2000/svg" width="47.98" height="47.98" viewBox="0 0 47.98 47.98"><defs><style>.a{fill:#00a2ff;}.b{fill:#dfe8f4;}.c{fill:#fff;}.d{fill:#2be005;}.e{fill:#23ab07;}</style></defs><g transform="translate(5366 -7025)"><circle class="a" cx="14.84" cy="14.84" r="14.84" transform="translate(-5366 7043.3)"/><path class="b" d="M19.65,37.8c0,1.06-.6,1.93-1.34,1.93S17,38.86,17,37.8s.6-1.93,1.34-1.93S19.65,36.73,19.65,37.8Z" transform="translate(-5374.01 7016.99)"/><ellipse class="b" cx="1.34" cy="1.93" rx="1.34" ry="1.93" transform="translate(-5347.97 7052.86)"/><path class="b" d="M17.71,42a.71.71,0,0,0-.69.81,5.88,5.88,0,0,0,11.65,0A.71.71,0,0,0,28,42Z" transform="translate(-5374.01 7016.99)"/><path class="c" d="M22.85,44.14A5.89,5.89,0,0,0,18.58,46a5.8,5.8,0,0,0,8.53,0A5.87,5.87,0,0,0,22.85,44.14Z" transform="translate(-5374.01 7016.99)"/><circle class="d" cx="14.84" cy="14.84" r="14.84" transform="translate(-5347.7 7025)"/><path class="e" d="M37.12,37.12A14.87,14.87,0,0,0,26.88,26.88,14.87,14.87,0,0,0,37.12,37.12Z" transform="translate(-5374.01 7016.99)"/><path class="c" d="M38,19.49c0,1.07-.6,1.93-1.34,1.93s-1.35-.86-1.35-1.93.6-1.92,1.35-1.92S38,18.43,38,19.49Z" transform="translate(-5374.01 7016.99)"/><path class="c" d="M47,19.49c0,1.07-.6,1.93-1.34,1.93s-1.34-.86-1.34-1.93.6-1.92,1.34-1.92S47,18.43,47,19.49Z" transform="translate(-5374.01 7016.99)"/><path class="c" d="M46.29,29.56a.71.71,0,0,0,.69-.82,5.88,5.88,0,0,0-11.65,0,.71.71,0,0,0,.69.82Z" transform="translate(-5291.7 7070.213) rotate(180)"/></g></svg>