<svg xmlns="http://www.w3.org/2000/svg" width="48.34" height="59.582" viewBox="0 0 48.34 59.582"><defs><style>.a{fill:#2be005;}.b{fill:#00a2ff;}.c{fill:#fff;}.d{fill:#002380;}</style></defs><g transform="translate(-12.532 -8.012)"><path class="a" d="M25.915,61.391,30.36,57a5.363,5.363,0,0,1,7.573,0l4.383,4.4a1.49,1.49,0,0,0,2.545-1.055V31.88H23.37V60.336a1.49,1.49,0,0,0,2.545,1.055Z" transform="translate(2.618 5.765)"/><path class="b" d="M40.625,9.748h0a5.289,5.289,0,0,1,9.2,3.812h0a5.289,5.289,0,0,0,5.5,5.612h0a5.289,5.289,0,0,1,3.812,9.2h0a5.289,5.289,0,0,0,0,7.846h0a5.289,5.289,0,0,1-3.812,9.138h0a5.289,5.289,0,0,0-5.55,5.55h0a5.289,5.289,0,0,1-9.2,3.812h0a5.289,5.289,0,0,0-7.846,0h0a5.289,5.289,0,0,1-9.2-3.812h0a5.289,5.289,0,0,0-5.45-5.55h0a5.289,5.289,0,0,1-3.812-9.2h0a5.289,5.289,0,0,0,0-7.846h0a5.289,5.289,0,0,1,3.812-9.138h0a5.289,5.289,0,0,0,5.55-5.55h0a5.289,5.289,0,0,1,9.2-3.812h0a5.277,5.277,0,0,0,7.8-.062Z"/><path class="c" d="M38.08,25.6a.385.385,0,0,1-.385-.459l.472-2.483a4.171,4.171,0,0,0,.074-.782h0a3.725,3.725,0,0,0-2.284-3.389h0a.745.745,0,0,0-1.018.683h0a9.237,9.237,0,0,1-1.1,4.358h0A6.493,6.493,0,0,1,28.148,26.9H25.23v11.36h2.818a11.571,11.571,0,0,1,3.563.571h0a11.174,11.174,0,0,0,3.551.571h6.444a5.7,5.7,0,0,0,5.661-4.966l.77-6.1a2.384,2.384,0,0,0-2.359-2.682Z" transform="translate(3.067 2.518)"/><path class="d" d="M22.143,24.76h6.282a.67.67,0,0,1,.67.67V36.691a.36.36,0,0,1-.36.36H22.143a1.763,1.763,0,0,1-1.763-1.763V26.523A1.763,1.763,0,0,1,22.143,24.76Z" transform="translate(1.896 4.045)"/></g></svg>