<svg xmlns="http://www.w3.org/2000/svg" width="42" height="42" viewBox="0 0 42 42">
  <g id="Grupo_5191" data-name="Grupo 5191" transform="translate(-513 -374)">
    <circle id="Elipse_343" data-name="Elipse 343" cx="21" cy="21" r="21" transform="translate(513 374)" fill="#d80027"/>
    <path id="Caminho_3772" data-name="Caminho 3772" d="M132.111,110.127H121.645l-3.234-9.953-3.234,9.953H104.712l8.467,6.152-3.234,9.954,8.467-6.152,8.467,6.152-3.234-9.954Zm-16.563,5.381,1.094-3.366h3.539l1.094,3.366h0l-2.863,2.08-2.863-2.08Zm3.978-5.381H117.3l1.114-3.43Zm3.463,4.136-.689-2.12h3.607Zm-8.467-2.12-.689,2.12-2.918-2.12Zm-.744,8.812,1.115-3.43,1.8,1.31Zm6.347-2.12,1.8-1.31,1.115,3.43Z" transform="translate(415.446 281.075)" fill="#ffda44"/>
  </g>
</svg>
