<svg xmlns="http://www.w3.org/2000/svg" width="273.721" height="117.545" viewBox="0 0 273.721 117.545"><defs><style>.a{fill:#004588;}.b{fill:#b1b3b4;}.c{fill:none;}</style></defs><g transform="translate(0 0.008)"><path class="a" d="M28.348,45.233a17.074,17.074,0,0,1,34.145-.019l0,.019V61.071H53.714V45.929a8.555,8.555,0,0,0-8.294-8.651,8.567,8.567,0,0,0-8.289,8.665c0,.012,0,11.449,0,15.128h-8.78Zm90,15.78V59.889a7.83,7.83,0,0,1-3.962,1.443c-2.723,0-4.33-2.485-4.33-6.575s1.793-6.714,4.548-6.714a8.766,8.766,0,0,1,3.953,1.472V48.338h3.021V61.016l-3.231,0Zm0-9.73a6.459,6.459,0,0,0-2.434-.539c-1.63,0-2.461,1.283-2.461,3.929,0,2.7.774,3.959,2.382,3.959a7.261,7.261,0,0,0,2.513-.563V51.285Zm55.916,9.73V59.889a7.8,7.8,0,0,1-3.954,1.443c-2.729,0-4.333-2.485-4.333-6.575s1.8-6.714,4.548-6.714a8.776,8.776,0,0,1,3.954,1.472V48.338H177.5V61.016l-3.235,0Zm0-9.73a6.422,6.422,0,0,0-2.427-.539c-1.634,0-2.462,1.283-2.462,3.929,0,2.7.773,3.959,2.379,3.959a7.231,7.231,0,0,0,2.511-.563V51.285Zm-70.649,9.754L96.853,46.575l.134,14.462H94.152V43.2h4.493l6.762,14.571-.134-14.57h2.836v17.83h-4.491Zm25.129.293a3.161,3.161,0,0,1-2.992-1.5,7.423,7.423,0,0,1-.427-3.369V50.477h-2.14V48.713l2.139-.323V44.862h3.231v3.473h3.423v2.139h-3.423v5.4c0,2.086,0,2.164.215,2.513a1.3,1.3,0,0,0,1.257.535,8.23,8.23,0,0,0,2.087-.323l.4,1.951a11.562,11.562,0,0,1-3.772.778Zm6.9-15.188a1.843,1.843,0,1,1,0-3.686,1.843,1.843,0,0,1,0,3.686Zm-1.63,14.895v-12.7h3.234v12.7Zm11.468.239c-3.849,0-6.092-2.406-6.092-6.574,0-4.117,2.269-6.66,6.092-6.66,3.906,0,6.094,2.379,6.094,6.633C151.578,58.9,149.364,61.277,145.484,61.277Zm0-10.934c-1.843,0-2.7,1.364-2.7,4.275,0,3.132.826,4.39,2.724,4.39,1.875,0,2.677-1.257,2.677-4.306,0-3.076-.778-4.359-2.7-4.359Zm15.571,10.695v-7.7c0-1.63-.132-2.595-1.767-2.595a8.778,8.778,0,0,0-2.779.51v9.785h-3.237v-12.7h3.022v1.123a9.9,9.9,0,0,1,4.567-1.417,3.2,3.2,0,0,1,2.836,1.367c.479.748.59,1.417.59,3.447v8.183h-3.234v0ZM183.28,42.056V61.037h-3.235V42.056" transform="translate(5.58 5.577)"/><g transform="translate(191.703 47.572)"><path class="b" d="M181.784,58.729V57.406a9.2,9.2,0,0,1-4.2,1.419c-2.729,0-4.309-2.459-4.309-6.55,0-3.957,1.872-6.633,4.6-6.633a9,9,0,0,1,3.954,1.391v-.9h1.924V58.729Zm0-10.412a9.014,9.014,0,0,0-3.4-.856c-1.9,0-2.968,1.628-2.968,4.656,0,3.392.934,4.913,2.834,4.913a9.455,9.455,0,0,0,3.531-.906V48.317ZM168.89,58.032c-1.1.536-2.138.7-4.677.7h-4.037V40.9h3.315c3.022,0,4.064.105,5.107.56a3.753,3.753,0,0,1,2.219,3.716c0,2.406-1.045,3.608-3.531,4.093,2.836.318,4.171,1.763,4.171,4.516a4.481,4.481,0,0,1-2.568,4.251ZM167.554,42.98c-.718-.427-1.173-.481-3.367-.481h-1.869v6.07h1.312c3.874,0,5.053-.75,5.053-3.235a2.651,2.651,0,0,0-1.125-2.354Zm.16,7.62a6.3,6.3,0,0,0-2.965-.427h-2.433v6.951h1.312c2.242,0,3.016-.108,3.818-.482a3.3,3.3,0,0,0,1.715-3.124,3.14,3.14,0,0,0-1.448-2.918Zm26.209,8.129V51c0-1.872.108-3.343-2.116-3.343a11.048,11.048,0,0,0-3.689.723V58.73h-1.975V46.139h1.923v1.011a11.06,11.06,0,0,1,4.361-1.309,3.327,3.327,0,0,1,2.836,1.23c.529.723.637,1.312.637,3.288V58.73h-1.977Zm12.179,0-5.8-6.421v6.421h-1.978V39.747H200.3v11.9l5.641-5.505h2.324l-5.96,5.716,6.311,6.873H206.1Z" transform="translate(-160.176 -39.747)"/></g><path class="b" d="M84.015,42.46A21.634,21.634,0,0,0,62.453,21.137h0a21.5,21.5,0,0,0-15.774,6.925,19.487,19.487,0,0,1,9.934,6.28,9.991,9.991,0,0,1,5.845-1.905c5.712,0,10.41,4.9,10.472,10.929V62.491H84.02V42.485l0-.026Z" transform="translate(9.187 4.162)"/><path d="M163.156,66.712c-1.939,0-2.98-1.269-2.98-3.617,0-2.328,1.084-3.62,3-3.62s2.968,1.3,2.968,3.632-1.053,3.606-2.988,3.606Zm.029-6.4c-1.221,0-1.851.934-1.851,2.779a4.135,4.135,0,0,0,.484,2.169,1.6,1.6,0,0,0,1.358.618c1.221,0,1.81-.893,1.81-2.772s-.577-2.795-1.8-2.795Zm5.107.042v2.169h2.988V63.3h-2.988v3.283h-1.1V59.567h4.159v.79h-3.064Zm9.77,5.987a4.442,4.442,0,0,1-1.917.243h-1.667V59.567h1.568a4.767,4.767,0,0,1,1.993.223,1.478,1.478,0,0,1,.862,1.472,1.453,1.453,0,0,1-1.386,1.613,1.589,1.589,0,0,1,1.628,1.757,1.765,1.765,0,0,1-1.08,1.711Zm-.622-5.817c-.254-.163-.462-.17-1.209-.17h-.676v2.157h.5c1.369,0,1.78-.261,1.78-1.144a.915.915,0,0,0-.393-.841Zm.041,2.914a2.361,2.361,0,0,0-1.115-.156h-.814V65.8h.5a3.026,3.026,0,0,0,1.372-.177A1.16,1.16,0,0,0,178,64.5a1.135,1.135,0,0,0-.524-1.065Zm2.664,3.146V59.567H184.4v.79h-3.16v2.169H184.3V63.3h-3.064v2.5h3.2v.788h-4.3Zm5.17,0V59.567h1.092V65.8h3.106v.788h-4.2Zm6.762.124c-1.747,0-2.767-1.3-2.767-3.617,0-2.346,1.072-3.63,2.977-3.63a7.576,7.576,0,0,1,2.178.385l-.17.772a9.824,9.824,0,0,0-1.905-.275c-1.3,0-1.922.886-1.922,2.717a3.905,3.905,0,0,0,.5,2.17,1.458,1.458,0,0,0,1.317.608,4.983,4.983,0,0,0,1.349-.208V63.271h1.041V66.1a6.786,6.786,0,0,1-2.6.61Zm3.7-.124V59.567h1.092v7.019h-1.093Zm7.04-.539a2.953,2.953,0,0,1-2.065.665,2.676,2.676,0,0,1-2.22-.936c-.306-.443-.357-.79-.357-2.085V59.567h1.093v4.516c0,1.149.389,1.771,1.611,1.771a1.445,1.445,0,0,0,1.43-.686,2.822,2.822,0,0,0,.18-1.293V59.567h.937v4.159c0,1.451-.105,1.863-.608,2.322Zm7.882.539-.108-6.054-1.881,6.054h-1.221l-1.843-6.054-.135,6.054h-.957l.293-7.019h1.463l1.885,6.118,1.865-6.116h1.463l.242,7.018H210.7Z" transform="translate(31.527 11.706)"/><g transform="translate(99.273 86.757)"><path class="b" d="M82.947,72.488h4.817v1.193H84.177v2.765h3.267v1.19H84.177v3.115h3.587v1.194H82.947V72.49Zm12.232,9.457H94.056v-1.1h-.024a2.232,2.232,0,0,1-2.059,1.259c-1.624,0-2.351-1.111-2.351-2.966V75.035h1.155V78.61c0,1.616.323,2.4,1.333,2.468,1.319,0,1.91-1.166,1.91-2.845v-3.2h1.157v6.91Zm1.97-6.909H98.23v1.072h.026a1.915,1.915,0,0,1,1.636-1.233,2.977,2.977,0,0,1,.766.1v1.137a1.582,1.582,0,0,0-.642-.124c-1.032,0-1.711,1.084-1.711,2.816v3.145H97.147V75.036Zm7.572-.162c1.91,0,3.193,1.515,3.193,3.614a3.221,3.221,0,1,1-6.392,0c0-2.1,1.281-3.614,3.2-3.614Zm0,6.2c1.357,0,1.963-1.356,1.963-2.59,0-1.312-.73-2.585-1.963-2.585s-1.969,1.273-1.969,2.585c0,1.233.6,2.59,1.97,2.59Zm4.273-.489a2.913,2.913,0,0,0,1.442.488c.533,0,1.182-.243,1.182-.989,0-1.261-2.722-1.151-2.722-3.091a2.011,2.011,0,0,1,2.218-2.123,4.4,4.4,0,0,1,1.44.27l-.1,1.111a3.151,3.151,0,0,0-1.221-.354c-.591,0-1.108.275-1.108.838,0,1.416,2.72,1.009,2.72,3.213a2.054,2.054,0,0,1-2.19,2.154,3.368,3.368,0,0,1-1.723-.377l.06-1.143Zm4.793,3.223a1.549,1.549,0,0,0,.539.111c1.038,0,1.381-1.571,1.381-1.707a4.407,4.407,0,0,0-.221-.734l-2.13-6.447h1.269l1.688,5.714h.024l1.721-5.712h1.173l-2.316,7.058c-.431,1.324-.886,2.857-2.414,2.857a3.662,3.662,0,0,1-.788-.091l.075-1.047Zm6.158-3.223a2.909,2.909,0,0,0,1.441.488c.529,0,1.182-.243,1.182-.989,0-1.261-2.723-1.151-2.723-3.091a2.01,2.01,0,0,1,2.214-2.123,4.388,4.388,0,0,1,1.442.27l-.1,1.111a3.134,3.134,0,0,0-1.217-.354c-.591,0-1.111.275-1.111.838,0,1.416,2.723,1.009,2.723,3.213a2.055,2.055,0,0,1-2.193,2.154,3.363,3.363,0,0,1-1.723-.377l.063-1.143Zm8.593-4.526h-1.66v3.778c0,.8.443,1.236.972,1.236a1.341,1.341,0,0,0,.787-.243v1.082a3.364,3.364,0,0,1-.984.189,1.76,1.76,0,0,1-1.932-2V76.059H124.3V75.034h1.419v-1.6l1.157-.407v2.006h1.661v1.029Zm6.269,5.6a4.427,4.427,0,0,1-1.981.445c-2.226,0-3.251-1.491-3.251-3.736,0-2.047,1.168-3.495,2.941-3.495,2.094,0,2.772,1.676,2.772,3.9H130.8a2.164,2.164,0,0,0,2.068,2.3,3.453,3.453,0,0,0,1.934-.692Zm-.754-3.835c0-1.058-.56-1.924-1.561-1.924-1.133,0-1.6,1.029-1.688,1.923h3.249Zm2.775-2.791h1.083v1.005h.024a2.084,2.084,0,0,1,2-1.167,1.861,1.861,0,0,1,1.781,1.34,2.219,2.219,0,0,1,1.946-1.34c1.6,0,2.178,1.137,2.178,2.639v4.431h-1.156V77.827c0-.858-.186-1.924-1.123-1.924-1.18,0-1.652,1.273-1.652,2.564v3.479h-1.156V77.831c0-.858-.184-1.927-1.123-1.927-1.18,0-1.648,1.275-1.648,2.566v3.479h-1.159V75.04h.006Z" transform="translate(-82.947 -72.488)"/></g><path class="c" d="M0-.008H273.721V117.537H0Z"/></g></svg>