<svg xmlns="http://www.w3.org/2000/svg" width="80.489" height="65.295" viewBox="0 0 80.489 65.295"><defs><style>.a{fill:#0dbf72;}.b{fill:#11f215;}.c{fill:#fff;}</style></defs><g transform="translate(-8 -13.16)"><path class="a" d="M42.982,38.86,21.4,60.458a2.029,2.029,0,0,1-3.471-1.442V38.894Z" transform="translate(6.721 17.395)"/><rect class="b" width="80.489" height="56.326" rx="3.19" transform="translate(88.489 69.486) rotate(180)"/><path class="c" d="M36.6,47.27a3.035,3.035,0,0,1-3.035-3V43.43a9.34,9.34,0,0,1,5.366-8.384,5.289,5.289,0,1,0-7.646-4.779,3.035,3.035,0,0,1-6.07,0,11.418,11.418,0,1,1,16.416,10.2A3.354,3.354,0,0,0,39.665,43.4v.872a3.035,3.035,0,0,1-3.069,3Z" transform="translate(11.649 3.838)"/><path class="c" d="M33.206,43.507a3.035,3.035,0,0,1-2.147-.889,2.381,2.381,0,0,1-.369-.469,2.759,2.759,0,0,1-.453-1.09,2.432,2.432,0,0,1,0-.587,2.465,2.465,0,0,1,0-.6,2.716,2.716,0,0,1,.168-.57,2.247,2.247,0,0,1,.285-.52,1.9,1.9,0,0,1,.369-.453,3.119,3.119,0,0,1,4.293,0,1.9,1.9,0,0,1,.369.453,3.22,3.22,0,0,1,.3.52,2.232,2.232,0,0,0,.168.57,3.671,3.671,0,0,1,0,.6,3.622,3.622,0,0,1,0,.587,5.65,5.65,0,0,1-.168.57,3.22,3.22,0,0,1-.3.52,2.382,2.382,0,0,1-.369.47,3.035,3.035,0,0,1-2.146.889Z" transform="translate(15.039 16.454)"/></g></svg>