<svg xmlns="http://www.w3.org/2000/svg" xmlns:xlink="http://www.w3.org/1999/xlink" width="176" height="176" viewBox="0 0 176 176">
  <defs>
    <filter id="cinza" x="18" y="18" width="158" height="158" filterUnits="userSpaceOnUse">
      <feOffset dx="9" dy="9" input="SourceAlpha"/>
      <feGaussianBlur stdDeviation="12.5" result="blur"/>
      <feFlood flood-color="#02106b" flood-opacity="0.188"/>
      <feComposite operator="in" in2="blur"/>
      <feComposite in="SourceGraphic"/>
    </filter>
    <filter id="branco" x="0" y="0" width="158" height="158" filterUnits="userSpaceOnUse">
      <feOffset dx="-9" dy="-9" input="SourceAlpha"/>
      <feGaussianBlur stdDeviation="12.5" result="blur-2"/>
      <feFlood flood-color="#fff"/>
      <feComposite operator="in" in2="blur-2"/>
      <feComposite in="SourceGraphic"/>
    </filter>
  </defs>
  <g id="Grupo_1969" data-name="Grupo 1969" transform="translate(-436.5 -289.5)">
    <g id="retangulo-base-neomorfismo" transform="translate(483 336)">
      <g transform="matrix(1, 0, 0, 1, -46.5, -46.5)" filter="url(#cinza)">
        <rect id="cinza-2" data-name="cinza" width="83" height="83" rx="41.5" transform="translate(46.5 46.5)" fill="#e9f1f9" opacity="0.9"/>
      </g>
      <g transform="matrix(1, 0, 0, 1, -46.5, -46.5)" filter="url(#branco)">
        <rect id="branco-2" data-name="branco" width="83" height="83" rx="41.5" transform="translate(46.5 46.5)" fill="#e9f1f9"/>
      </g>
    </g>
    <g id="Grupo_1973" data-name="Grupo 1973" transform="translate(0 50)">
      <g id="Grupo_1970" data-name="Grupo 1970" transform="translate(0 -50)">
        <g id="Grupo_1969-2" data-name="Grupo 1969">
          <path id="Caminho_4305" data-name="Caminho 4305" d="M50.359,16.825A33.534,33.534,0,1,1,16.825,50.359,33.534,33.534,0,0,1,50.359,16.825m0-8.825A42.359,42.359,0,1,0,92.718,50.359,42.359,42.359,0,0,0,50.359,8Z" transform="translate(474 328)" fill="#fff"/>
          <path id="Caminho_4307" data-name="Caminho 4307" d="M41.179,28.825A12.355,12.355,0,1,1,28.825,41.179,12.355,12.355,0,0,1,41.179,28.825m0-8.825A21.179,21.179,0,1,0,62.359,41.179,21.179,21.179,0,0,0,41.179,20Z" transform="translate(483.18 337.179)" fill="#2be005"/>
          <path id="Caminho_4306" data-name="Caminho 4306" d="M15.723,66.512a2.7,2.7,0,0,1-1.871-.777,2.665,2.665,0,0,1,0-3.742L44.6,31.248A2.647,2.647,0,0,1,48.34,34.99L17.594,65.735A2.63,2.63,0,0,1,15.723,66.512Z" transform="translate(477.891 345.24)" fill="#00a2ff"/>
        </g>
        <path id="Caminho_4311" data-name="Caminho 4311" d="M25.906,46.82l-8.736,8.825-8.4-2.189A.935.935,0,0,1,8.344,51.9l6.9-6.9a1.765,1.765,0,0,1,1.624-.441Z" transform="translate(474.062 355.931)" fill="#00a2ff"/>
        <path id="Caminho_4309" data-name="Caminho 4309" d="M21.966,45.82,13.23,54.645l2.1,8.4a.935.935,0,0,0,1.553.424l6.9-6.9a1.765,1.765,0,0,0,.441-1.624Z" transform="translate(478 356.93)" fill="#00a2ff"/>
      </g>
      <g id="Grupo_1972" data-name="Grupo 1972" transform="translate(0 -50)">
        <path id="Caminho_4310" data-name="Caminho 4310" d="M29.783,42.977,20.958,51.8l-8.4-2.1a.935.935,0,0,1-.424-1.606l6.954-6.883a1.765,1.765,0,0,1,1.624-.441Z" transform="translate(476.927 353.032)" fill="#044bd9"/>
        <path id="Caminho_4308" data-name="Caminho 4308" d="M25.825,42,17,50.825l2.1,8.4a.935.935,0,0,0,1.553.424L27.59,52.7a1.765,1.765,0,0,0,.441-1.624Z" transform="translate(480.885 354.008)" fill="#044bd9"/>
      </g>
    </g>
  </g>
</svg>
